<svg width="163" height="186" viewBox="0 0 163 186" fill="none" xmlns="http://www.w3.org/2000/svg">
<path d="M21.8049 85.8031L17.2416 88.1399C16.5071 88.5161 15.5982 88.2228 15.2221 87.4882C14.8459 86.7536 15.1391 85.8448 15.8737 85.4686L20.4147 83.1432C21.1493 82.7671 22.0581 83.0603 22.4343 83.7949C22.8104 84.5295 22.5395 85.427 21.8049 85.8031Z" fill="#1B262F"/>
<path d="M51.3828 64.278L58.7508 60.5049" stroke="#1B262F" stroke-width="12" stroke-miterlimit="10" stroke-linecap="round" stroke-linejoin="round"/>
<path d="M44.4562 40.7661C43.7645 42.1038 43.3198 43.5398 42.9977 44.941C42.6648 46.3759 42.4883 47.7869 42.3899 49.186C42.3709 49.533 42.3633 49.9021 42.3665 50.2377C42.3681 50.4054 42.3475 50.5846 42.3491 50.7524L42.3654 51.2779C42.38 51.6357 42.3832 51.9712 42.3865 52.3067L42.4635 53.335L42.5248 53.8937L42.5856 54.3965L42.7408 55.4128C42.8591 56.0828 42.9997 56.7414 43.1402 57.3999C43.6803 60.0456 41.9602 62.6124 39.3032 63.1301C36.6575 63.67 34.0794 61.9275 33.5508 59.3041C33.3749 58.4669 33.445 57.6161 33.6948 56.842C33.9663 56.0005 34.2047 55.204 34.499 54.407L34.9573 53.217L35.1864 52.622L35.4492 52.0378L35.9863 50.8918C36.1839 50.5096 36.3593 50.1388 36.5683 49.7789L36.8539 49.2392C36.9527 49.0481 37.063 48.8793 37.1732 48.7105C37.3822 48.3505 37.5913 47.9906 37.8117 47.6529C38.7043 46.2686 39.6871 44.9504 40.7719 43.7768C41.8567 42.6031 43.0093 41.507 44.2983 40.6222C44.365 40.588 44.4324 40.6097 44.4774 40.6429C44.4888 40.6651 44.4894 40.721 44.4562 40.7661Z" fill="#546996"/>
<path d="M51.3276 37.669C50.5447 38.8286 49.9751 40.0756 49.5396 41.3102C49.1155 42.567 48.8814 43.8108 48.8482 45.0079C48.8205 45.6122 48.8596 46.1823 48.9209 46.7409C49.0045 47.2882 49.1103 47.8241 49.2943 48.348C49.6173 49.3628 50.1069 50.264 50.6964 51.0861C52.318 53.3747 51.789 56.5116 49.5005 58.1331C47.2121 59.7545 44.0752 59.2254 42.4537 56.9368C41.8413 56.0703 41.5298 55.0778 41.5092 54.1049L41.5011 53.2661C41.461 51.4321 41.6783 49.6068 42.1763 47.8907C42.4141 47.0383 42.7307 46.23 43.0923 45.4547C43.4539 44.6795 43.872 43.9596 44.3352 43.2728C45.2506 41.933 46.3354 40.7593 47.5005 39.7974C48.6657 38.8354 49.9106 38.0293 51.2136 37.4464C51.2804 37.4122 51.3591 37.4562 51.3819 37.5007C51.3602 37.568 51.3607 37.6239 51.3276 37.669Z" fill="#546996"/>
<path d="M57.6481 33.1679C57.1464 34.4926 56.7793 35.8607 56.5241 37.2277C56.2688 38.5948 56.1363 39.9271 56.1823 41.2241C56.1947 42.5103 56.3743 43.7389 56.7092 44.8319C57.0219 45.9362 57.5343 46.882 58.0897 47.6373C59.778 49.8916 59.3277 53.0726 57.0957 54.7494C54.8637 56.4263 51.6606 55.9873 49.9837 53.7552C49.3491 52.9 49.0039 51.8966 48.9719 50.9015L48.9291 49.94C48.832 47.9947 49.0938 46.1466 49.5695 44.4419C49.8074 43.5895 50.1017 42.7925 50.441 42.0287C50.7804 41.2648 51.1426 40.5455 51.5384 39.837C52.3414 38.4424 53.2802 37.203 54.2646 36.0526C55.2603 34.9245 56.3239 33.8741 57.4674 32.9795C57.5227 32.923 57.5901 32.9447 57.6465 33.0001C57.6585 33.0783 57.659 33.1342 57.6481 33.1679Z" fill="#546996"/>
<path d="M114.819 141.573L85.7924 156.438C74.195 162.377 60.381 157.677 56.1781 146.342L32.1234 81.8113C27.2663 68.7601 33.7088 53.6877 47.087 46.8369C60.2426 40.1 75.9785 43.4498 83.8825 54.6597L123.699 111.288C130.741 121.309 126.572 135.555 114.819 141.573Z" fill="#546996"/>
<path d="M57.8252 57.2702C56.2585 54.8692 51.8501 46.5898 57.1772 36.4719C57.5508 35.7749 58.5807 35.8656 58.8342 36.635C59.0773 37.4939 60.2853 37.4935 60.5346 36.6634C61.2503 34.33 62.5605 31.0178 64.8664 27.7295C65.3741 27.02 66.4735 27.3562 66.493 28.2172L66.495 29.593C66.5031 30.4318 67.5694 30.813 68.0884 30.1258C69.7564 27.951 72.7561 24.7008 77.1956 22.2869C77.9633 21.8657 78.8216 22.7187 78.4041 23.4945L76.6676 26.6878C76.2501 27.4636 77.0747 28.3057 77.8538 27.9067C80.1688 26.7212 83.7483 25.5907 88.1295 26.4099C88.8689 26.537 89.1132 27.5077 88.5138 27.9833L85.0623 30.7904C84.4298 31.311 84.7528 32.3257 85.5921 32.3736C87.7181 32.465 90.9576 33.1945 94.9869 35.7955C95.6172 36.2033 95.4808 37.1441 94.7897 37.3856C91.8243 38.3984 85.7941 40.5592 83.8297 42.1552C81.4772 44.0905 62.9509 55.2635 59.0587 57.5939C58.6243 57.7882 58.0863 57.6703 57.8252 57.2702Z" fill="#1B262F"/>
<path d="M48.8323 61.8754C47.7998 59.2009 43.6585 50.7847 32.3353 49.1933C31.5513 49.089 31.023 49.9777 31.4991 50.633C32.0539 51.3324 31.3475 52.3123 30.5283 52.0293C28.2275 51.2126 24.7405 50.3289 20.7246 50.278C19.8522 50.2752 19.4824 51.3637 20.1697 51.8828L21.2847 52.6886C21.9606 53.1854 21.6468 54.2734 20.7857 54.2929C18.0576 54.3974 13.6671 54.9317 9.13585 57.1116C8.34536 57.4883 8.53584 58.6833 9.40937 58.798L13.0153 59.2555C13.8888 59.3701 14.0902 60.5314 13.3111 60.9304C10.9961 62.1159 7.98659 64.3595 6.09051 68.3932C5.76146 69.0675 6.40638 69.8331 7.14258 69.6246L11.4376 68.4649C12.2297 68.2559 12.8643 69.1111 12.4125 69.8201C11.2441 71.5986 9.94256 74.6534 9.69794 79.4431C9.66043 80.1928 10.5035 80.6321 11.1035 80.2125C13.6585 78.3983 18.9363 74.7684 21.3794 74.1073C24.3248 73.3296 44.219 64.8279 48.3848 63.0318C48.7855 62.8266 49.0043 62.3211 48.8323 61.8754Z" fill="#1B262F"/>
<path d="M58.8961 81.6383L56.0226 76.0269C54.1273 72.3258 54.8317 68.1599 57.592 66.7464C60.3522 65.3329 64.1442 67.1962 66.0395 70.8973L68.9131 76.5087C70.8084 80.2099 70.1039 84.3758 67.3437 85.7893C64.5835 87.2028 60.7914 85.3395 58.8961 81.6383Z" fill="#DB8D03"/>
<path d="M60.1003 80.8073L55.567 71.9547C54.1951 69.2757 54.7461 66.2367 56.7941 65.188C58.842 64.1393 61.6299 65.4684 63.0018 68.1474L67.5351 77C68.907 79.679 68.3559 82.718 66.308 83.7667C64.2601 84.8154 61.4722 83.4863 60.1003 80.8073Z" fill="#1B262F"/>
<path d="M88.1208 87.0226L122.702 39.2204C124.678 36.4946 128.866 36.9912 130.149 40.0996C135.818 53.8588 142.581 84.788 105.393 107.035L88.1208 87.0226Z" fill="#546996"/>
<path d="M62.6704 121.969L10.0923 148.736C7.09068 150.261 3.59029 147.909 3.86659 144.557C5.09735 129.727 13.1862 99.1177 56.4274 96.282L62.6704 121.969Z" fill="#546996"/>
<path d="M60.9763 82.5174C60.0053 80.6213 60.5142 78.4327 62.1169 77.612L63.7864 76.7571C65.3891 75.9363 67.4624 76.8026 68.4334 78.6987C69.4044 80.5949 68.8955 82.7834 67.2928 83.6042L65.6233 84.4591C64.0206 85.2798 61.9473 84.4136 60.9763 82.5174Z" fill="#ED1A66"/>
<path d="M97.956 46.8071L93.415 49.1325C92.6804 49.5087 91.7716 49.2154 91.3954 48.4808C91.0192 47.7462 91.3124 46.8374 92.047 46.4612L96.588 44.1358C97.3226 43.7596 98.2314 44.0529 98.6076 44.7875C98.9838 45.5221 98.6906 46.4309 97.956 46.8071Z" fill="#1B262F"/>
<path d="M84.6776 70.9714C93.6398 66.3819 97.1844 55.3959 92.5948 46.4333C88.0051 37.4707 77.0192 33.9256 68.057 38.5151C59.0949 43.1045 55.5502 54.0906 60.1399 63.0532C64.7295 72.0157 75.7154 75.5608 84.6776 70.9714Z" fill="white"/>
<path d="M85.0196 71.6392C75.6927 76.4154 64.2371 72.7002 59.4721 63.3951C54.6957 54.0678 58.4104 42.6121 67.7151 37.8472C77.0197 33.0824 88.4975 36.7863 93.2626 46.0913C98.0276 55.3964 94.3242 66.8744 85.0196 71.6392ZM68.399 39.1829C59.8067 43.5829 56.4189 54.1408 60.8077 62.7112C65.2079 71.3039 75.7656 74.6922 84.3356 70.3036C92.9057 65.9149 96.3158 55.3457 91.927 46.7753C87.5267 38.1826 76.9691 34.7943 68.399 39.1829Z" fill="#1B262F"/>
<path d="M44.6322 91.4785C53.5944 86.8891 57.139 75.903 52.5494 66.9404C47.9597 57.9779 36.9738 54.4328 28.0116 59.0222C19.0495 63.6117 15.5048 74.5977 20.0945 83.5603C24.6841 92.5229 35.67 96.068 44.6322 91.4785Z" fill="white"/>
<path d="M44.9742 92.1463C35.6473 96.9225 24.1917 93.2072 19.4267 83.9022C14.6503 74.5749 18.365 63.1191 27.6696 58.3543C36.9965 53.5781 48.4521 57.2934 53.2172 66.5984C57.9822 75.9034 54.2788 87.3815 44.9742 92.1463ZM28.3536 59.69C19.7613 64.09 16.3734 74.6478 20.7623 83.2183C25.1625 91.8109 35.7202 95.1993 44.2902 90.8106C52.8825 86.4106 56.2704 75.8528 51.8816 67.2824C47.4813 58.6897 36.9237 55.3013 28.3536 59.69Z" fill="#1B262F"/>
<path d="M120.111 131.221L73.0093 155.341C63.8827 160.015 52.7117 155.648 49.185 146.018L34.3223 105.637L102.393 70.7787L126.471 106.441C132.224 114.931 129.238 126.547 120.111 131.221Z" fill="#E4E7FB"/>
<path d="M74.2143 98.2182C73.9917 98.3322 73.7468 98.4576 73.5242 98.5716C61.9371 104.421 51.3199 107.61 41.996 108.058C39.0111 108.209 37.2216 108.227 36.0919 108.215C34.9621 108.203 33.9464 107.262 33.8004 106.045L33.2219 101.733C33.0179 100.292 34.125 99.1068 35.48 99.2839C36.9584 99.4822 39.0399 99.5964 41.756 99.4137C51.8829 98.7236 62.466 94.3156 69.5675 90.7353C76.6244 87.1777 86.3102 81.3466 92.4439 73.6817C94.0684 71.6416 95.1923 69.8859 95.9291 68.5814C96.622 67.3555 98.2648 67.2167 99.293 68.2918L102.163 71.2618C102.931 72.0486 103.11 73.2772 102.604 74.1545C102.121 75.0205 101.194 76.3939 99.4047 78.7153C93.9708 85.8813 85.5 92.4389 74.2143 98.2182Z" fill="#B6BCDB"/>
<path d="M47.0671 116.644C46.9335 116.712 46.7549 116.748 46.6094 116.738C38.4159 116.101 34.1446 111.601 34.2922 103.714C34.2988 103.233 34.6979 102.86 35.1789 102.866C35.6599 102.873 36.0328 103.272 36.0263 103.753C35.962 107.523 36.9852 110.399 39.117 112.258C40.8993 113.818 43.4471 114.733 46.7268 114.992C47.1969 115.032 47.5813 115.453 47.5188 115.935C47.5106 116.248 47.3342 116.507 47.0671 116.644Z" fill="#1B262F"/>
<path d="M106.397 96.2649C106.107 96.4131 105.738 96.4055 105.456 96.1845C105.085 95.8972 105.001 95.35 105.277 94.9558C105.343 94.8657 109.318 89.5146 108.26 83.0038C107.546 78.5366 104.677 74.5263 99.7114 71.0842C99.3172 70.8083 99.2114 70.2725 99.4872 69.8783C99.763 69.4842 100.299 69.3784 100.693 69.6542C106.064 73.3944 109.182 77.7826 109.98 82.7412C111.124 90.0229 106.839 95.7574 106.651 95.994C106.63 96.1173 106.508 96.2079 106.397 96.2649Z" fill="#1B262F"/>
<path d="M111.469 88.6661L110.651 90.8551C110.302 91.7644 109.3 92.2215 108.413 91.8609L106.325 91.0756C105.415 90.7264 104.958 89.7241 105.319 88.837L106.137 86.6481C106.486 85.7387 107.488 85.2817 108.375 85.6423L110.463 86.4275C111.361 86.7545 111.818 87.7567 111.469 88.6661Z" fill="#425B82"/>
<path d="M108.612 102.239C112.165 100.419 113.57 96.0639 111.751 92.5109C109.932 88.9578 105.576 87.5524 102.023 89.3718C98.4705 91.1912 97.0653 95.5465 98.8848 99.0995C100.704 102.653 105.059 104.058 108.612 102.239Z" fill="#546996"/>
<path d="M107.656 100.369C110.176 99.0783 111.173 95.9889 109.882 93.4686C108.591 90.9483 105.502 89.9513 102.982 91.2419C100.462 92.5325 99.4647 95.6219 100.755 98.1422C102.046 100.663 105.135 101.659 107.656 100.369Z" fill="#B6BCDB"/>
<path d="M106.615 99.2155C108.73 98.1327 109.566 95.5406 108.483 93.426C107.4 91.3114 104.808 90.475 102.694 91.5578C100.579 92.6406 99.7431 95.2327 100.826 97.3473C101.909 99.4619 104.501 100.298 106.615 99.2155Z" fill="#DDE1FE"/>
<path d="M101.336 144.488L95.4817 147.486C94.5468 147.965 93.4024 147.595 92.9236 146.66L65.006 92.1436C64.5272 91.2087 64.8965 90.0642 65.8314 89.5855L71.6857 86.5875C72.6207 86.1087 73.7651 86.478 74.2439 87.413L102.161 141.93C102.64 142.865 102.271 144.009 101.336 144.488Z" fill="#C5CAF2"/>
<path d="M73.3998 85.7098L64.1396 90.4518L69.3379 100.603L78.598 95.8607L73.3998 85.7098Z" fill="#546996"/>
<path d="M72.7078 95.0561C72.4629 95.1815 72.2181 95.3069 71.9732 95.4323C59.5625 101.703 48.3003 105.279 38.4769 106.123C35.3475 106.377 33.4474 106.507 32.2731 106.518C31.0765 106.541 30.0613 105.656 29.949 104.449L29.5166 100.202C29.3685 98.761 30.5537 97.564 31.9864 97.6733C33.5424 97.8037 35.7238 97.8387 38.5621 97.5653C49.2221 96.4898 60.5285 91.6834 68.1419 87.8408C75.6885 84.0325 86.0866 77.8366 92.8452 70.0203C94.6484 67.9449 95.895 66.1545 96.71 64.838C97.481 63.6002 99.2015 63.3936 100.263 64.4236L103.176 67.259C103.955 68.0121 104.089 69.2076 103.517 70.1191C102.977 70.9856 101.928 72.3938 99.9711 74.7727C93.9455 82.045 84.7949 88.8664 72.7078 95.0561Z" fill="#00B2FF"/>
<path d="M159.277 122.742L155.992 136.407C155.197 139.714 151.879 141.746 148.572 140.951C145.265 140.156 143.233 136.838 144.028 133.531L147.313 119.866C148.108 116.559 151.426 114.527 154.733 115.322C158.015 116.111 160.072 119.435 159.277 122.742Z" fill="#FFAD00"/>
<path d="M153.043 119.674L149.098 136.088C148.858 137.085 147.863 137.694 146.866 137.455C145.869 137.215 145.259 136.22 145.499 135.223L149.444 118.809C149.684 117.812 150.679 117.203 151.676 117.442C152.673 117.682 153.277 118.702 153.043 119.674Z" fill="#FFCE00"/>
<path d="M81.2658 180.707L67.5318 183.809C64.2142 184.558 60.9247 182.481 60.1753 179.163C59.4259 175.845 61.5032 172.556 64.8208 171.806L78.5304 168.71C81.848 167.96 85.1375 170.038 85.8869 173.356C86.6308 176.649 84.559 179.963 81.2658 180.707Z" fill="#FFAD00"/>
<path d="M81.0168 173.815L64.5506 177.534C63.5504 177.76 62.5636 177.137 62.3377 176.137C62.1118 175.136 62.7349 174.15 63.7351 173.924L80.2013 170.204C81.2014 169.979 82.1883 170.602 82.4142 171.602C82.6401 172.602 82.0169 173.589 81.0168 173.815Z" fill="#FFCE00"/>
<path d="M56.066 73.1478L53.2731 67.6939C52.2015 65.6014 53.0377 63.0096 55.1302 61.9381C57.2226 60.8666 59.8144 61.7029 60.8859 63.7954L63.6788 69.2494C64.7504 71.3419 63.9141 73.9337 61.8217 75.0052C59.7293 76.0767 57.1489 75.2626 56.066 73.1478Z" fill="#FFAD00"/>
<path d="M58.5084 68.9747L56.6959 65.4352C56.2741 64.6116 56.5999 63.6018 57.4235 63.18C58.2472 62.7582 59.2569 63.0841 59.6787 63.9077L61.4913 67.4472C61.913 68.2709 61.5872 69.2806 60.7636 69.7024C59.94 70.1242 58.9302 69.7983 58.5084 68.9747Z" fill="#FFD400"/>
<path d="M71.6192 121.464L69.8535 123.941C69.4561 124.482 68.7079 124.612 68.1672 124.215C67.6265 123.817 67.4963 123.069 67.8937 122.528L68.953 121.031L57.9271 113.162C54.9537 111.031 50.8108 111.72 48.6808 114.693L48.096 115.527C45.966 118.5 46.6547 122.643 49.628 124.773L60.6653 132.665L61.7578 131.122C62.1552 130.581 62.9033 130.451 63.444 130.848C63.9848 131.246 64.115 131.994 63.7176 132.535L61.9188 135.057C61.5213 135.598 60.7732 135.728 60.2325 135.331L48.2267 126.755C44.161 123.864 43.2227 118.191 46.1254 114.147L46.7101 113.314C49.6014 109.248 55.2742 108.31 59.3176 111.213L71.3234 119.789C71.8864 120.175 72.0166 120.923 71.6192 121.464Z" fill="#1B262F"/>
<path d="M65.7311 131.363L65.0247 132.343C64.473 133.131 63.3785 133.298 62.5903 132.747L61.6668 132.096C60.8786 131.544 60.7114 130.45 61.2631 129.661L61.9695 128.681C62.5211 127.893 63.6156 127.726 64.4039 128.278L65.3273 128.929C66.0933 129.492 66.2827 130.575 65.7311 131.363Z" fill="#425B82"/>
<path d="M70.1455 125.169L69.053 126.712C68.5894 127.342 67.7294 127.474 67.0877 127.044L65.6236 125.995C64.9927 125.531 64.8614 124.671 65.2914 124.03L66.3839 122.487C66.8475 121.856 67.7075 121.725 68.3492 122.155L69.8133 123.203C70.4442 123.667 70.6092 124.538 70.1455 125.169Z" fill="#425B82"/>
<path d="M68.0267 123.5L66.7687 125.268C66.5591 125.572 66.1459 125.643 65.8305 125.412C65.5265 125.202 65.4554 124.789 65.6872 124.473L66.9453 122.705C67.1548 122.401 67.568 122.33 67.8834 122.562C68.1874 122.772 68.2363 123.196 68.0267 123.5Z" fill="#5676A5"/>
<path d="M63.8326 129.357L62.5746 131.125C62.365 131.429 61.9518 131.5 61.6364 131.268C61.3324 131.059 61.2613 130.646 61.4931 130.33L62.7512 128.562C62.9608 128.258 63.3739 128.187 63.6893 128.419C63.9711 128.64 64.0536 129.075 63.8326 129.357Z" fill="#5676A5"/>
<path d="M61.4512 89.9745L71.2971 92.6314L74.6078 83.3495L61.4512 89.9745Z" fill="#546996"/>
<path fill-rule="evenodd" clip-rule="evenodd" d="M82.8138 44.3933C83.8968 46.508 86.4771 47.3221 88.5696 46.2506C88.6475 46.2107 88.7225 46.1653 88.7976 46.1198C88.8727 46.0743 88.9477 46.0289 89.0256 45.989L91.6207 51.0566C89.1669 50.1457 85.9969 50.1917 82.9005 51.4027C79.95 52.5568 77.6681 54.5334 76.4347 56.7366L74.1659 52.306C72.1368 48.3436 73.7006 43.4965 77.6629 41.4675C79.2879 40.6354 81.0529 40.4059 82.7223 40.703C82.2075 41.8377 82.1982 43.1912 82.8138 44.3933Z" fill="#1B262F"/>
<path fill-rule="evenodd" clip-rule="evenodd" d="M42.5902 64.9912C43.6731 67.1059 46.2535 67.92 48.3459 66.8485C48.4238 66.8086 48.4989 66.7632 48.574 66.7177C48.649 66.6722 48.7241 66.6268 48.802 66.5869L51.9433 72.7212C49.7322 72.1629 47.069 72.3273 44.46 73.3477C40.9636 74.7153 38.4389 77.2783 37.563 79.9743L33.9423 72.9039C31.9131 68.9415 33.477 64.0944 37.4393 62.0654C39.0642 61.2333 40.8292 61.0038 42.4987 61.3009C41.9839 62.4356 41.9746 63.7891 42.5902 64.9912Z" fill="#1B262F"/>
<path d="M124.75 44.9925C126.385 45.9361 128.474 45.3827 129.417 43.7485C130.361 42.1142 129.8 40.0204 128.166 39.0769C126.539 38.1378 124.445 38.6988 123.502 40.3331C122.558 41.9673 123.124 44.0534 124.75 44.9925ZM127.417 40.3736C128.338 40.9051 128.652 42.0791 128.121 42.9999C127.594 43.9129 126.42 44.2274 125.499 43.6958C124.586 43.1687 124.271 41.9947 124.798 41.0817C125.33 40.161 126.504 39.8464 127.417 40.3736Z" fill="#FFAD00"/>
<path d="M124.568 42.2915C124.513 41.8863 124.579 41.4621 124.798 41.0818C125.33 40.161 126.504 39.8465 127.417 40.3736C128.337 40.9052 128.652 42.0792 128.12 42.9999C127.901 43.3802 127.566 43.6493 127.188 43.8041L128.648 44.647C128.945 44.3981 129.212 44.1041 129.417 43.7485C130.361 42.1143 129.8 40.0205 128.165 39.0769C126.539 38.1378 124.445 38.6989 123.501 40.3332C123.296 40.6887 123.175 41.0669 123.108 41.4488L124.568 42.2915Z" fill="#E29A01"/>
<path d="M137.225 11.8987C138.983 8.85427 142.869 7.81296 145.906 9.56631C148.95 11.324 149.991 15.2102 148.234 18.2546C146.48 21.2915 142.594 22.3328 139.55 20.5752C136.513 18.8218 135.472 14.9356 137.225 11.8987Z" fill="#FFBA28"/>
<path d="M137.287 18.2966C137.269 16.6615 137.826 14.9898 139.224 13.6469C140.659 12.2686 142.719 11.6357 144.68 11.9765C145.103 12.0501 145.5 12.1582 145.87 12.2961C147.029 12.7278 147.994 11.3107 147.098 10.4585C146.455 9.84728 145.662 9.35507 144.731 9.03712C142.344 8.22285 139.609 8.96538 137.958 10.8715C136.028 13.1012 135.965 16.058 137.287 18.2966Z" fill="#FFAD00"/>
<path d="M139.589 9.57853C138.643 10.118 137.811 10.8845 137.227 11.8958C135.472 14.9351 136.514 18.8215 139.553 20.5763C142.592 22.3311 146.479 21.2897 148.233 18.2504C148.817 17.2391 149.065 16.1351 149.059 15.0459L139.589 9.57853Z" fill="#E29A01"/>
<path d="M143.604 11.8966L139.568 9.56641C138.97 9.9086 138.419 10.3393 137.958 10.8715C136.028 13.1011 135.964 16.058 137.286 18.2966C137.268 16.6615 137.825 14.9898 139.224 13.6468C140.398 12.5194 141.991 11.9015 143.604 11.8966Z" fill="#E29A01"/>
<path d="M127.461 7.39253C137.402 13.0028 146.971 19.2223 156.104 26.024C153.45 30.0196 150.796 34.0152 148.138 38.0182C143.801 44.3773 134.504 46.1951 127.107 42.6089C127.01 42.5531 126.916 42.509 126.823 42.4648C119.437 38.8755 116.385 29.9281 120.246 21.9348C122.654 17.0927 125.06 12.2389 127.461 7.39253Z" fill="#E29A01"/>
<path d="M124.42 13.526C123.029 16.3288 121.638 19.1316 120.246 21.9344C116.386 29.9311 119.438 38.8733 126.82 42.4628C126.916 42.5105 127.011 42.5585 127.107 42.6063C134.503 46.1895 143.802 44.3801 148.14 38.0167C149.868 35.4157 151.596 32.8147 153.324 30.2137L124.42 13.526Z" fill="#FFBA28"/>
<path d="M120.246 21.9344C118.236 26.0985 118.105 30.5152 119.482 34.3006C120.235 36.3715 123.093 36.5884 124.195 34.6799C128.055 27.9946 136.603 25.704 143.289 29.5638L147.027 31.7221C149.178 32.9641 151.924 32.32 153.299 30.2509L153.324 30.2138L124.42 13.526C123.028 16.3288 121.637 19.1316 120.246 21.9344Z" fill="#FFAD00"/>
<path d="M125.866 16.9263C126.308 17.1815 126.481 17.7398 126.251 18.2024L123.075 24.599C122.836 25.081 122.251 25.2775 121.77 25.0384C121.268 24.7962 121.092 24.2144 121.331 23.7331L124.506 17.3366C124.746 16.8546 125.33 16.658 125.812 16.8971C125.83 16.9065 125.849 16.9163 125.866 16.9263ZM125.293 7.00425C125.749 6.21525 126.477 5.69293 127.287 5.47586C128.093 5.26621 128.992 5.35872 129.774 5.80994L157.329 21.7192C158.9 22.6259 159.442 24.6262 158.535 26.1968C158.08 26.9858 157.352 27.5081 156.541 27.7252C155.731 27.9423 154.832 27.8497 154.05 27.3985L126.495 11.4893C124.924 10.5825 124.386 8.57481 125.293 7.00425Z" fill="#FFBA28"/>
<path d="M126.658 11.5837L130.307 13.6908L130.687 13.0324C131.472 11.6737 133.209 11.2081 134.568 11.9926L155.796 24.2487C157.442 25.199 159.006 22.7169 157.375 21.7416C157.36 21.7328 157.345 21.7242 157.331 21.7157L129.777 5.8073C128.111 4.84549 125.952 5.51066 125.14 7.30979C124.434 8.87418 125.171 10.7256 126.658 11.5837Z" fill="#FFAD00"/>
<path opacity="0.42" d="M145.834 19.4917L154.712 24.6172C155.104 24.8434 155.238 25.3441 155.012 25.7359C154.786 26.1277 154.285 26.2616 153.893 26.0354L145.015 20.9099C144.624 20.6837 144.489 20.183 144.715 19.7912C144.942 19.3994 145.442 19.2655 145.834 19.4917Z" fill="white"/>
<path opacity="0.42" d="M134.149 37.6136C135.176 35.8346 139.076 33.9277 140.855 34.9548C142.634 35.9819 143.252 38.2639 142.22 40.0504C141.193 41.8293 138.908 42.4353 137.129 41.4082C135.35 40.3812 133.122 39.3926 134.149 37.6136Z" fill="white"/>
</svg>
