<svg width="230" height="230" viewBox="0 0 230 230" fill="none" xmlns="http://www.w3.org/2000/svg">
<mask id="mask0_16_19725" style="mask-type:alpha" maskUnits="userSpaceOnUse" x="0" y="0" width="230" height="230">
<rect width="230" height="230" rx="8" fill="#D9D9D9"/>
</mask>
<g mask="url(#mask0_16_19725)">
<path d="M130.333 25.0999H83.8885C72.8429 25.0999 63.8885 34.0542 63.8885 45.0999V184.287H130.333V25.0999Z" fill="#46261F"/>
<path d="M84.0376 195.25C102.223 195.25 116.964 179.896 116.964 160.955C116.964 142.015 102.223 126.66 84.0376 126.66C65.8526 126.66 51.1107 142.015 51.1107 160.955C51.1107 179.896 65.8526 195.25 84.0376 195.25Z" fill="#46261F"/>
<path d="M117.555 184.287H184V85.475C184 53.6087 157.934 27.7529 125.809 27.7529H117.555V184.287Z" fill="#46261F"/>
<path d="M163.85 195.25C182.035 195.25 196.777 179.896 196.777 160.955C196.777 142.015 182.035 126.66 163.85 126.66C145.665 126.66 130.923 142.015 130.923 160.955C130.923 179.896 145.665 195.25 163.85 195.25Z" fill="#46261F"/>
<path d="M162.146 287.758H100.661C87.9804 287.758 47.0307 277.048 47.0307 263.84C47.0307 233.369 75.7921 173.775 100.661 173.775H162.146C190.885 173.775 210.665 209.491 210.665 263.84C210.665 277.048 174.826 287.758 162.146 287.758Z" fill="#FAFBFF"/>
<path d="M122.952 287.757L127.055 287.757L127.055 173.718L122.952 173.718L122.952 287.757Z" fill="#257FD0"/>
<path d="M128.207 214.395C114.194 214.395 102.845 202.575 102.845 187.981V173.719H153.621V187.981C153.568 202.575 142.219 214.395 128.207 214.395Z" fill="#257FD0"/>
<path d="M128.206 211.066C115.526 211.066 105.243 200.356 105.243 187.148V133.098C105.243 119.89 115.526 109.18 128.206 109.18C140.887 109.18 151.17 119.89 151.17 133.098V187.148C151.17 200.356 140.887 211.066 128.206 211.066Z" fill="#F68F7E"/>
<path d="M128.206 211.066C115.526 211.066 105.243 200.356 105.243 187.148V171.888H136.571C144.67 171.888 151.223 178.713 151.223 187.148C151.17 200.356 140.887 211.066 128.206 211.066Z" fill="#FEB19C"/>
<path d="M75.3888 115.305C80.3287 115.305 84.3333 111.148 84.3333 106.02C84.3333 100.891 80.3287 96.7336 75.3888 96.7336C70.449 96.7336 66.4444 100.891 66.4444 106.02C66.4444 111.148 70.449 115.305 75.3888 115.305Z" fill="#F68F7E"/>
<path d="M113.182 166.949C90.591 166.949 72.316 147.859 72.316 124.385V76.7165C72.316 53.1873 90.6443 34.1531 113.182 34.1531C135.772 34.1531 154.047 53.2428 154.047 76.7165V124.385C154.047 147.859 135.719 166.949 113.182 166.949Z" fill="#FFC0AB"/>
<path d="M154.047 76.6609V124.33C154.047 147.859 135.719 166.893 113.182 166.893C90.591 166.893 72.316 147.859 72.316 124.33V76.6609C72.316 75.662 72.3693 74.6631 72.4226 73.7197C73.8612 51.5778 91.6033 34.0974 113.235 34.0974C124.53 34.0974 134.76 38.8698 142.166 46.5834C144.883 49.4691 147.281 52.6877 149.145 56.2948C152.236 62.3436 154.047 69.2802 154.047 76.6609Z" fill="#FFC0AB"/>
<path d="M75.3888 59.59C80.9832 70.0228 93.8367 79.0259 106.144 79.0259H154.149C152.711 56.884 134.969 39.4036 113.337 39.4036C102.042 39.4036 89.1836 41.264 81.7777 48.9775C79.0605 51.8077 75.3888 59.59 75.3888 59.59Z" fill="#F68F7E"/>
<path d="M157.167 123.265C164.929 123.265 171.222 116.732 171.222 108.673C171.222 100.614 164.929 94.0806 157.167 94.0806C149.404 94.0806 143.111 100.614 143.111 108.673C143.111 116.732 149.404 123.265 157.167 123.265Z" fill="#FFC2AD"/>
<path d="M157.167 117.959C162.107 117.959 166.111 113.801 166.111 108.673C166.111 103.544 162.107 99.387 157.167 99.387C152.227 99.387 148.222 103.544 148.222 108.673C148.222 113.801 152.227 117.959 157.167 117.959Z" fill="#F68F7E"/>
<path d="M149.5 117.959C154.44 117.959 158.444 113.801 158.444 108.673C158.444 103.544 154.44 99.387 149.5 99.387C144.56 99.387 140.556 103.544 140.556 108.673C140.556 113.801 144.56 117.959 149.5 117.959Z" fill="#FFC0AB"/>
<path d="M120.268 112.454C115.579 112.454 111.797 108.514 111.797 103.631V96.9159C111.797 92.0324 115.579 88.0924 120.268 88.0924C124.957 88.0924 128.739 92.0324 128.739 96.9159V103.631C128.686 108.514 124.903 112.454 120.268 112.454Z" fill="white"/>
<path d="M120.268 107.848C117.337 107.848 114.993 105.407 114.993 102.354V98.1924C114.993 95.1403 117.337 92.6985 120.268 92.6985C123.198 92.6985 125.543 95.1403 125.543 98.1924V102.354C125.489 105.407 123.145 107.848 120.268 107.848Z" fill="#46261F"/>
<path d="M122.719 98.3586C121.067 98.3586 119.735 96.9713 119.735 95.251C119.735 93.5307 121.067 92.1434 122.719 92.1434C124.37 92.1434 125.702 93.5307 125.702 95.251C125.702 96.9713 124.37 98.3586 122.719 98.3586Z" fill="white"/>
<path d="M111.423 83.2646C111.423 81.3778 112.915 79.824 114.727 79.824H125.809C127.62 79.824 129.112 81.3778 129.112 83.2646C129.112 85.1513 127.62 86.7052 125.809 86.7052H114.727C112.862 86.7052 111.423 85.2068 111.423 83.2646Z" fill="#5F362E"/>
<path d="M87.0213 112.454C82.3327 112.454 78.5499 108.514 78.5499 103.631V96.9159C78.5499 92.0324 82.3327 88.0924 87.0213 88.0924C91.71 88.0924 95.4928 92.0324 95.4928 96.9159V103.631C95.4395 108.514 91.6567 112.454 87.0213 112.454Z" fill="white"/>
<path d="M87.0213 107.848C84.0909 107.848 81.7466 105.407 81.7466 102.354V98.1924C81.7466 95.1403 84.0909 92.6985 87.0213 92.6985C89.9517 92.6985 92.296 95.1403 92.296 98.1924V102.354C92.296 105.407 89.8984 107.848 87.0213 107.848Z" fill="#46261F"/>
<path d="M89.5253 98.3586C87.8737 98.3586 86.5417 96.9713 86.5417 95.251C86.5417 93.5307 87.8737 92.1434 89.5253 92.1434C91.177 92.1434 92.509 93.5307 92.509 95.251C92.509 96.9713 91.177 98.3586 89.5253 98.3586Z" fill="white"/>
<path d="M78.1768 83.2646C78.1768 81.3778 79.6687 79.824 81.4802 79.824H92.5624C94.3739 79.824 95.8657 81.3778 95.8657 83.2646C95.8657 85.1513 94.3739 86.7052 92.5624 86.7052H81.4802C79.6687 86.7052 78.1768 85.2068 78.1768 83.2646Z" fill="#5F362E"/>
<path d="M98.796 122.665C99.8848 122.665 100.767 121.746 100.767 120.612C100.767 119.478 99.8848 118.558 98.796 118.558C97.7073 118.558 96.8247 119.478 96.8247 120.612C96.8247 121.746 97.7073 122.665 98.796 122.665Z" fill="#F4897A"/>
<path d="M106.095 122.665C107.184 122.665 108.067 121.746 108.067 120.612C108.067 119.478 107.184 118.558 106.095 118.558C105.007 118.558 104.124 119.478 104.124 120.612C104.124 121.746 105.007 122.665 106.095 122.665Z" fill="#F4897A"/>
<path d="M106.984 76.6848H161.862V57.706C161.809 35.2867 144.387 17.1403 122.862 17.1403H88.8691C80.7173 17.1403 74.1106 24.0215 74.1106 32.512V42.5008C74.1106 61.3686 88.8158 76.6848 106.984 76.6848Z" fill="#5F362E"/>
<path d="M119.842 119.779C126.256 119.779 131.457 116.848 131.457 113.231C131.457 109.615 126.256 106.683 119.842 106.683C113.427 106.683 108.227 109.615 108.227 113.231C108.227 116.848 113.427 119.779 119.842 119.779Z" fill="#FFC2AD"/>
<path d="M87.2343 119.779C93.6491 119.779 98.8493 116.848 98.8493 113.231C98.8493 109.615 93.6491 106.683 87.2343 106.683C80.8196 106.683 75.6194 109.615 75.6194 113.231C75.6194 116.848 80.8196 119.779 87.2343 119.779Z" fill="#FFC2AD"/>
<path d="M90.5378 136.094C90.5378 136.094 101.94 146.638 117.71 134.984" stroke="#F68F7E" stroke-width="3" stroke-miterlimit="10" stroke-linecap="round" stroke-linejoin="round"/>
<path opacity="0.4" d="M105.918 42.7783H117C120.357 42.7783 123.021 39.9482 123.021 36.5076C123.021 33.0115 120.304 30.2368 117 30.2368H105.918C102.562 30.2368 99.8976 33.067 99.8976 36.5076C99.8444 40.0037 102.562 42.7783 105.918 42.7783Z" fill="#885146"/>
<path opacity="0.4" d="M102.881 62.2565H147.849C151.153 62.2565 153.87 59.4818 153.87 55.9857C153.87 52.4896 151.153 49.715 147.849 49.715H102.881C99.5246 49.715 96.8606 52.5451 96.8606 55.9857C96.8073 59.4818 99.5246 62.2565 102.881 62.2565Z" fill="#885146"/>
<path d="M174.4 222.331H148.346V226.993H174.4V222.331Z" fill="#257FD0"/>
<path d="M99.1691 222.331H80.7876V226.993H99.1691V222.331Z" fill="#257FD0"/>
</g>
<circle cx="122.667" cy="97.1112" r="16.3889" fill="#F0E8E8" fill-opacity="0.5" stroke="#1C326C" stroke-width="3"/>
<circle cx="81.7778" cy="97.1112" r="16.3889" fill="#F0E8E8" fill-opacity="0.5" stroke="#1C326C" stroke-width="3"/>
<path d="M98.3889 95.8334H106.056" stroke="#1C326C" stroke-width="3"/>
<path d="M138 90.7221L153.333 89.4443" stroke="#1C326C" stroke-width="3" stroke-linecap="round"/>
</svg>
