<svg width="90" height="90" viewBox="0 0 90 90" fill="none" xmlns="http://www.w3.org/2000/svg">
<mask id="mask0_16_18903" style="mask-type:alpha" maskUnits="userSpaceOnUse" x="0" y="0" width="90" height="90">
<rect width="90" height="90" rx="8" fill="#D9D9D9"/>
</mask>
<g mask="url(#mask0_16_18903)">
<path d="M20.6654 135.331H42.6407C42.6407 135.331 43.6284 130.794 44.9452 123.313C45.974 117.673 47.1675 110.356 48.3197 102.099C50.3362 87.5883 49.3074 74.2221 48.6901 68.5813C48.4843 66.7828 48.3197 65.7609 48.3197 65.7609L44.9452 64.6164L29.0605 59.1391C29.0605 59.1391 28.4843 59.0982 27.579 59.1391C27.0852 59.1391 26.509 59.1799 25.8094 59.2208C25.9741 59.9974 26.1387 60.8967 26.3033 61.9186C27.3321 67.7638 28.5666 77.86 28.1551 90.3678C27.7024 104.061 23.3815 124.049 20.6654 135.331Z" fill="url(#paint0_linear_16_18903)"/>
<path d="M43.1758 82.1521C43.1758 82.1521 40.9536 106.718 35.8095 116.12C30.6655 125.521 43.1758 82.1521 43.1758 82.1521Z" fill="#475A7F"/>
<path d="M22.3528 128.137C24.8631 116.732 27.7849 101.486 28.1552 90.3679C28.6491 75.6527 26.7972 64.2485 25.8096 59.2208C26.468 59.18 27.0853 59.1391 27.5791 59.1391C28.5256 59.0982 29.0606 59.1391 29.0606 59.1391L44.9453 64.6164L48.3198 65.7609C48.3198 65.7609 50.9947 82.9285 48.3198 102.14C47.1676 110.397 45.9741 117.714 44.9453 123.354C43.6285 130.835 42.6408 135.372 42.6408 135.372H20.6655C21.2005 133.205 21.7355 130.753 22.3528 128.137ZM33.0112 125.153C36.8384 125.316 40.254 122.864 41.2828 119.185C42.8054 113.708 44.2046 107.863 44.9453 102.549C46.468 91.635 46.0153 78.7184 45.4803 71.1156C44.2046 71.8922 42.5997 72.5462 40.6655 73.0367C36.468 74.0995 32.3116 70.3389 29.1429 66.1288C30.2128 71.3608 31.2828 78.1053 31.5297 84.7271C32.0235 98.6247 26.8384 124.376 26.8384 124.376C26.8384 124.376 29.3898 124.989 33.0112 125.153Z" fill="#475A7F"/>
<path d="M20.6655 135.331H42.6408C42.6408 135.331 43.6285 130.794 44.9453 123.314C45.9741 117.673 47.1676 110.356 48.3198 102.099C50.9947 82.888 48.3198 65.7203 48.3198 65.7203L46.8383 65.2298C47.2087 70.0122 48.7314 92.0849 46.756 103.734C44.5338 116.855 42.5997 127.606 36.3445 130.181C32.9289 131.571 27.003 129.895 22.3528 128.096C21.7355 130.753 21.2005 133.206 20.6655 135.331Z" fill="url(#paint1_linear_16_18903)"/>
<path d="M29.0606 59.1391L32.147 63.6763L35.0688 68.0091C36.9618 70.8295 40.8712 71.4426 43.5461 69.3988L48.3198 65.7609L46.756 64.3303L49.5132 58.199L35.9741 49.4516L29.0606 59.1391Z" fill="url(#paint2_linear_16_18903)"/>
<path d="M29.0606 59.1393L30.5009 61.224L32.147 63.6765C33.6285 61.0605 36.3034 57.7496 38.896 60.9787C42.8054 65.8429 46.7972 64.2896 46.7972 64.2896L47.7025 62.2459L49.5544 58.1583L36.0153 49.411L29.0606 59.1393Z" fill="#EFAB97"/>
<path d="M29.0606 59.1391L30.5009 61.2237C31.8178 59.2209 33.505 57.218 35.11 56.9727C38.361 56.5231 39.5544 60.5289 43.1758 61.796C44.9865 62.4091 46.5503 62.4091 47.7025 62.2865L49.5544 58.199L36.0153 49.4516L29.0606 59.1391Z" fill="url(#paint3_linear_16_18903)"/>
<path d="M30.3774 46.9993C39.2663 55.5831 56.3445 38.6198 56.3445 38.6198C56.3445 38.6198 68.8136 37.1074 73.7931 28.8506C74.1223 28.3192 74.4103 27.747 74.6573 27.1339C74.6984 27.093 74.6984 27.0521 74.6984 27.0112C78.8136 17.1194 69.9247 11.5603 65.398 12.1735C60.8712 12.8275 56.0976 6.57353 48.896 7.02316C45.8507 7.18666 42.3116 8.2903 39.0194 10.6202C36.9618 12.0917 34.9865 14.0537 33.3404 16.6289C31.4062 19.6537 29.8836 23.4959 29.0606 28.2784C26.468 43.811 30.3774 46.9993 30.3774 46.9993Z" fill="url(#paint4_linear_16_18903)"/>
<path d="M30.3775 46.9995C34.8219 51.2915 41.2828 49.2068 46.6326 46.0594C52.0235 42.8711 56.3445 38.6201 56.3445 38.6201C56.3445 38.6201 70.5009 36.9033 74.6984 27.0932C74.7396 23.0466 72.1058 21.1663 68.7725 22.8422C64.2457 25.1312 58.361 25.7035 57.6614 22.8422C56.9618 19.9809 52.97 17.1196 46.2622 18.3868C39.5955 19.6948 36.0976 26.3575 34.6161 21.6159C33.7108 18.7138 36.6326 13.9314 39.0606 10.5796C34.9865 13.4817 31.2828 18.3868 29.5544 25.9896C29.3898 26.7254 29.2252 27.4611 29.1017 28.2786C26.468 43.8113 30.3775 46.9995 30.3775 46.9995Z" fill="#42283B"/>
<path d="M33.3404 16.6698C33.3404 16.6698 40.4597 8.57642 48.114 8.57642C55.7684 8.53555 57.6614 14.8712 63.9576 14.0946C70.2539 13.318 75.5626 18.5091 73.8753 24.7631C73.505 26.1528 73.505 27.5426 73.7519 28.8506C74.0811 28.3192 74.3692 27.747 74.6161 27.1338C74.6572 27.093 74.6572 27.0521 74.6572 27.0112C78.7725 17.1194 69.8836 11.5603 65.3568 12.1735C60.8301 12.8275 56.0564 6.57353 48.8548 7.02316C45.8095 7.18666 42.2704 8.2903 38.9782 10.6202C36.9618 12.0917 34.9865 14.0946 33.3404 16.6698Z" fill="#84627D"/>
<path d="M30.3774 46.9991C34.8219 51.291 41.2828 49.2064 46.6326 46.059C48.3198 37.843 50.254 27.6242 49.8013 25.4986C49.0606 21.8607 42.1058 22.9235 38.8548 28.1555C35.6038 33.3876 32.3528 37.3116 30.2128 32.2431C29.5132 30.6081 29.3898 28.3599 29.5133 26.03C29.3486 26.7658 29.184 27.5015 29.0606 28.319C26.468 43.8108 30.3774 46.9991 30.3774 46.9991Z" fill="url(#paint5_linear_16_18903)"/>
<path d="M29.0606 47.2444C29.2663 53.4575 38.361 54.5611 38.361 54.5611C38.361 54.5611 46.3445 60.7333 53.5873 61.7143C56.4268 62.0822 59.184 61.6735 61.2828 59.7523C69.184 52.5582 68.9782 36.9438 68.6079 31.303C68.5255 29.995 68.4432 29.2184 68.4432 29.2184C68.4432 29.2184 68.1552 29.2184 67.6613 29.2184C65.1099 29.2184 57.0852 28.8914 54.3692 26.1936C51.1182 22.9645 40.2951 25.5396 39.8836 30.6899C39.6367 33.5103 38.8136 37.7205 37.9494 40.4183C37.2087 42.7073 36.468 43.9335 35.9741 42.5029C34.9042 39.2737 28.8548 40.9905 29.0606 47.2444Z" fill="url(#paint6_linear_16_18903)"/>
<path d="M53.6285 61.7017C56.468 62.0351 59.2252 61.6647 61.324 59.9237C69.2252 53.404 69.0194 39.2535 68.6491 34.1415C68.5667 32.9561 68.4844 32.2523 68.4844 32.2523C68.4844 32.2523 68.1964 32.2523 67.7025 32.2523C67.9495 35.0306 68.361 43.6246 65.6038 50.6258C62.3939 58.6642 58.5256 60.8868 53.6285 61.7017Z" fill="#FFEEE8"/>
<path d="M37.9495 40.4183C43.8342 42.7891 42.0235 33.7556 45.933 29.5863C49.8425 25.417 51.2828 30.1586 60.3363 31.5483C64.4927 32.1615 67.0441 31.8345 68.6079 31.2622C68.5667 30.9352 68.5667 30.6082 68.5256 30.363C68.4433 29.5863 68.4021 29.1776 68.4021 29.1776C68.4021 29.1776 57.5791 29.382 54.3281 26.1528C51.077 22.9236 40.254 25.4988 39.8425 30.6491C39.6367 33.2242 38.9371 36.9439 38.1552 39.6417C38.1141 39.9278 38.0318 40.2139 37.9495 40.4183Z" fill="#EFAB97"/>
<path d="M38.1964 39.6826C38.7725 40.0504 39.5544 39.8052 40.2952 36.9848C41.612 31.9571 43.3404 27.2564 47.4145 26.6024C51.5297 25.9484 56.3857 30.6491 60.7478 30.6082C62.9289 30.6082 66.0153 30.5265 68.5256 30.363C68.4433 29.5863 68.4021 29.1776 68.4021 29.1776C68.4021 29.1776 57.5791 29.382 54.3281 26.1528C51.0771 22.9236 40.254 25.4988 39.8425 30.6491C39.6779 33.2242 38.9783 36.9848 38.1964 39.6826Z" fill="url(#paint7_linear_16_18903)"/>
<path d="M34.4103 50.4329C34.863 50.6781 35.3157 50.8825 35.8506 51.1278C35.8506 51.1278 36.6325 45.0373 34.5749 43.5658C33.793 42.9936 32.5996 43.4841 31.8589 44.5059C30.8301 45.8957 30.7478 48.4709 34.4103 50.4329Z" fill="#EFAB97"/>
<path d="M34.0399 45.0782C34.9041 46.2227 33.1757 46.0183 33.0934 47.2037C33.0111 48.3891 34.6161 47.9395 34.7395 48.9614C34.8218 49.4927 34.6984 50.0241 34.3692 50.4329C34.8218 50.6781 35.2745 50.8825 35.8095 51.1278C35.8095 51.1278 36.5914 45.0373 34.5338 43.5658C33.7519 42.9936 32.5585 43.4841 31.8177 44.5059C32.6408 44.3833 33.5873 44.4651 34.0399 45.0782Z" fill="url(#paint8_linear_16_18903)"/>
<path d="M56.8794 49.1973H58.2374C59.1016 49.1973 59.8012 48.8639 60.295 48.3453C60.5419 48.086 60.7065 47.7897 60.7888 47.4933C60.9535 46.9377 60.9535 46.3079 60.5831 45.7152L57.6201 40.6033L57.0028 47.4563L56.8794 49.1973Z" fill="#EFAB97"/>
<path d="M56.8795 49.1974H58.2375C59.1017 49.1974 59.8013 48.864 60.2951 48.3454C60.542 48.0861 60.7066 47.7898 60.7889 47.4934C60.2951 47.1601 59.4721 46.8267 58.5667 47.1971C58.0729 47.3823 57.4968 47.4564 57.0441 47.4564L56.8795 49.1974Z" fill="url(#paint9_linear_16_18903)"/>
<path d="M57.6203 40.5663C57.7849 40.8627 59.719 45.0115 60.254 48.3084C60.9124 47.6045 61.1182 46.5673 60.5832 45.6783L57.6203 40.5663Z" fill="#FFEEE8"/>
<path d="M45.933 49.4518C45.933 49.4518 47.3321 58.4444 52.1058 57.0546C53.2992 56.6868 54.7395 55.6649 56.3856 53.7028L50.7066 51.4138L45.933 49.4518Z" fill="#C14462"/>
<path d="M45.9329 49.4518C45.9329 49.4518 47.3321 58.4444 52.1057 57.0546C52.0646 55.5014 51.7765 53.335 50.7066 51.373L45.9329 49.4518Z" fill="#EF6A6A"/>
<path d="M56.3856 53.662C56.3856 53.662 55.6449 54.5204 51.9823 53.2942C48.8136 52.2314 45.933 49.411 45.933 49.411L56.3856 53.662Z" fill="url(#paint10_linear_16_18903)"/>
<path d="M50.6243 43.5247C49.8743 43.5247 49.2663 42.4633 49.2663 41.1539C49.2663 39.8446 49.8743 38.7831 50.6243 38.7831C51.3744 38.7831 51.9824 39.8446 51.9824 41.1539C51.9824 42.4633 51.3744 43.5247 50.6243 43.5247Z" fill="#2B1A27"/>
<path d="M62.7232 43.8257C61.9731 43.8257 61.3651 42.8638 61.3651 41.6772C61.3651 40.4906 61.9731 39.5287 62.7232 39.5287C63.4732 39.5287 64.0812 40.4906 64.0812 41.6772C64.0812 42.8638 63.4732 43.8257 62.7232 43.8257Z" fill="#2B1A27"/>
<path d="M53.1346 32.7746C53.1346 32.7746 46.9207 28.7688 45.933 35.3498" stroke="#5C3752" stroke-width="2" stroke-miterlimit="10" stroke-linecap="round" stroke-linejoin="round"/>
<path d="M60.3776 34.6023C60.3776 34.6023 66.5915 30.9721 67.5792 36.9361" stroke="#5C3752" stroke-width="2" stroke-miterlimit="10" stroke-linecap="round" stroke-linejoin="round"/>
<path d="M54.1223 129.557H97.6614L116.344 98.0334L112.229 94.292L100.501 83.6235L78.649 113.999L78.2375 114.592C78.2375 114.592 77.4556 112.851 76.1799 109.85C74.4515 105.775 71.7766 99.404 68.8136 91.9953C63.8342 79.4747 59.2252 71.5844 58.9783 71.1769L54.1223 129.557Z" fill="url(#paint11_linear_16_18903)"/>
<path d="M54.1224 129.557H97.6614L116.345 98.0332L112.229 94.2918C105.316 104.256 88.6491 127.927 85.2746 127.483C80.9948 126.927 75.3981 122.334 77.7026 116.555C78.0318 115.703 78.361 114.851 78.6079 113.999C78.6079 113.999 78.6079 113.999 78.6079 114.036L78.1964 114.592C78.1964 114.592 77.5791 113.147 76.468 110.665C76.3446 110.406 76.2211 110.109 76.0977 109.85C75.6038 110.258 75.0689 110.739 74.4927 111.369C67.8672 118.037 66.1388 114.295 65.6861 102.219C65.2746 90.3653 59.1018 71.7695 58.896 71.2139L55.645 110.961L54.1224 129.557Z" fill="#DEE1FC"/>
<path d="M42.6409 135.331H57.6203C57.6203 135.331 58.6903 130.385 59.9248 123.273C60.9536 117.346 62.0647 109.947 62.7643 102.672C64.287 86.6076 58.9372 70.8706 58.9372 70.8706L55.0277 68.9903L53.4228 68.2137L48.3199 65.7612C48.3199 65.7612 50.9948 82.9288 48.3199 102.14C48.2376 102.59 48.1964 103.08 48.1141 103.53C46.3446 116.038 44.4516 126.216 43.4228 131.489C42.9701 133.941 42.6409 135.331 42.6409 135.331Z" fill="url(#paint12_linear_16_18903)"/>
<path d="M42.6409 135.331H44.9454C46.6738 127.687 48.6903 117.141 49.5545 112.482C49.8425 110.887 50.3364 109.334 51.0771 107.903L61.324 86.7709L59.8837 86.1578L59.6779 86.076L56.2211 84.6045L59.7191 79.8221L53.3405 68.9492C53.4228 68.704 53.4639 68.4179 53.5051 68.1726L48.4022 65.7201C48.4022 65.7201 50.4187 78.7185 49.1841 94.7416C49.0195 97.1124 48.7314 99.5649 48.4022 102.058C48.3199 102.508 48.2787 102.998 48.1964 103.448C47.5792 107.863 46.9207 111.991 46.3034 115.711C44.287 127.605 42.6409 135.331 42.6409 135.331Z" fill="#DEE1FC"/>
<path d="M46.2622 115.792C47.003 114.852 47.6614 113.503 48.1553 111.582C49.8013 104.674 58.2375 89.1417 59.8836 86.1986L59.6779 86.1169C58.1552 87.384 53.2993 91.3489 49.1841 94.7825C49.0194 97.1532 48.7314 99.6058 48.4022 102.099C48.3199 102.549 48.2787 103.039 48.1964 103.489C47.4968 107.903 46.8384 112.032 46.2622 115.792Z" fill="url(#paint13_linear_16_18903)"/>
<path d="M48.1141 103.489L51.0359 99.1561L60.0894 85.7081H53.505L59.1429 79.4542L55.0276 68.9492L50.6655 66.8237L48.361 65.7201C48.361 65.7201 51.0359 82.8877 48.361 102.099C48.2787 102.549 48.1964 103.039 48.1141 103.489Z" fill="url(#paint14_linear_16_18903)"/>
<path d="M48.114 103.489L51.0358 99.1563C52.0235 90.0002 51.1181 73.9362 50.6243 66.8648L48.3198 65.7611C48.3198 65.7611 50.9947 82.9288 48.3198 102.14C48.2786 102.549 48.1963 103.039 48.114 103.489Z" fill="#DEE1FC"/>
<path d="M-30.7748 135.331H-16.0835L12.6408 75.939L22.5585 59.5888C22.5585 59.5888 9.59551 58.2808 1.20046 68.2953C-7.1946 78.3097 -27.3592 107.25 -30.816 119.308C-34.2728 131.325 -30.7748 135.331 -30.7748 135.331Z" fill="url(#paint15_linear_16_18903)"/>
<path d="M-30.0753 135.331H-16.0835L-12.9148 128.791L-7.93534 118.49L12.6408 75.9387C12.5585 75.0394 12.435 74.0993 12.2704 73.0365C10.9947 64.5753 8.97823 74.835 8.11403 78.8817C7.24983 82.9283 5.7272 72.9956 3.13461 78.9226C0.542018 84.8495 -9.74604 108.271 -16.9888 113.217C-24.1905 118.163 -28.9641 123.477 -30.1987 133.287C-30.2399 133.982 -30.1987 134.677 -30.0753 135.331Z" fill="#DEE1FC"/>
<path d="M-16.3715 135.331H20.6655C21.077 133.573 21.5297 131.571 22.0235 129.445C23.7108 121.965 25.6038 112.564 26.8383 103.734C27.4968 98.9929 27.9906 94.374 28.1141 90.3273C28.6079 75.6122 26.756 64.2079 25.7684 59.1803C24.8219 59.262 23.7108 59.3846 22.5174 59.5481C18.8548 60.1613 17.2087 61.5101 13.8754 64.5349C10.5421 67.5597 2.92891 85.2996 -3.82006 102.304C-4.39619 103.775 -5.01348 105.247 -5.54846 106.718C-11.4744 121.924 -16.3715 135.331 -16.3715 135.331Z" fill="url(#paint16_linear_16_18903)"/>
<path d="M15.4392 78.8819C15.4392 78.8819 26.0153 105.573 23.0112 117.019C21.7354 121.883 20.1717 128.913 18.8136 135.372H20.7066C22.5996 127.401 25.3157 115.138 26.9206 103.775C27.5791 99.0334 28.0729 94.4145 28.1963 90.3678C28.6902 75.6527 26.8383 64.2485 25.8507 59.2208C24.9042 59.3025 23.7931 59.4252 22.5996 59.5887L15.4803 70.8703L20.7478 78.8819H15.4392Z" fill="#DEE1FC"/>
<path d="M24.0811 79.6994H18.4433L26.8383 103.775C27.4968 99.0334 27.9906 94.4145 28.1141 90.3678C28.6079 75.6527 26.756 64.2485 25.7684 59.2208L18.4433 73.2002L24.0811 79.6994Z" fill="url(#paint17_linear_16_18903)"/>
</g>
<defs>
<linearGradient id="paint0_linear_16_18903" x1="35.0985" y1="59.106" x2="35.0985" y2="135.334" gradientUnits="userSpaceOnUse">
<stop stop-color="#5A6B96"/>
<stop offset="1" stop-color="#505F85"/>
</linearGradient>
<linearGradient id="paint1_linear_16_18903" x1="35.0987" y1="65.2295" x2="35.0987" y2="135.334" gradientUnits="userSpaceOnUse">
<stop stop-color="#475A7F"/>
<stop offset="1" stop-color="#353F63"/>
</linearGradient>
<linearGradient id="paint2_linear_16_18903" x1="39.3008" y1="49.4422" x2="39.3008" y2="70.5781" gradientUnits="userSpaceOnUse">
<stop stop-color="#FFCCB9"/>
<stop offset="1" stop-color="#EFAB97"/>
</linearGradient>
<linearGradient id="paint3_linear_16_18903" x1="49.5439" y1="55.9004" x2="29.0578" y2="55.9004" gradientUnits="userSpaceOnUse">
<stop stop-color="#EFAB97"/>
<stop offset="1" stop-color="#E38677"/>
</linearGradient>
<linearGradient id="paint4_linear_16_18903" x1="51.9679" y1="7.02316" x2="51.9679" y2="49.4475" gradientUnits="userSpaceOnUse">
<stop stop-color="#5C3752"/>
<stop offset="1" stop-color="#42283B"/>
</linearGradient>
<linearGradient id="paint5_linear_16_18903" x1="39.0174" y1="23.3768" x2="39.0174" y2="49.4472" gradientUnits="userSpaceOnUse">
<stop stop-color="#42283B"/>
<stop offset="1" stop-color="#2B1A27"/>
</linearGradient>
<linearGradient id="paint6_linear_16_18903" x1="48.9055" y1="24.7518" x2="48.9055" y2="61.8024" gradientUnits="userSpaceOnUse">
<stop stop-color="#FFCCB9"/>
<stop offset="1" stop-color="#EFAB97"/>
</linearGradient>
<linearGradient id="paint7_linear_16_18903" x1="68.5532" y1="32.2751" x2="38.1961" y2="32.2751" gradientUnits="userSpaceOnUse">
<stop stop-color="#EFAB97"/>
<stop offset="1" stop-color="#E38677"/>
</linearGradient>
<linearGradient id="paint8_linear_16_18903" x1="35.9899" y1="47.2008" x2="31.873" y2="47.2008" gradientUnits="userSpaceOnUse">
<stop stop-color="#EFAB97"/>
<stop offset="1" stop-color="#E38677"/>
</linearGradient>
<linearGradient id="paint9_linear_16_18903" x1="60.7648" y1="48.098" x2="56.8649" y2="48.098" gradientUnits="userSpaceOnUse">
<stop stop-color="#EFAB97"/>
<stop offset="1" stop-color="#E38677"/>
</linearGradient>
<linearGradient id="paint10_linear_16_18903" x1="56.3947" y1="51.7081" x2="45.9381" y2="51.7081" gradientUnits="userSpaceOnUse">
<stop stop-color="white"/>
<stop offset="1" stop-color="#EDEFFF"/>
</linearGradient>
<linearGradient id="paint11_linear_16_18903" x1="85.2172" y1="71.1376" x2="85.2172" y2="129.56" gradientUnits="userSpaceOnUse">
<stop stop-color="white"/>
<stop offset="1" stop-color="#EDEFFF"/>
</linearGradient>
<linearGradient id="paint12_linear_16_18903" x1="52.8326" y1="65.7395" x2="52.8326" y2="135.334" gradientUnits="userSpaceOnUse">
<stop stop-color="white"/>
<stop offset="1" stop-color="#EDEFFF"/>
</linearGradient>
<linearGradient id="paint13_linear_16_18903" x1="53.0429" y1="86.0875" x2="53.0429" y2="115.776" gradientUnits="userSpaceOnUse">
<stop stop-color="#DEE1FC"/>
<stop offset="1" stop-color="#C3C9E6"/>
</linearGradient>
<linearGradient id="paint14_linear_16_18903" x1="54.1159" y1="65.7393" x2="54.1159" y2="103.496" gradientUnits="userSpaceOnUse">
<stop stop-color="white"/>
<stop offset="1" stop-color="#EDEFFF"/>
</linearGradient>
<linearGradient id="paint15_linear_16_18903" x1="-4.88101" y1="59.5221" x2="-4.88101" y2="135.334" gradientUnits="userSpaceOnUse">
<stop stop-color="white"/>
<stop offset="1" stop-color="#EDEFFF"/>
</linearGradient>
<linearGradient id="paint16_linear_16_18903" x1="5.94005" y1="59.1955" x2="5.94005" y2="135.334" gradientUnits="userSpaceOnUse">
<stop stop-color="white"/>
<stop offset="1" stop-color="#EDEFFF"/>
</linearGradient>
<linearGradient id="paint17_linear_16_18903" x1="23.357" y1="59.1952" x2="23.357" y2="103.748" gradientUnits="userSpaceOnUse">
<stop stop-color="white"/>
<stop offset="1" stop-color="#EDEFFF"/>
</linearGradient>
</defs>
</svg>
