<svg width="90" height="90" viewBox="0 0 90 90" fill="none" xmlns="http://www.w3.org/2000/svg">
<mask id="mask0_214_2953" style="mask-type:alpha" maskUnits="userSpaceOnUse" x="0" y="0" width="90" height="90">
<rect width="90" height="90" rx="8" fill="#D9D9D9"/>
</mask>
<g mask="url(#mask0_214_2953)">
<path d="M51 9H45C33.9543 9 25 17.9543 25 29V69H51V9Z" fill="#46261F"/>
<path d="M32.8844 73.1325C40.0003 73.1325 45.7688 67.3452 45.7688 60.2062C45.7688 53.0672 40.0003 47.2799 32.8844 47.2799C25.7685 47.2799 20 53.0672 20 60.2062C20 67.3452 25.7685 73.1325 32.8844 73.1325Z" fill="#46261F"/>
<path d="M46 69H72V31.7564C72 19.7454 61.8003 10 49.2296 10H46V69Z" fill="#46261F"/>
<path d="M64.1156 73.1325C71.2315 73.1325 77 67.3452 77 60.2062C77 53.0672 71.2315 47.2799 64.1156 47.2799C56.9998 47.2799 51.2312 53.0672 51.2312 60.2062C51.2312 67.3452 56.9998 73.1325 64.1156 73.1325Z" fill="#46261F"/>
<path d="M63.4483 108H39.3891C34.4271 108 18.4033 103.963 18.4033 98.9851C18.4033 87.5 29.6578 65.0378 39.3891 65.0378H63.4483C74.694 65.0378 82.434 78.5 82.434 98.9851C82.434 103.963 68.4103 108 63.4483 108Z" fill="#FAFBFF"/>
<path d="M48.1117 107.999L49.717 107.999L49.717 65.0164L48.1117 65.0164L48.1117 107.999Z" fill="#257FD0"/>
<path d="M50.1678 80.3486C44.6846 80.3486 40.2439 75.8934 40.2439 70.3924V65.0169H60.1126V70.3924C60.0917 75.8934 55.651 80.3486 50.1678 80.3486Z" fill="#257FD0"/>
<path d="M50.1679 79.0936C45.2059 79.0936 41.1821 75.0568 41.1821 70.0787V49.7062C41.1821 44.7281 45.2059 40.6912 50.1679 40.6912C55.1298 40.6912 59.1536 44.7281 59.1536 49.7062V70.0787C59.1536 75.0568 55.1298 79.0936 50.1679 79.0936Z" fill="#F68F7E"/>
<path d="M50.1679 79.0936C45.2059 79.0936 41.1821 75.0568 41.1821 70.0787V64.3267H53.4411C56.6101 64.3267 59.1744 66.8994 59.1744 70.0787C59.1536 75.0568 55.1298 79.0936 50.1679 79.0936Z" fill="#FEB19C"/>
<path d="M29.5 43C31.433 43 33 41.433 33 39.5C33 37.567 31.433 36 29.5 36C27.567 36 26 37.567 26 39.5C26 41.433 27.567 43 29.5 43Z" fill="#F68F7E"/>
<path d="M44.2885 62.4651C35.4487 62.4651 28.2976 55.2699 28.2976 46.4223V28.4552C28.2976 19.5867 35.4695 12.4124 44.2885 12.4124C53.1283 12.4124 60.2793 19.6076 60.2793 28.4552V46.4223C60.2793 55.2699 53.1074 62.4651 44.2885 62.4651Z" fill="#FFC0AB"/>
<path d="M60.2793 28.4343V46.4014C60.2793 55.2699 53.1074 62.4442 44.2885 62.4442C35.4487 62.4442 28.2976 55.2699 28.2976 46.4014V28.4343C28.2976 28.0578 28.3185 27.6813 28.3393 27.3257C28.9022 18.9801 35.8448 12.3914 44.3093 12.3914C48.7292 12.3914 52.7321 14.1903 55.6301 17.0976C56.6934 18.1853 57.6316 19.3984 58.3613 20.758C59.5705 23.0379 60.2793 25.6524 60.2793 28.4343Z" fill="#FFC0AB"/>
<path d="M29.5 22C31.6891 25.9323 36.7187 29.3257 41.5348 29.3257H60.3193C59.7564 20.9801 52.8138 14.3914 44.3493 14.3914C39.9294 14.3914 34.898 15.0926 32 18C30.9367 19.0667 29.5 22 29.5 22Z" fill="#F68F7E"/>
<path d="M61.5 46C64.5376 46 67 43.5376 67 40.5C67 37.4624 64.5376 35 61.5 35C58.4624 35 56 37.4624 56 40.5C56 43.5376 58.4624 46 61.5 46Z" fill="#FFC2AD"/>
<path d="M61.5 44C63.433 44 65 42.433 65 40.5C65 38.567 63.433 37 61.5 37C59.567 37 58 38.567 58 40.5C58 42.433 59.567 44 61.5 44Z" fill="#F68F7E"/>
<path d="M58.5 44C60.433 44 62 42.433 62 40.5C62 38.567 60.433 37 58.5 37C56.567 37 55 38.567 55 40.5C55 42.433 56.567 44 58.5 44Z" fill="#FFC0AB"/>
<path d="M47.0615 41.9253C45.2268 41.9253 43.7466 40.4403 43.7466 38.5996V36.0687C43.7466 34.2281 45.2268 32.743 47.0615 32.743C48.8962 32.743 50.3764 34.2281 50.3764 36.0687V38.5996C50.3556 40.4403 48.8753 41.9253 47.0615 41.9253Z" fill="white"/>
<path d="M47.0616 40.1893C45.9149 40.1893 44.9976 39.2689 44.9976 38.1185V36.5498C44.9976 35.3994 45.9149 34.4791 47.0616 34.4791C48.2082 34.4791 49.1256 35.3994 49.1256 36.5498V38.1185C49.1047 39.2689 48.1874 40.1893 47.0616 40.1893Z" fill="#46261F"/>
<path d="M48.0205 36.6126C47.3742 36.6126 46.853 36.0897 46.853 35.4412C46.853 34.7928 47.3742 34.2699 48.0205 34.2699C48.6669 34.2699 49.1881 34.7928 49.1881 35.4412C49.1881 36.0897 48.6669 36.6126 48.0205 36.6126Z" fill="white"/>
<path d="M43.6006 30.9233C43.6006 30.2122 44.1843 29.6265 44.8932 29.6265H49.2297C49.9386 29.6265 50.5223 30.2122 50.5223 30.9233C50.5223 31.6345 49.9386 32.2201 49.2297 32.2201H44.8932C44.1635 32.2201 43.6006 31.6554 43.6006 30.9233Z" fill="#5F362E"/>
<path d="M34.052 41.9253C32.2173 41.9253 30.7371 40.4403 30.7371 38.5996V36.0687C30.7371 34.2281 32.2173 32.743 34.052 32.743C35.8867 32.743 37.3669 34.2281 37.3669 36.0687V38.5996C37.3461 40.4403 35.8658 41.9253 34.052 41.9253Z" fill="white"/>
<path d="M34.052 40.1893C32.9054 40.1893 31.988 39.2689 31.988 38.1185V36.5498C31.988 35.3994 32.9054 34.4791 34.052 34.4791C35.1987 34.4791 36.1161 35.3994 36.1161 36.5498V38.1185C36.1161 39.2689 35.1779 40.1893 34.052 40.1893Z" fill="#46261F"/>
<path d="M35.0318 36.6126C34.3855 36.6126 33.8643 36.0897 33.8643 35.4412C33.8643 34.7928 34.3855 34.2699 35.0318 34.2699C35.6781 34.2699 36.1993 34.7928 36.1993 35.4412C36.1993 36.0897 35.6781 36.6126 35.0318 36.6126Z" fill="white"/>
<path d="M30.5911 30.9233C30.5911 30.2122 31.1748 29.6265 31.8837 29.6265H36.2202C36.929 29.6265 37.5128 30.2122 37.5128 30.9233C37.5128 31.6345 36.929 32.2201 36.2202 32.2201H31.8837C31.1748 32.2201 30.5911 31.6554 30.5911 30.9233Z" fill="#5F362E"/>
<path d="M38.6593 45.7739C39.0854 45.7739 39.4307 45.4274 39.4307 45C39.4307 44.5726 39.0854 44.2261 38.6593 44.2261C38.2333 44.2261 37.8879 44.5726 37.8879 45C37.8879 45.4274 38.2333 45.7739 38.6593 45.7739Z" fill="#F4897A"/>
<path d="M41.5155 45.7739C41.9416 45.7739 42.2869 45.4274 42.2869 45C42.2869 44.5726 41.9416 44.2261 41.5155 44.2261C41.0895 44.2261 40.7441 44.5726 40.7441 45C40.7441 45.4274 41.0895 45.7739 41.5155 45.7739Z" fill="#F4897A"/>
<path d="M41.8634 28.4432H63.3374V21.2898C63.3166 12.8396 56.4991 6 48.0762 6H34.7749C31.585 6 28.9998 8.59363 28.9998 11.7938V15.5588C28.9998 22.6703 34.754 28.4432 41.8634 28.4432Z" fill="#5F362E"/>
<path d="M46.8946 44.6863C49.4047 44.6863 51.4396 43.5812 51.4396 42.2181C51.4396 40.855 49.4047 39.75 46.8946 39.75C44.3845 39.75 42.3496 40.855 42.3496 42.2181C42.3496 43.5812 44.3845 44.6863 46.8946 44.6863Z" fill="#FFC2AD"/>
<path d="M34.1353 44.6863C36.6455 44.6863 38.6803 43.5812 38.6803 42.2181C38.6803 40.855 36.6455 39.75 34.1353 39.75C31.6252 39.75 29.5903 40.855 29.5903 42.2181C29.5903 43.5812 31.6252 44.6863 34.1353 44.6863Z" fill="#FFC2AD"/>
<path d="M35.4277 50.8357C35.4277 50.8357 39.8893 54.8098 46.0605 50.4173" stroke="#F68F7E" stroke-miterlimit="10" stroke-linecap="round" stroke-linejoin="round"/>
<path opacity="0.4" d="M41.4463 15.6634H45.7828C47.0962 15.6634 48.1387 14.5966 48.1387 13.2998C48.1387 11.9821 47.0754 10.9363 45.7828 10.9363H41.4463C40.1328 10.9363 39.0904 12.003 39.0904 13.2998C39.0695 14.6176 40.1328 15.6634 41.4463 15.6634Z" fill="#885146"/>
<path opacity="0.4" d="M40.2579 23.005H57.8541C59.1467 23.005 60.21 21.9592 60.21 20.6414C60.21 19.3237 59.1467 18.2779 57.8541 18.2779H40.2579C38.9444 18.2779 37.902 19.3446 37.902 20.6414C37.8811 21.9592 38.9444 23.005 40.2579 23.005Z" fill="#885146"/>
<path d="M68.2435 83.3397H58.0486V85.0966H68.2435V83.3397Z" fill="#257FD0"/>
<path d="M38.8053 83.3397H31.6125V85.0966H38.8053V83.3397Z" fill="#257FD0"/>
</g>
<circle cx="48" cy="38" r="6.5" fill="#F0E8E8" fill-opacity="0.5" stroke="#1C326C"/>
<circle cx="32" cy="38" r="6.5" fill="#F0E8E8" fill-opacity="0.5" stroke="#1C326C"/>
<path d="M38.5 37.5H41.5" stroke="#1C326C"/>
<path d="M54 35.5L60 35" stroke="#1C326C" stroke-linecap="round"/>
</svg>
