<svg width="422" height="186" viewBox="0 0 422 186" fill="none" xmlns="http://www.w3.org/2000/svg">
<g opacity="0.54">
<path d="M153.947 0.566406H55.0527V136.136H153.947V0.566406Z" fill="#D698FF"/>
<path d="M153.947 0.566406H55.0527V2.88867H153.947V0.566406Z" fill="#DCA8FF"/>
<path d="M102.404 6.8252H61.3115V110.619H102.404V6.8252Z" fill="#B96EEB"/>
<path d="M147.66 6.8252H106.567V110.619H147.66V6.8252Z" fill="#B96EEB"/>
<path d="M102.404 108.014H61.3115V110.647H102.404V108.014Z" fill="#CD81FF"/>
<path d="M147.66 108.014H106.567V110.647H147.66V108.014Z" fill="#CD81FF"/>
<path d="M102.404 114.442H61.3115V129.424H102.404V114.442Z" fill="#B96EEB"/>
<path d="M147.66 114.442H106.567V129.424H147.66V114.442Z" fill="#B96EEB"/>
<path d="M61.3115 144.434H55.0527V136.136H63.3506L61.3115 144.434Z" fill="#B96EEB"/>
<path d="M147.688 144.434H153.947V136.136H145.649L147.688 144.434Z" fill="#B96EEB"/>
<path d="M62.6143 139.138L63.3506 136.136H55.0527V139.138H62.6143Z" fill="#9B57C8"/>
<path d="M153.947 139.138V136.136H145.649L146.386 139.138H153.947Z" fill="#9B57C8"/>
<path d="M81.8721 124.043C83.3736 124.043 84.5908 122.826 84.5908 121.324C84.5908 119.823 83.3736 118.605 81.8721 118.605C80.3705 118.605 79.1533 119.823 79.1533 121.324C79.1533 122.826 80.3705 124.043 81.8721 124.043Z" fill="#CD81FF"/>
<path d="M127.128 124.043C128.629 124.043 129.847 122.826 129.847 121.324C129.847 119.823 128.629 118.605 127.128 118.605C125.626 118.605 124.409 119.823 124.409 121.324C124.409 122.826 125.626 124.043 127.128 124.043Z" fill="#CD81FF"/>
<path d="M95.9189 48.3994C94.5879 48.3994 93.5117 49.4756 93.5117 50.8066V66.6943C93.5117 68.0254 94.5879 69.1016 95.9189 69.1016C97.25 69.1016 98.3262 68.0254 98.3262 66.6943V50.8066C98.3262 49.4473 97.25 48.3994 95.9189 48.3994ZM113.081 48.3994C111.75 48.3994 110.674 49.4756 110.674 50.8066V66.6943C110.674 68.0254 111.75 69.1016 113.081 69.1016C114.412 69.1016 115.488 68.0254 115.488 66.6943V50.8066C115.46 49.4473 114.412 48.3994 113.081 48.3994Z" fill="#CD81FF"/>
</g>
<g opacity="0.54">
<path d="M353.081 70.7977H300.919V128.048H353.081V70.7977Z" fill="#9B57C8"/>
<path d="M353.081 70.7977H300.919V74.6063H353.081V70.7977Z" fill="#9B57C8"/>
<path d="M404.391 65.1609H249.609V70.7977H404.391V65.1609Z" fill="#DCA8FF"/>
<path d="M300.919 70.7977H256.465V137.951H300.919V70.7977Z" fill="#D698FF"/>
<path d="M300.919 70.7977H256.465V73.4485H300.919V70.7977Z" fill="#B96EEB"/>
<path d="M296.44 76.343H260.365V88.3172H296.44V76.343Z" fill="#B96EEB"/>
<path d="M296.44 91.5773H260.365V103.552H296.44V91.5773Z" fill="#B96EEB"/>
<path d="M296.44 106.812H260.365V118.786H296.44V106.812Z" fill="#B96EEB"/>
<path d="M296.44 122.077H260.365V134.051H296.44V122.077Z" fill="#B96EEB"/>
<path d="M261.492 137.951V150.839H266.032L272.644 137.951H261.492Z" fill="#B96EEB"/>
<path d="M270.938 141.302L272.644 137.951H261.492V141.302H270.938Z" fill="#9B57C8"/>
<path d="M281.571 78.2015H275.234L273.375 76.343H283.43L281.571 78.2015Z" fill="#9B57C8"/>
<path d="M281.571 93.4359H275.234L273.375 91.5773H283.43L281.571 93.4359Z" fill="#9B57C8"/>
<path d="M281.571 108.701H275.234L273.375 106.812H283.43L281.571 108.701Z" fill="#9B57C8"/>
<path d="M281.571 123.935H275.234L273.375 122.077H283.43L281.571 123.935Z" fill="#9B57C8"/>
<path d="M397.535 70.7977H353.081V137.951H397.535V70.7977Z" fill="#D698FF"/>
<path d="M397.535 70.7977H353.081V73.4485H397.535V70.7977Z" fill="#B96EEB"/>
<path d="M393.635 76.343H357.56V88.3172H393.635V76.343Z" fill="#B96EEB"/>
<path d="M393.635 91.5773H357.56V103.552H393.635V91.5773Z" fill="#B96EEB"/>
<path d="M393.635 106.812H357.56V118.786H393.635V106.812Z" fill="#B96EEB"/>
<path d="M393.635 122.077H357.56V134.051H393.635V122.077Z" fill="#B96EEB"/>
<path d="M392.508 137.951V150.839H387.968L381.356 137.951H392.508Z" fill="#B96EEB"/>
<path d="M383.062 141.302L381.356 137.951H392.508V141.302H383.062Z" fill="#9B57C8"/>
<path d="M372.429 78.2015H378.766L380.625 76.343H370.57L372.429 78.2015Z" fill="#9B57C8"/>
<path d="M372.429 93.4359H378.766L380.625 91.5773H370.57L372.429 93.4359Z" fill="#9B57C8"/>
<path d="M372.429 108.701H378.766L380.625 106.812H370.57L372.429 108.701Z" fill="#9B57C8"/>
<path d="M372.429 123.935H378.766L380.625 122.077H370.57L372.429 123.935Z" fill="#9B57C8"/>
</g>
<rect y="145" width="422" height="8" rx="4" fill="#A860D8"/>
</svg>
