<svg width="40" height="40" viewBox="0 0 40 40" fill="none" xmlns="http://www.w3.org/2000/svg">
<mask id="mask0_214_2828" style="mask-type:alpha" maskUnits="userSpaceOnUse" x="0" y="0" width="40" height="40">
<rect width="40" height="40" rx="8" fill="#CD81FF"/>
</mask>
<g mask="url(#mask0_214_2828)">
<path d="M36.2049 40.8937H3C3 40.8937 3.49932 40.3319 4.49796 39.6454C5.80868 38.7091 7.96201 37.5232 10.8955 36.9615C11.3324 36.8679 11.8005 36.8055 12.2999 36.7431C13.4858 36.6182 14.7965 36.5246 16.1384 36.431C18.5102 36.2749 21.0068 36.1813 23.0353 36.1501C25.7816 36.0877 27.7789 36.0565 27.7789 36.0565C27.7789 36.0565 31.5238 36.9615 33.2714 38.2722C35.0502 39.583 36.2049 40.8937 36.2049 40.8937Z" fill="#393150"/>
<path d="M21.1004 40.8936H3C3 40.8936 3.49932 40.3319 4.49796 39.6453C6.99457 39.7702 10.5523 39.9262 11.7069 39.3332C12.6744 38.8339 11.863 37.8353 10.9267 36.9615C11.3636 36.8678 11.8318 36.8054 12.3311 36.743C13.517 36.6182 14.8277 36.5246 16.1696 36.4309C18.2293 38.397 20.6947 40.7688 21.1004 40.8936Z" fill="#26213D"/>
<path d="M36.2049 40.8936H30.9932C29.9321 40.0198 28.9023 39.3333 28.2469 39.3021C27.2483 39.2708 25.1262 40.1134 23.4722 40.8936H19.6336C18.1981 39.0212 21.787 37.1175 22.1615 36.743C22.2551 36.6494 22.5983 36.4309 23.0665 36.1501C25.8127 36.0877 27.81 36.0565 27.81 36.0565C27.81 36.0565 31.5549 36.9615 33.3026 38.2722C35.0502 39.5829 36.2049 40.8936 36.2049 40.8936Z" fill="#26213D"/>
<path d="M24.1276 28.2234V33.9032L19.9458 37.3672L15.7952 34.2465V28.2234H24.1276Z" fill="#FFCCB9"/>
<path d="M24.1277 28.2234V33.9032L22.0992 35.5884L19.977 37.3672C19.977 37.3672 21.2878 33.6847 19.3841 33.3102C18.3854 33.123 16.9499 32.3116 15.8264 31.5626V28.1922H24.1277V28.2234Z" fill="#F0AC9A"/>
<path d="M24.1277 28.2234V33.9032L22.0992 35.5884C21.9431 34.0904 21.4438 32.374 19.977 32.374C18.5727 32.374 17.0123 31.1881 15.8264 30.0958V28.2234H24.1277V28.2234Z" fill="#E38777"/>
<path d="M28.4968 22.9805C20.6324 29.971 11.4574 23.4174 11.4574 23.4174C11.4574 23.4174 11.3326 22.762 11.2077 21.701C11.1765 21.3889 11.1141 21.0456 11.0829 20.6399C10.8645 18.6426 10.7084 15.9276 11.0205 13.7742C11.8943 7.65753 15.8265 5.90991 19.9771 6.00353C21.7871 6.03474 23.6284 6.59647 25.1575 7.56391C26.7179 8.53134 27.9974 9.87327 28.6216 11.4649C28.8088 11.933 28.9337 12.4011 28.9961 12.9004C29.4642 16.895 28.4968 22.9805 28.4968 22.9805Z" fill="#393150"/>
<path d="M28.4968 22.9805C20.6325 29.971 11.4574 23.4174 11.4574 23.4174C11.4574 23.4174 11.3326 22.762 11.2078 21.701C11.6759 21.108 12.1752 20.5463 12.7681 20.1406C15.1711 18.4242 24.7831 17.051 27.1861 15.1474C28.372 14.2111 28.6528 12.7132 28.6216 11.4649C28.8089 11.933 28.9337 12.4011 28.9961 12.9004C29.4642 16.895 28.4968 22.9805 28.4968 22.9805Z" fill="#26213D"/>
<path d="M25.1575 7.59513C24.6894 7.93841 23.7532 8.15687 22.1616 8.21928C15.608 8.37532 12.0191 9.59242 12.0503 14.6481C12.0816 17.5504 11.8007 19.7973 11.0829 20.6711C10.8645 18.6738 10.7084 15.9588 11.0205 13.8054C11.8943 7.68875 15.8265 5.94113 19.9771 6.03475C21.7559 6.09716 23.5972 6.6589 25.1575 7.59513Z" fill="#474260"/>
<path d="M22.7856 39.5829L21.4749 40.644L21.1628 40.8936H18.3853L17.574 40.0198L17.1995 39.5829L19.384 37.8353L19.9457 37.3672L22.7856 39.5829Z" fill="#EF6159"/>
<path d="M22.7856 39.5829L21.1628 40.8936H20.7259L21.1004 39.7077L19.7273 38.8027L17.574 40.0198L17.1995 39.5829L19.9457 37.3672L22.7856 39.5829Z" fill="#DB514D"/>
<path d="M21.4749 40.644L21.631 39.5829L19.384 37.8353L19.9458 37.3672L22.7857 39.5829L21.4749 40.644Z" fill="#C43B3B"/>
<path d="M27.7789 36.0565L22.7857 39.5829L21.631 38.6779L19.9458 37.3672L22.0991 35.5883L24.1276 33.9031L27.7789 36.0565Z" fill="#7B46C1"/>
<path d="M27.7788 36.0565L22.7855 39.5829L21.6309 38.6779L23.4721 36.9303L22.099 35.5883L24.1275 33.9031L27.7788 36.0565Z" fill="#6635A6"/>
<path d="M19.9457 37.3672L17.1994 39.5829L15.327 38.5218L12.3311 36.743L14.9837 34.8393L15.7951 34.2464L19.9457 37.3672Z" fill="#7B46C1"/>
<path d="M19.9456 37.3672L17.1994 39.5829L15.3269 38.5218L17.1994 36.743L14.9836 34.8393L15.795 34.2464L19.9456 37.3672Z" fill="#6635A6"/>
<path d="M13.2049 25.6331C13.1737 26.2573 13.1425 26.6942 13.1425 26.6942C13.1425 26.6942 10.4586 24.2912 10.8955 22.9805C11.3324 21.6697 12.6431 21.8258 12.6431 21.8258C12.8928 21.9818 13.0176 22.4187 13.1113 22.9492C13.2673 23.7606 13.2361 24.8529 13.2049 25.6331Z" fill="#FFCCB9"/>
<path d="M13.2362 25.1026C13.2362 25.2898 13.2362 25.4771 13.2362 25.6331C13.1113 25.6643 12.9553 25.6331 12.768 25.5395C11.8318 25.1026 11.6446 24.1351 11.7694 23.4486C11.863 23.0117 12.0815 22.6684 12.3311 22.606C12.7368 22.5123 12.9865 22.762 13.1113 22.9492C13.2362 23.6046 13.2362 24.416 13.2362 25.1026Z" fill="#F0AC9A"/>
<path d="M13.236 25.1026C13.0176 24.572 12.7055 23.8855 12.331 23.6358C12.1126 23.4798 11.9253 23.4486 11.7693 23.4486C11.8629 23.0117 12.0814 22.6684 12.331 22.606C12.7367 22.5123 12.9864 22.762 13.1112 22.9492C13.2361 23.6046 13.236 24.416 13.236 25.1026Z" fill="#E38777"/>
<path d="M26.6866 26.6942C26.6866 26.6942 26.6554 26.3509 26.6242 25.8516C26.593 25.2274 26.5618 24.3536 26.6242 23.5422C26.6866 22.7308 26.8426 22.0442 27.1547 21.8258C27.1547 21.8258 28.4654 21.6697 28.9023 22.9805C29.3392 24.2912 26.6866 26.6942 26.6866 26.6942Z" fill="#FFCCB9"/>
<path d="M28.2157 23.3549C28.2157 24.1663 27.5916 25.5395 26.6241 25.8515C26.6241 25.8203 26.6241 25.7891 26.6241 25.7579C26.5929 25.5083 26.5929 25.1962 26.5617 24.8217C26.5305 24.26 26.4993 23.6358 26.5305 23.1989C26.5929 23.1365 26.7177 23.0429 26.9362 22.9492C27.1547 22.8556 27.4667 22.762 27.8412 22.762C28.0909 22.762 28.2157 23.0117 28.2157 23.3549Z" fill="#F0AC9A"/>
<path d="M28.2156 23.355C27.966 23.2614 27.7787 23.3238 27.7787 23.5734C27.7475 24.1352 27.061 25.165 26.6241 25.758C26.4368 26.0388 26.2808 26.1949 26.2808 26.1949L26.5616 24.8217L26.9361 22.9181C27.1546 22.8245 27.4667 22.7308 27.8411 22.7308C28.0908 22.762 28.2156 23.0117 28.2156 23.355Z" fill="#E38777"/>
<path d="M27.1857 17.7376V24.0727C27.1857 26.5693 25.9374 28.7539 24.0026 30.0334C22.8479 30.8136 21.4435 31.2817 19.9768 31.2817C15.9822 31.2817 12.7678 28.0673 12.7678 24.0727V17.7376C12.7678 14.1175 15.7013 11.184 19.3214 11.184H20.6321C21.3499 11.184 22.0365 11.3088 22.6606 11.4961C25.2821 12.3699 27.1857 14.8353 27.1857 17.7376Z" fill="#FFCCB9"/>
<path d="M27.186 17.7376V24.0727C27.186 26.5693 25.9377 28.7538 24.0028 30.0334C23.878 26.3196 25.6568 22.6996 25.6568 18.4241C25.6568 15.6466 24.0028 13.1188 22.6609 11.496C25.2823 12.3698 27.186 14.8352 27.186 17.7376Z" fill="#F0AC9A"/>
<path d="M27.1857 22.2939V24.0727C27.1857 28.0673 23.9714 31.2817 19.9768 31.2817C18.9157 31.2817 17.9171 31.0632 17.0121 30.6575C15.8262 30.127 14.8275 29.2844 14.1097 28.2545C13.2671 27.0687 12.7678 25.6331 12.7678 24.0727V21.8258C13.0799 21.8258 13.392 22.0442 13.7665 22.4187C14.8587 23.5734 16.0446 25.9452 16.6064 25.6955C17.3553 25.3522 19.3526 24.7281 21.1003 25.165C22.8479 25.6019 24.1586 26.4757 25.0012 24.26C25.8126 22.0442 27.1857 22.2939 27.1857 22.2939Z" fill="#393150"/>
<path d="M27.1859 22.2939V24.0727C27.1859 28.0673 23.9715 31.2817 19.9769 31.2817C17.5427 31.2817 15.4206 30.0958 14.1099 28.2546C14.4844 28.0361 14.8901 28.0673 15.3894 28.5354C17.3555 30.3767 21.2876 30.1894 23.1601 28.5354C25.0325 26.8814 24.9701 24.26 24.9701 24.26C25.8127 22.0442 27.1859 22.2939 27.1859 22.2939Z" fill="#26213D"/>
<path d="M19.9458 23.1677C19.8209 23.1677 19.7273 23.0741 19.7273 22.9493V19.7349C19.7273 19.61 19.8209 19.5164 19.9458 19.5164C20.0706 19.5164 20.1642 19.61 20.1642 19.7349V22.9493C20.1642 23.0741 20.0706 23.1677 19.9458 23.1677Z" fill="#F0AC9A"/>
<path d="M23.4722 20.7959C23.8342 20.7959 24.1276 20.1113 24.1276 19.2668C24.1276 18.4222 23.8342 17.7376 23.4722 17.7376C23.1103 17.7376 22.8169 18.4222 22.8169 19.2668C22.8169 20.1113 23.1103 20.7959 23.4722 20.7959Z" fill="#393150"/>
<path d="M16.8873 20.7959C17.2492 20.7959 17.5426 20.1113 17.5426 19.2668C17.5426 18.4222 17.2492 17.7376 16.8873 17.7376C16.5253 17.7376 16.2319 18.4222 16.2319 19.2668C16.2319 20.1113 16.5253 20.7959 16.8873 20.7959Z" fill="#393150"/>
<path d="M25.4382 16.3332C25.3446 16.3332 25.251 16.2708 25.2197 16.146C25.1261 15.7091 24.9389 15.397 24.5956 15.241C23.7842 14.804 22.4423 15.3034 22.4423 15.3034C22.3174 15.3346 22.1926 15.3034 22.1614 15.1785C22.1302 15.0537 22.1614 14.9289 22.2862 14.8977C22.3486 14.8665 23.8154 14.3047 24.8141 14.8353C25.251 15.0849 25.5318 15.4906 25.6566 16.0524C25.6878 16.1772 25.5942 16.2708 25.5006 16.302C25.4694 16.3332 25.4382 16.3332 25.4382 16.3332Z" fill="#26213D"/>
<path d="M14.9213 16.3332H14.8901C14.7652 16.302 14.7028 16.2084 14.734 16.0836C14.8589 15.5218 15.1397 15.1161 15.5766 14.8665C16.5753 14.3359 18.042 14.8977 18.1045 14.9289C18.2293 14.9601 18.2605 15.0849 18.2293 15.2098C18.1981 15.3346 18.0733 15.3658 17.9484 15.3346C17.9484 15.3346 16.6065 14.8041 15.7951 15.2722C15.483 15.4594 15.2646 15.7403 15.1709 16.1772C15.1397 16.2708 15.0461 16.3332 14.9213 16.3332Z" fill="#26213D"/>
<path d="M22.5359 27.3495C22.5359 27.3495 22.2863 27.7552 21.8806 28.1609C21.7558 28.2858 21.6309 28.4106 21.4749 28.5354C20.6947 29.1596 19.5088 29.5341 18.2293 28.2234C18.1045 28.0985 17.9796 27.9737 17.8548 27.8177C17.7612 27.6928 17.6363 27.5368 17.5427 27.3808H22.5359V27.3495Z" fill="white"/>
</g>
</svg>
