<svg width="40" height="40" viewBox="0 0 40 40" fill="none" xmlns="http://www.w3.org/2000/svg">
<mask id="mask0_214_3391" style="mask-type:alpha" maskUnits="userSpaceOnUse" x="0" y="0" width="40" height="40">
<rect width="40" height="40" rx="8" fill="#CD81FF"/>
</mask>
<g mask="url(#mask0_214_3391)">
<path d="M31.4912 26.5658C30.3531 30.762 27.0654 32.0971 25.0105 32.8283C22.197 33.8137 15.7163 32.7011 13.8511 31.8746C12.7763 31.3977 11.5434 30.0308 10.6898 27.6466C10.0576 25.8982 9.61498 23.6094 9.55176 20.7483V20.5894C9.55176 13.9772 13.5666 11.8473 13.5666 11.8473C13.5666 11.8473 15.7163 7.93719 20.4899 8.00077C24.9473 8.06435 29.7525 10.989 31.428 18.8409C31.5544 19.3814 31.6492 19.9536 31.7441 20.5576C32.0602 23.0371 31.9338 25.0081 31.4912 26.5658Z" fill="#393150"/>
<path d="M31.4911 26.5658C30.353 30.762 27.0652 32.0971 25.0104 32.8283C22.1968 33.8137 15.7162 32.7011 13.851 31.8746C12.7762 31.3977 11.5432 30.0308 10.6897 27.6466C11.0374 27.6466 11.48 27.8691 11.8594 28.3778C11.9226 28.4731 11.9858 28.5367 12.0174 28.6003C11.5749 27.9009 10.6581 26.1525 11.5116 25.2624C12.871 23.8319 19.0671 25.3896 21.5962 24.8173C24.1252 24.2451 24.9788 24.8173 24.9788 24.8173C24.9788 24.8173 26.3065 26.6929 27.1601 24.8173C28.0136 22.9418 29.7207 21.8609 29.7207 23.9272C29.7207 25.9936 28.8672 27.4877 27.3497 29.3314C26.2433 30.7302 28.9936 29.1725 31.4911 26.5658Z" fill="#2C2644"/>
<path d="M31.3964 18.8409C31.27 20.494 30.9538 20.3986 30.1319 17.9826C28.899 14.2315 28.9622 16.425 29.1519 18.8092C29.3416 21.1934 29.0254 14.6765 25.5164 12.7374C22.0073 10.7982 20.2686 11.593 17.4551 10.989C14.6415 10.3532 13.788 11.8791 12.7131 13.7229C11.6383 15.5666 11.417 22.6557 10.6583 20.6212C10.2789 19.6039 9.93118 19.7628 9.58344 20.6212C9.55182 13.9772 13.5667 11.8473 13.5667 11.8473C13.5667 11.8473 15.7164 7.93719 20.4899 8.00077C24.9157 8.06435 29.7525 10.989 31.3964 18.8409Z" fill="#4E476B"/>
<path d="M25.7694 24.0226C25.7694 24.0226 26.212 23.1643 27.5081 23.1643C28.8043 23.1643 28.3617 26.0571 26.6546 26.7883C24.9159 27.5195 24.5049 27.5195 24.5049 27.5195L25.7694 24.0226Z" fill="#FCD3C8"/>
<path d="M13.124 24.0226C13.124 24.0226 12.6815 23.1643 11.3853 23.1643C10.0892 23.1643 10.5318 26.0571 12.2389 26.7883C13.9776 27.5195 14.3886 27.5195 14.3886 27.5195L13.124 24.0226Z" fill="#FCD3C8"/>
<path d="M38.13 53.5549H1.86987C1.86987 53.5549 2.186 52.4741 2.6602 50.9482C3.29246 48.8819 4.24085 45.9891 5.06279 43.9863C6.45376 40.5213 8.41376 35.7211 10.6899 34.0045C12.966 32.256 15.748 31.8746 15.748 31.8746H25.0422C25.0422 31.8746 28.2667 32.2878 31.3016 35.7529C34.3364 39.2179 38.13 53.5549 38.13 53.5549Z" fill="#A1D0FF"/>
<path d="M38.13 53.5549H1.86987C1.86987 53.5549 2.186 52.4741 2.6602 50.9482C4.1144 50.6939 5.3473 50.5031 6.89634 48.8501C9.52022 46.1162 9.89957 44.6221 10.7215 39.8219C11.0693 37.8192 11.3538 37.1198 11.5751 37.3106C11.7964 37.4695 11.9228 38.3278 12.0493 39.6312C12.1125 40.3941 12.1441 41.2842 12.1757 42.2379C12.2705 46.7838 13.377 42.0472 13.9144 38.6457C14.4518 35.2442 17.9293 33.5912 17.9293 33.5912C17.9293 33.5912 18.3402 33.0826 19.0041 32.3832C19.1622 32.2243 19.3519 32.0335 19.5099 31.8746H25.0422C25.0422 31.8746 27.0654 32.1289 29.4364 33.9727C30.0371 34.4495 30.6693 35.0217 31.3016 35.7529C34.3048 39.2179 38.13 53.5549 38.13 53.5549Z" fill="#83B7EA"/>
<path d="M12.6183 53.5549H9.14087C9.2041 53.2052 9.36216 52.8238 9.58345 52.4105C10.5635 50.6303 10.3106 48.9772 10.7215 44.8764C10.9744 42.2379 11.2589 38.9636 11.5751 37.2787C11.7964 37.4377 11.9228 38.296 12.0493 39.5994C11.8912 41.316 11.6383 43.6048 11.6383 46.3705C11.6383 49.9309 12.2389 52.2833 12.6183 53.5549Z" fill="#729CDE"/>
<path d="M31.6493 41.1253C30.5113 44.1453 30.6377 45.0672 30.1003 53.3642C30.1003 53.4278 30.1003 53.4596 30.1003 53.5231H27.6661C27.8241 50.4714 28.1403 47.0381 28.2983 43.2552C28.5196 37.9781 25.9274 33.7819 25.5796 36.039C25.2319 38.3278 21.5964 39.8537 19.9209 38.9636C18.1822 38.1371 18.9409 34.9264 18.9409 34.9264C18.7512 34.3224 18.7196 33.3687 18.9725 32.3832C19.1306 32.2243 19.3203 32.0335 19.4783 31.8746H25.0106C25.0106 31.8746 27.0338 32.1289 29.4048 33.9727C30.1319 37.6284 29.4364 39.8537 30.5429 39.504C31.7442 39.1226 32.7874 38.1371 31.6493 41.1253Z" fill="#729CDE"/>
<path d="M23.0822 28.3459V31.1752C23.0822 32.0971 22.6396 32.8918 21.9757 33.4005C21.5015 33.7819 20.9009 33.9727 20.2686 33.9727C18.7196 33.9727 17.4551 32.7011 17.4551 31.1434V28.3459H23.0822Z" fill="#EFB6AB"/>
<path d="M23.0822 28.3459V31.1752C23.0822 32.0971 22.6396 32.8918 21.9757 33.4005C21.8809 32.256 21.3751 32.415 19.8577 31.9699C18.8777 31.6838 17.9925 31.1752 17.4551 30.7937V28.9499C17.5499 28.7592 17.6448 28.5367 17.708 28.3777H23.0822V28.3459Z" fill="#E08D86"/>
<path d="M25.0422 31.8428C25.0422 31.8428 23.7461 37.8828 22.0074 36.5794C21.5648 36.2615 21.2803 35.9436 21.059 35.6257C20.3635 34.7038 20.4899 33.9727 20.4899 33.9727L21.628 32.8283L23.3035 31.1434L25.0422 31.8428Z" fill="#F2F6FF"/>
<path d="M25.0421 31.8428C25.0421 31.8428 24.8208 32.86 24.4414 33.9409C24.2518 34.5131 23.9988 35.1171 23.7459 35.6257C23.7459 35.6575 23.7143 35.6893 23.7143 35.6893C23.6827 35.7529 23.6511 35.7847 23.6195 35.8165L23.5879 35.8482C23.1453 36.5794 22.6079 36.9927 22.0072 36.5476C21.5646 36.2297 21.2801 35.9118 21.0588 35.5939C21.8492 35.1171 23.1769 34.2906 23.3982 33.4958C23.7143 32.3832 22.5763 34.0045 21.6279 32.7647L22.6079 31.7792L23.3034 31.0798L25.0421 31.8428Z" fill="#DFE2F7"/>
<path d="M24.4416 33.9726C24.6629 32.86 24.3151 32.1289 23.7145 32.3196C23.3035 32.4468 22.8925 32.1924 22.5764 31.9063L23.2719 31.207L25.0106 31.8745C25.0422 31.8428 24.8209 32.86 24.4416 33.9726Z" fill="#CDCCEA"/>
<path d="M18.7512 36.6112C17.8344 37.3105 17.0441 35.9436 16.5066 34.5131C16.0324 33.2415 15.7163 31.8745 15.7163 31.8745L16.2537 31.652L17.4234 31.1752L20.237 34.0044C20.2686 34.0044 20.4899 35.3078 18.7512 36.6112Z" fill="#F2F6FF"/>
<path d="M18.7512 36.6112C18.277 36.9608 17.8661 36.7701 17.4867 36.325C17.1073 35.88 16.7596 35.2124 16.5067 34.4813C17.4551 33.8455 18.3086 33.623 17.4551 33.0507C16.8544 32.6375 16.4751 32.0653 16.2854 31.6202L16.9493 31.3659L17.4551 31.1752L20.2686 34.0044C20.2686 34.0044 20.4899 35.3078 18.7512 36.6112Z" fill="#DFE2F7"/>
<path d="M18.7512 36.6112C18.277 36.9608 17.866 36.7701 17.4866 36.325C17.7079 36.1979 17.9608 36.1025 18.277 36.0389C20.1737 35.6893 19.415 33.7819 18.277 33.0507C17.7079 32.7011 17.2653 31.9699 16.9492 31.3659L17.455 31.1752L20.2686 34.0044C20.2686 34.0044 20.4899 35.3078 18.7512 36.6112Z" fill="#CDCCEA"/>
<path d="M26.7491 25.9617C26.0853 26.5021 25.8008 26.5021 25.7059 26.3114C25.5795 26.0889 25.6111 25.6438 25.5479 25.3259C25.5479 25.3259 25.8008 24.404 26.3066 23.9908C26.433 23.8954 26.5911 23.8318 26.7491 23.8C27.5711 23.6729 28.0769 24.8809 26.7491 25.9617Z" fill="#EFB6AB"/>
<path d="M26.5595 25.1034C26.1801 25.6438 25.864 26.0571 25.7059 26.3114C25.5795 26.0889 25.6111 25.6438 25.5479 25.3259C25.5479 25.3259 25.8008 24.404 26.3066 23.9908C26.6227 24.2769 26.844 24.6584 26.5595 25.1034Z" fill="#E08D86"/>
<path d="M26.0853 16.107V23.8C26.0853 27.5194 23.0821 30.5394 19.3834 30.5394C15.6846 30.5394 12.6814 27.5194 12.6814 23.8V18.2687C13.4401 17.315 14.3885 15.7255 14.515 13.691C14.5466 13.3731 14.5466 13.0235 14.515 12.6738H14.7362C14.7995 12.8009 14.8627 12.9599 14.9575 13.087C14.9891 13.1188 14.9891 13.1506 15.0208 13.1824C15.0524 13.2142 15.0524 13.246 15.084 13.2778C15.1472 13.3731 15.1788 13.4367 15.242 13.5321L15.2737 13.5639C15.3053 13.6274 15.3685 13.691 15.4001 13.7546C15.4633 13.85 15.5266 13.9453 15.5898 14.0407C15.6846 14.1679 15.7795 14.295 15.8743 14.4222C15.9375 14.4858 15.9691 14.5493 16.0324 14.5811C16.0324 14.6129 16.064 14.6129 16.0956 14.6447C16.1588 14.7083 16.2221 14.7719 16.2537 14.8354C16.3169 14.9308 16.4117 14.9944 16.5066 15.0898C16.6014 15.1851 16.6646 15.2487 16.7595 15.3441C16.8543 15.4394 16.9492 15.503 17.044 15.5984C17.1388 15.6938 17.2337 15.7573 17.3285 15.8527C17.6446 16.0752 17.9608 16.2978 18.3085 16.5203C20.6163 17.9508 24.4098 16.7428 26.0853 16.107Z" fill="#FCD3C8"/>
<path d="M26.0854 16.107V19.731C24.8209 19.3495 23.0822 18.3959 21.4067 18.7138C18.7828 19.1906 17.0441 18.1733 16.159 16.5521C15.9377 16.1388 15.4002 16.0752 15.0841 16.3931C14.1357 17.3468 13.3138 17.9826 12.7131 18.3959V18.2687C13.2506 17.5693 13.946 16.5203 14.2938 15.1851C14.4202 14.7401 14.5151 14.2315 14.5467 13.7228C14.5783 13.4049 14.5783 13.0552 14.5467 12.7056H14.768C14.8312 12.8327 14.8944 12.9917 14.9893 13.1188C15.0209 13.1506 15.0209 13.1824 15.0525 13.2142C15.0841 13.246 15.0841 13.2778 15.1157 13.3096C15.1789 13.4049 15.2106 13.4685 15.2738 13.5639L15.3054 13.5957C15.337 13.6592 15.4002 13.7228 15.4319 13.7864C15.4951 13.8818 15.5583 13.9771 15.6215 14.0725C15.6848 14.1361 15.7164 14.2315 15.7796 14.295C15.8112 14.3586 15.8744 14.4222 15.906 14.454C15.9693 14.5176 16.0009 14.5811 16.0641 14.6129C16.1273 14.7083 16.2222 14.7719 16.2854 14.8672C16.3486 14.9626 16.4435 15.0262 16.5383 15.1216C16.6331 15.2169 16.6964 15.2805 16.7912 15.3759C16.8861 15.4712 16.9809 15.5348 17.0757 15.6302C17.1706 15.7256 17.2654 15.7891 17.3602 15.8845C17.6764 16.107 17.9925 16.3296 18.3402 16.5521C20.6164 17.9508 24.4099 16.7428 26.0854 16.107Z" fill="#EFB6AB"/>
<path d="M26.0854 16.107V17.315C25.4847 17.5693 24.8208 17.919 24.157 18.1415C22.8608 18.5866 19.415 18.1416 17.6763 17.2832C15.9376 16.4249 15.084 13.8182 14.926 14.4858C14.8627 14.7083 14.6098 14.9626 14.2937 15.1851C14.4202 14.7401 14.515 14.2315 14.5466 13.7228C14.5782 13.4049 14.5782 13.0552 14.5466 12.7056H14.7679C14.8311 12.8327 14.8943 12.9917 14.9892 13.1188C15.0208 13.1506 15.0208 13.1824 15.0524 13.2142C15.084 13.246 15.084 13.2778 15.1156 13.3096C15.1789 13.4049 15.2105 13.4685 15.2737 13.5639L15.3053 13.5957C15.3369 13.6592 15.4002 13.7228 15.4318 13.7864C15.495 13.8818 15.5582 13.9771 15.6214 14.0725C15.6847 14.1361 15.7163 14.2315 15.7795 14.295C15.8111 14.3586 15.8744 14.4222 15.906 14.454C15.9692 14.5176 16.0008 14.5811 16.064 14.6129C16.1273 14.7083 16.2221 14.7719 16.2853 14.8672C16.3485 14.9626 16.4434 15.0262 16.5382 15.1216C16.6331 15.2169 16.6963 15.2805 16.7911 15.3759C16.886 15.4712 16.9808 15.5348 17.0756 15.6302C17.1705 15.7256 17.2653 15.7891 17.3602 15.8845C17.6763 16.107 17.9924 16.3296 18.3402 16.5521C20.6163 17.9508 24.4099 16.7428 26.0854 16.107Z" fill="#E08D86"/>
<path d="M21.0904 28.1234C20.964 28.3777 20.7427 28.632 20.4898 28.791C19.4465 29.4904 18.6878 28.791 18.4349 27.3287C18.3717 26.979 18.3401 26.5975 18.3401 26.1843H21.4065C21.3749 26.1843 21.5646 27.2651 21.0904 28.1234Z" fill="#FC8888"/>
<path d="M21.4067 26.9154C21.3751 27.2651 21.3118 27.7101 21.0905 28.0916C20.3634 27.2969 19.2254 27.2333 18.4034 27.2969C18.3718 27.0426 18.3402 26.7883 18.3086 26.5021C18.3086 26.375 18.3086 26.2796 18.3086 26.1525H21.3751C21.3751 26.1843 21.4383 26.5021 21.4067 26.9154Z" fill="#E57070"/>
<path d="M21.4065 26.9154C20.553 26.2161 19.2253 26.3432 18.3401 26.5339C18.3401 26.4068 18.3401 26.3114 18.3401 26.1843H21.4065C21.3749 26.1843 21.4382 26.5022 21.4065 26.9154Z" fill="#CC5A5A"/>
<path d="M22.311 23.2623C22.6951 23.2623 23.0065 22.7499 23.0065 22.1179C23.0065 21.4858 22.6951 20.9734 22.311 20.9734C21.9269 20.9734 21.6155 21.4858 21.6155 22.1179C21.6155 22.7499 21.9269 23.2623 22.311 23.2623Z" fill="#393150"/>
<path d="M16.3361 23.2623C16.7202 23.2623 17.0316 22.7499 17.0316 22.1179C17.0316 21.4858 16.7202 20.9734 16.3361 20.9734C15.952 20.9734 15.6406 21.4858 15.6406 22.1179C15.6406 22.7499 15.952 23.2623 16.3361 23.2623Z" fill="#393150"/>
<path d="M24.3974 19.5747C24.3658 19.5747 24.3026 19.5747 24.271 19.5429C22.5639 18.3985 21.0149 19.5111 20.9832 19.5429C20.8884 19.6065 20.762 19.6065 20.6671 19.5111C20.6039 19.4158 20.6039 19.2886 20.6987 19.1933C20.7303 19.1933 22.5323 17.8581 24.4607 19.1933C24.5555 19.2568 24.5871 19.384 24.5239 19.4794C24.5239 19.5429 24.4607 19.5747 24.3974 19.5747Z" fill="#393150"/>
<path d="M17.9167 19.5747C17.8851 19.5747 17.8219 19.5747 17.7903 19.5429C16.0832 18.3985 14.5341 19.5111 14.5025 19.5429C14.4077 19.6065 14.2812 19.6065 14.1864 19.5111C14.1232 19.4158 14.1232 19.2886 14.218 19.1933C14.2496 19.1933 16.0516 17.8581 17.98 19.1933C18.0748 19.2568 18.1064 19.384 18.0432 19.4794C18.0432 19.5429 17.98 19.5747 17.9167 19.5747Z" fill="#393150"/>
<path d="M12.5866 25.4849C12.4285 26.1525 11.1008 25.4531 11.3537 23.8954C11.3537 23.8954 11.575 23.8 11.8595 23.9272C12.1124 24.0544 12.3969 24.3087 12.555 24.9763C12.6182 25.1988 12.6182 25.3577 12.5866 25.4849Z" fill="#EFB6AB"/>
<path d="M12.5866 25.4849C12.397 25.3577 12.1757 25.167 11.9544 24.9444C11.575 24.5312 11.7331 24.1497 11.8279 23.9272C12.0808 24.0543 12.3653 24.3087 12.5234 24.9762C12.6183 25.1988 12.6183 25.3577 12.5866 25.4849Z" fill="#E08D86"/>
</g>
</svg>
