<svg width="118" height="102" viewBox="0 0 118 102" fill="none" xmlns="http://www.w3.org/2000/svg">
<path d="M41.3521 0.860012C40.3361 0.860012 39.5081 1.68801 39.5081 2.71001V12C39.5081 13.024 40.3361 13.852 41.3521 13.852H65.5001C66.5241 13.86 67.3601 13.032 67.3601 12V2.71001C67.3601 1.68001 66.5241 0.852012 65.5001 0.860012H41.3521Z" fill="#B01D47"/>
<path d="M59.9299 0.860016V13.852H65.4999C66.5239 13.86 67.3599 13.032 67.3599 12V2.94602L62.4679 0.992016L59.9299 0.860016Z" fill="#801231"/>
<path d="M63.648 0.860016V25C63.64 26.024 64.468 26.86 65.5 26.868H74.782C75.812 26.868 76.648 26.032 76.64 25V6.42202C76.64 5.67202 76.18 4.99202 75.476 4.71002L66.188 0.992016L63.648 0.860016Z" fill="#DC1C4B"/>
<path d="M46.9301 0.860016V13.852H41.3681C40.3441 13.86 39.5081 13.032 39.5081 12V2.94602L44.3981 0.992016L46.9301 0.860016Z" fill="#801231"/>
<path d="M40.672 0.992016L31.376 4.71002C30.672 4.99202 30.21 5.67202 30.21 6.42202V25C30.204 26.032 31.04 26.868 32.07 26.868H41.352C42.39 26.868 43.226 26.032 43.218 25V0.860016" fill="#DC1C4B"/>
<path d="M63.648 19.438V25C63.64 26.024 64.468 26.86 65.5 26.868H74.782C75.812 26.868 76.648 26.032 76.648 25V19.438H63.648Z" fill="#B01D47"/>
<path d="M30.2181 19.438V25C30.2101 26.024 31.0401 26.86 32.0621 26.868H41.3521C42.3821 26.868 43.2181 26.032 43.2101 25V19.438H30.2181Z" fill="#B01D47"/>
<path d="M20.93 23.148C9.64 23.148 0.5 32.29 0.5 43.578V77C0.5 88.29 9.64 97.43 20.93 97.43H85.93C97.21 97.43 106.352 88.29 106.352 77V43.578C106.352 32.29 97.21 23.148 85.93 23.148H20.93Z" fill="#D0E2EE"/>
<path d="M60.2739 80.718V97.43H85.9299C97.2099 97.43 106.352 88.29 106.352 77V51.352C100.438 51.352 95.5619 56.226 95.5619 62.14V66.86C93.5459 67.602 91.8359 69.274 91.8439 71.446V74.422C89.1719 72.898 85.1099 72.29 82.2099 72.274C78.2739 72.516 74.0079 72.968 70.9679 75.492H60.2739V80.718Z" fill="#A8C2E1"/>
<path d="M102.64 31.852V73.29C102.64 84.57 93.5001 93.71 82.2101 93.71H9.2041C12.5241 96.046 16.5621 97.43 20.9301 97.43H85.9301C97.2101 97.43 106.352 88.29 106.352 77V43.578C106.352 39.204 104.976 35.172 102.64 31.852Z" fill="#A8C2E1"/>
<path d="M84.078 30.562C83.046 30.562 82.204 31.398 82.21 32.43V36.148C82.21 37.172 83.046 38 84.078 38C85.094 37.992 85.922 37.164 85.93 36.148V32.43C85.93 31.406 85.102 30.57 84.078 30.562Z" fill="#143441"/>
<path d="M19.062 30.562C18.04 30.57 17.21 31.406 17.21 32.43C17.218 33.454 18.04 34.282 19.062 34.282H87.79C88.812 34.282 89.64 33.454 89.64 32.43C89.648 31.406 88.82 30.57 87.79 30.562H19.062Z" fill="#3A4D5C"/>
<path d="M33.9221 60.29C33.9221 49.54 42.6881 40.796 53.4381 40.796C64.1801 40.796 72.9461 49.54 72.9461 60.29C72.9461 71.04 64.1801 79.782 53.4381 79.782C42.6881 79.782 33.9221 71.04 33.9221 60.29Z" fill="#DC1C4B"/>
<path d="M53.4381 50.078C52.4061 50.07 51.5701 50.898 51.5701 51.93V68.648C51.5701 69.68 52.4061 70.508 53.4381 70.5C54.4541 70.5 55.2821 69.672 55.2821 68.648V51.93C55.2821 50.906 54.4541 50.078 53.4381 50.078Z" fill="#D0E2EE"/>
<path d="M45.07 58.422C44.046 58.43 43.218 59.266 43.218 60.29C43.226 61.312 44.046 62.132 45.07 62.14H61.782C62.812 62.14 63.64 61.312 63.648 60.29C63.648 59.258 62.812 58.422 61.782 58.422H45.07Z" fill="#D0E2EE"/>
<path d="M65.2261 44.796C67.7261 48.078 69.2261 52.148 69.2261 56.578C69.2261 67.32 60.4681 76.07 49.7181 76.07C45.2901 76.07 41.2041 74.57 37.9221 72.062C41.4921 76.742 47.1101 79.782 53.4301 79.782C64.1801 79.782 72.9381 71.04 72.9381 60.29C72.9381 53.976 69.9061 48.36 65.2261 44.796Z" fill="#B01D47"/>
<path d="M33.2821 5.94601C32.2501 5.93801 31.4141 6.77401 31.4141 7.80401V12.774C31.4221 13.796 32.2581 14.624 33.2821 14.624C34.3041 14.618 35.1241 13.79 35.1321 12.774V7.80401C35.1321 6.78201 34.3041 5.94601 33.2821 5.94601Z" fill="#F0517A"/>
<path d="M9.47607 30.086C9.11807 30.132 8.77407 30.282 8.49207 30.524C8.49207 30.524 2.32007 35.672 2.32007 43.796V47.938C2.32807 48.96 3.15607 49.782 4.17207 49.79C5.20407 49.79 6.04007 48.96 6.04007 47.938V43.796C6.04007 37.578 10.8901 33.352 10.8901 33.352C11.6801 32.688 11.7741 31.516 11.1101 30.734C10.7101 30.258 10.0941 30.016 9.47607 30.086Z" fill="#F6FBFE"/>
<path d="M41.618 46.29C41.148 46.328 40.71 46.54 40.398 46.882C40.398 46.882 36.922 50.454 35.696 54.726C35.406 55.71 35.976 56.742 36.968 57.024C37.954 57.312 38.992 56.742 39.274 55.75C40.11 53.086 43.124 49.406 43.124 49.406C43.82 48.648 43.774 47.468 43.016 46.774C42.632 46.422 42.124 46.25 41.618 46.29Z" fill="#F0517A"/>
<path d="M65.5 78.868C64.476 78.868 63.648 79.696 63.648 80.718V97.43C63.64 98.454 64.468 99.29 65.5 99.296H74.782C75.812 99.296 76.648 98.46 76.64 97.43V80.718C76.64 79.688 75.804 78.86 74.782 78.868H65.5Z" fill="#E07A5F"/>
<path d="M77.8359 76.18L74.3439 77.054C73.5079 77.258 72.9299 78.008 72.9299 78.868V97.43C72.9299 98.29 73.5079 99.032 74.3439 99.242L77.8359 100.102C80.7179 100.82 83.7179 100.82 86.6019 100.102L90.0939 99.242C90.9219 99.032 91.5079 98.29 91.5079 97.43V78.868C91.5079 78.008 90.9219 77.258 90.0939 77.054L86.6019 76.18C83.7179 75.46 80.7179 75.46 77.8359 76.18Z" fill="#FFA185"/>
<path d="M87.7899 76.476V93.71C87.7959 94.57 87.2099 95.32 86.3819 95.524L82.8819 96.39C80.0079 97.11 76.9999 97.11 74.1239 96.39L72.9299 96.094V97.43C72.9299 98.282 73.5079 99.032 74.3439 99.234L77.8359 100.102C80.7179 100.82 83.7179 100.82 86.6019 100.102L90.0939 99.234C90.9299 99.032 91.5079 98.282 91.5079 97.43V78.868C91.5079 78.008 90.9299 77.266 90.0939 77.054L87.7899 76.476Z" fill="#FF7247"/>
<path d="M75.696 77.922C74.664 77.914 73.828 78.75 73.836 79.782V86.586C73.828 87.618 74.664 88.454 75.696 88.446C76.726 88.446 77.554 87.61 77.546 86.586V79.782C77.554 78.758 76.726 77.922 75.696 77.922Z" fill="#FFCCBC"/>
<path d="M98.938 77C98.04 77 97.266 77.64 97.102 78.524L95.25 88.734C95.226 88.852 95.218 88.968 95.218 89.078V95.578C95.218 98.632 97.734 101.14 100.79 101.14H111.938C114.992 101.14 117.5 98.632 117.5 95.578V89.078C117.5 88.968 117.492 88.852 117.468 88.734L115.624 78.524C115.46 77.64 114.688 77 113.782 77H98.938Z" fill="#FEDB88"/>
<path d="M98.9379 77C98.0399 77 97.2659 77.64 97.1019 78.524L96.0859 84.14C96.3759 84.328 96.7179 84.43 97.0699 84.43H115.648C116 84.43 116.344 84.328 116.64 84.14L115.618 78.524C115.46 77.64 114.688 77 113.79 77H98.9379Z" fill="#FEC872"/>
<path d="M106.352 54.726C102.274 54.726 98.938 58.054 98.938 62.14V67.718C98.938 68.766 98.118 69.57 97.07 69.57C96.046 69.578 95.218 70.406 95.218 71.438V78.868C95.226 79.882 96.054 80.71 97.07 80.718H115.648C116.672 80.71 117.5 79.882 117.5 78.868V71.438C117.5 70.406 116.672 69.578 115.648 69.57C114.602 69.57 113.782 68.766 113.782 67.718V62.14C113.782 58.054 110.438 54.726 106.352 54.726Z" fill="#DC1C4B"/>
<path d="M105.438 90C104.406 89.992 103.57 90.828 103.57 91.86C103.57 92.89 104.406 93.718 105.438 93.71H107.29C108.312 93.718 109.148 92.89 109.148 91.86C109.156 90.828 108.32 89.992 107.29 90H105.438Z" fill="#DC1C4B"/>
<path d="M106.352 54.718C105.71 54.718 105.094 54.828 104.492 54.984C107.688 55.82 110.07 58.704 110.07 62.14V67.718C110.07 68.766 110.89 69.57 111.938 69.57C112.96 69.57 113.79 70.406 113.79 71.438V78.868C113.782 79.882 112.954 80.71 111.938 80.718H115.648C116.672 80.71 117.492 79.882 117.5 78.868V71.438C117.5 70.406 116.672 69.57 115.648 69.57C114.602 69.57 113.79 68.766 113.79 67.718V62.14C113.79 58.054 110.438 54.718 106.352 54.718Z" fill="#B01D47"/>
<path d="M98.7899 81.5C97.8819 81.57 97.1559 82.29 97.0859 83.196L96.7419 87.148C96.6559 88.172 97.4219 89.062 98.4459 89.148C99.4599 89.234 100.352 88.476 100.446 87.46L100.79 83.5C100.868 82.476 100.11 81.578 99.0859 81.5C98.9839 81.492 98.8819 81.492 98.7899 81.5Z" fill="#FEEFC8"/>
<path d="M102.46 58.078C101.782 58.148 101.188 58.586 100.922 59.218C99.9459 61.594 100.102 64.578 100.102 65.844C100.11 66.86 100.93 67.688 101.954 67.696C102.976 67.696 103.812 66.868 103.82 65.844C103.82 64.61 103.992 61.562 104.368 60.648C104.758 59.696 104.304 58.61 103.352 58.218C103.07 58.102 102.766 58.054 102.46 58.086V58.078Z" fill="#F0517A"/>
</svg>
