<svg width="70" height="70" viewBox="0 0 70 70" fill="none" xmlns="http://www.w3.org/2000/svg">
<path fill-rule="evenodd" clip-rule="evenodd" d="M32.8763 3.00781C32.1971 3.01219 31.7049 3.66187 31.8886 4.31922C31.8886 4.31922 32.6925 7.24172 32.581 10.3523C32.5252 11.9077 32.2353 13.4838 31.5682 14.7273C30.9021 15.9709 29.9188 16.8973 28.2311 17.3677C24.4894 18.41 21.9169 19.7859 20.2675 21.3927C18.6225 22.9983 17.9389 24.9047 18.1741 26.6733C18.3666 28.1214 19.0075 29.318 19.9514 30.1766C15.8761 31.3217 13.5858 34.6752 13.4064 37.6742C13.2653 39.9602 13.8593 41.9683 15.3074 43.4252C16.341 44.4675 18.1785 44.9116 19.9427 45.4245C18.1916 46.7622 16.9775 48.4969 16.8627 50.4066C16.6921 53.2525 17.7049 55.6577 19.9646 57.1309C22.2199 58.6053 25.523 59.2594 30.0905 59.3786C31.111 59.4081 31.9783 59.5492 32.7177 59.768C37.5499 61.2073 37.6013 65.9925 37.6013 65.9925C37.6221 66.5481 38.0749 66.9922 38.6305 66.9922H45.0016C45.578 66.9922 46.0439 66.5219 46.0352 65.9498C46.0352 65.9498 45.9794 62.0659 44.6724 58.0716C44.0183 56.0722 43.0525 54.017 41.5574 52.3852C41.203 52.0002 40.8136 51.6414 40.3958 51.3122C44.4711 51.077 47.9493 50.6155 50.6618 49.6978C52.5332 49.0602 54.0677 48.1972 55.1308 46.9634C56.195 45.7242 56.7157 44.1044 56.5964 42.28C56.5921 42.268 56.5921 42.2505 56.5877 42.2373C56.4171 40.6613 55.6908 39.3662 54.6616 38.4355C53.6313 37.508 52.3243 36.9228 50.9396 36.5553C50.513 36.4394 50.0766 36.3497 49.6369 36.2775C50.9396 35.6409 51.8922 34.9191 52.5671 34.0605C53.6783 32.6375 53.8708 30.9586 53.7855 29.2709C53.6696 27.1348 52.6447 24.9813 50.7307 23.5495C48.8166 22.1189 46.0396 21.4692 42.6216 22.1823C41.1691 22.4864 39.7461 22.6527 38.4303 22.7292C39.1818 21.8619 39.7505 20.837 40.1694 19.7477C41.0018 17.5766 41.3102 15.1036 41.3736 12.7619C41.4972 8.07078 40.6266 3.82812 40.6266 3.82812C40.5282 3.34906 40.1005 3.00781 39.6138 3.00781H32.8763V3.00781Z" fill="#FFA185"/>
<path fill-rule="evenodd" clip-rule="evenodd" d="M38.3317 51.3122C38.7506 51.6414 39.1389 52.0002 39.4889 52.3852C40.9896 54.017 41.9542 56.0722 42.6083 58.0716C43.911 62.0659 43.9711 65.9498 43.9711 65.9498C43.9799 66.5219 43.5139 66.9966 42.9375 66.9922H45.0014C45.5778 66.9922 46.0438 66.5219 46.035 65.9498C46.035 65.9498 45.9792 62.0659 44.6722 58.0716C44.0181 56.0722 43.0524 54.017 41.5572 52.3852C41.2028 52.0002 40.8135 51.6414 40.3956 51.3122H38.3317ZM37.5497 3.00781C38.0364 3.00781 38.4641 3.34906 38.5625 3.8325C38.5625 3.8325 39.4342 8.07078 39.3063 12.7619C39.2461 15.1036 38.9388 17.5766 38.1053 19.7477C37.6864 20.837 37.1188 21.8619 36.3706 22.7248H36.3663L36.2427 22.8452L38.3656 22.8834L38.6052 22.5159C39.2669 21.6956 39.7842 20.7517 40.1692 19.7477C41.0016 17.5766 41.31 15.1036 41.3735 12.7619C41.4971 8.07078 40.6264 3.8325 40.6264 3.8325C40.528 3.34906 40.1047 3.00781 39.6136 3.00781H37.5497Z" fill="#FF7247"/>
<path fill-rule="evenodd" clip-rule="evenodd" d="M44.9151 38.115C48.2182 37.5758 50.6146 38.0844 52.17 38.9988C53.7253 39.9131 54.4603 41.2125 54.5412 42.4211C54.644 43.9633 54.2295 44.9936 53.302 45.9036C52.38 46.8092 50.8498 47.5606 48.7859 48.1031C46.979 48.5778 44.7751 48.8983 42.254 49.1039C41.5573 49.0394 40.9164 48.6336 40.3356 48.3853C39.9768 48.1808 39.6564 47.95 39.3698 47.6853C39.1565 47.4928 38.8787 47.3944 38.5921 47.4195C38.3318 47.437 38.0835 47.5563 37.9085 47.7531C37.5246 48.1764 37.5542 48.8261 37.9775 49.21C38.0245 49.2527 38.0715 49.2953 38.1218 49.338C35.9343 49.42 33.585 49.4539 31.0945 49.4539C30.039 49.4539 29.0601 49.4452 28.1764 49.4156C27.6076 49.3938 27.1296 49.8422 27.1121 50.4109C27.0914 50.983 27.5398 51.462 28.1075 51.4784C29.0393 51.5091 30.0346 51.5178 31.0945 51.5178C38.5068 51.5178 44.7828 51.2914 49.312 50.0992C51.5804 49.5053 53.4343 48.6588 54.7468 47.3725C56.0582 46.083 56.7331 44.3144 56.5964 42.2844C56.464 40.332 55.2718 38.4355 53.2123 37.2258C52.3198 36.7008 51.2643 36.2994 50.0601 36.0642C51.1539 35.4823 51.9742 34.825 52.5714 34.0605C53.687 32.6375 53.8707 30.9586 53.7854 29.2709C53.6695 27.1348 52.6534 24.9813 50.7393 23.5495C49.3634 22.5203 47.5434 21.8969 45.3559 21.8925C44.5017 21.8925 43.5906 21.9822 42.6303 22.1823C36.5162 23.4598 30.9195 22.3234 30.9195 22.3234C30.3639 22.2086 29.817 22.563 29.701 23.123C29.5862 23.6775 29.945 24.2244 30.5006 24.3403C30.5006 24.3403 36.4517 25.5839 43.0481 24.2036C46.0132 23.5834 48.1023 24.1566 49.5001 25.2033C50.9012 26.25 51.645 27.8261 51.7259 29.377V29.3858C51.8068 30.8645 51.657 31.8773 50.9439 32.7906C50.2264 33.7006 48.7826 34.6238 45.9837 35.4572C44.8856 35.782 43.805 36.0642 42.7451 36.3114C41.2587 35.9188 40.1606 35.2352 39.3403 34.2694C39.1521 34.0517 38.8918 33.9238 38.6096 33.9106C38.345 33.8931 38.0835 33.9828 37.8834 34.1545C37.447 34.5253 37.4 35.175 37.7675 35.6114C38.2203 36.1408 38.7376 36.6023 39.314 36.9994C38.7125 37.1022 38.1185 37.1919 37.5367 37.2684C35.8665 36.82 34.2007 35.8542 33.2043 34.7178C33.0206 34.5002 32.7515 34.3722 32.466 34.3591C32.2046 34.3503 31.9487 34.4356 31.7518 34.603C31.3165 34.9748 31.2651 35.6278 31.637 36.0599C32.162 36.6745 32.7646 37.217 33.4395 37.6786C32.4737 37.7388 31.5517 37.777 30.6843 37.7902L30.0303 37.6152C28.7189 37.3023 27.787 36.7391 27.0946 35.9231C26.8726 35.6617 26.5401 35.525 26.1978 35.5644C25.9932 35.5852 25.7964 35.6705 25.6421 35.8072C25.2068 36.1791 25.1554 36.8288 25.5273 37.2641C25.6421 37.4008 25.7668 37.5288 25.8904 37.6578C23.4634 37.4784 22.0448 37.1963 22.0448 37.1963C21.4892 37.0847 20.9467 37.4434 20.8318 37.9991C20.7159 38.5634 21.079 39.1103 21.6434 39.2208C21.6434 39.2208 30.996 41.0966 42.9715 38.3753L44.9151 38.115V38.115ZM28.5045 17.3338C28.4148 17.3338 28.3251 17.3458 28.2398 17.372C24.497 18.4144 21.9256 19.7903 20.2762 21.3959C18.6312 22.9983 17.9476 24.9047 18.1828 26.6733C18.3753 28.117 19.0075 29.3092 19.9426 30.1634C15.8881 31.3042 13.5945 34.6664 13.4151 37.6742C13.2828 39.8573 13.799 41.7845 15.1192 43.2283C16.1101 44.3144 17.4904 45.0953 19.2339 45.6389C17.7901 46.9459 16.9775 48.6719 16.8714 50.4022C16.7007 53.2481 17.7125 55.6577 19.9732 57.1309C22.2285 58.6053 25.5317 59.2594 30.0992 59.3786C32.1839 59.3786 34.3407 58.9006 35.8195 57.5761C36.234 57.1867 36.2635 56.537 35.8796 56.1192C35.4946 55.7003 34.845 55.6697 34.4271 56.0503C33.1321 57.0763 32.0471 57.3497 30.6756 57.3322C30.7226 57.2939 30.7696 57.2513 30.8123 57.2086C31.2312 56.828 31.2651 56.1739 30.8801 55.7561C30.6887 55.5417 30.4153 55.4225 30.1287 55.4181C29.8684 55.4138 29.6114 55.5078 29.4189 55.6872C28.4925 56.3752 27.6076 57.0675 26.6462 57.0675C24.1262 56.7558 22.2975 56.1827 21.1009 55.405C19.4045 54.2992 18.7854 52.8806 18.9265 50.5258C19.025 48.9234 19.9853 47.2489 21.9551 46.2536C27.215 47.087 34.974 46.643 45.9585 45.2156C46.5262 45.1423 46.9276 44.6261 46.851 44.0573C46.7789 43.4941 46.2615 43.0959 45.7015 43.1692C44.7532 43.2884 43.8345 43.4 42.9376 43.5061C43.1421 43.3059 43.3434 43.0959 43.5271 42.8783C43.899 42.443 43.8432 41.7889 43.4079 41.4214C43.2362 41.2759 43.0142 41.1906 42.7878 41.1775C42.4673 41.1655 42.16 41.2978 41.95 41.545C40.2546 43.2031 38.8142 43.7413 36.9264 44.1427C37.2162 43.878 37.4896 43.5958 37.7467 43.2972C38.1098 42.8619 38.054 42.2166 37.6264 41.8491C37.4514 41.6992 37.2337 41.6095 37.0073 41.5964C36.6868 41.58 36.3751 41.7167 36.1695 41.9639C34.4479 43.6855 33.0206 44.4511 30.9698 44.5364C31.1929 44.3264 31.4062 44.1044 31.6064 43.8692C31.9739 43.4339 31.9235 42.7842 31.4915 42.4124C31.3165 42.268 31.1032 42.1816 30.8725 42.1695C30.5564 42.152 30.2479 42.2844 30.039 42.5283C29.2143 43.4984 28.1162 44.1777 26.6167 44.5703C24.6085 44.5145 22.8957 44.3483 21.464 44.0661C19.0884 43.5958 17.5462 42.8225 16.6406 41.8359C15.7393 40.8494 15.3587 39.6014 15.4703 37.7945C15.6278 35.1411 18.1696 31.4366 23.6942 31.8424C24.2837 31.9539 24.9039 32.0261 25.5481 32.0688C29.3248 32.3214 34.0979 31.5995 39.139 30.9159C39.7078 30.8427 40.1048 30.3177 40.0282 29.7533C39.9506 29.1856 39.4256 28.7875 38.8568 28.8695C38.6053 28.9034 38.357 28.9374 38.101 28.9713C38.3789 28.5447 38.3056 27.9672 37.9085 27.6259C37.7335 27.4805 37.5159 27.3908 37.2895 27.382C36.969 27.3656 36.6573 27.5024 36.4517 27.7452C35.4389 28.677 34.2346 29.4372 33.2907 29.5991C32.6837 29.6724 32.0898 29.7369 31.5123 29.7959C31.8207 29.5181 32.1062 29.2283 32.3764 28.9122C32.7439 28.4758 32.6881 27.8228 32.2517 27.4553C32.081 27.3098 31.8678 27.2289 31.6457 27.2158C31.3209 27.1939 31.0048 27.3306 30.7992 27.5789C29.7864 28.7667 28.5603 30.0486 26.5828 30.0486C25.7406 30.0563 24.8689 29.9075 24.0748 29.8091C22.0404 29.4547 20.4775 28.1345 20.2248 26.3998C20.0793 25.3061 20.426 24.1303 21.7156 22.8703C23.0062 21.6147 25.2746 20.3372 28.7954 19.3583C29.3423 19.2052 29.6628 18.6364 29.5129 18.0852C29.385 17.6367 28.9748 17.3294 28.5045 17.3338V17.3338Z" fill="#DB6443"/>
<path d="M33.128 3.38843C32.5768 3.52515 32.2399 4.08406 32.3766 4.63968C32.3766 4.63968 32.8371 6.59203 32.8929 7.81046C32.9235 8.37375 33.4058 8.81015 33.9735 8.7839C34.5422 8.75875 34.9819 8.27531 34.9568 7.70765C34.8846 6.10968 34.3804 4.14421 34.3804 4.14421C34.2437 3.58859 33.6837 3.25171 33.128 3.38843Z" fill="#FFCCBC"/>
<path d="M38.3615 61.2839C38.1012 61.2204 37.819 61.2587 37.5882 61.3998C37.0971 61.6896 36.9352 62.3262 37.2294 62.8184C37.2294 62.8184 38.0924 64.3945 38.1187 65.6031C38.1351 66.1718 38.6054 66.6203 39.1687 66.6115C39.7418 66.5995 40.1946 66.1292 40.1858 65.5604C40.1432 63.5271 38.9937 61.7498 38.9937 61.7498C38.8526 61.519 38.6262 61.3484 38.3615 61.2839Z" fill="#FFCCBC"/>
<path d="M21.9126 24.3491C21.3493 24.2933 20.8451 24.7034 20.7893 25.2711C20.7893 25.2711 20.7127 25.9591 20.9555 26.7411C21.1951 27.5187 21.8491 28.5053 23.0708 28.9417C23.609 29.1342 24.1985 28.8564 24.391 28.3183C24.5835 27.7791 24.3013 27.1895 23.7665 27.0025C23.1901 26.7925 23.0402 26.4851 22.9298 26.122C22.8138 25.7633 22.8357 25.4767 22.8357 25.4767C22.8915 24.9123 22.4813 24.4081 21.9126 24.3491V24.3491Z" fill="#FFCCBC"/>
<path d="M50.1663 28.8345C49.5987 28.8947 49.1885 29.3989 49.2432 29.9633C49.2432 29.9633 49.2651 30.2575 49.1535 30.6206C49.0387 30.9794 48.8888 31.2911 48.3124 31.4967C47.7787 31.6892 47.4965 32.2787 47.689 32.8125C47.8804 33.3506 48.4699 33.6284 49.0091 33.4359C50.2308 33.0006 50.8838 32.0097 51.1233 31.2277C51.3673 30.45 51.294 29.7664 51.294 29.7664C51.2393 29.1977 50.7351 28.7787 50.1663 28.8345Z" fill="#FFCCBC"/>
<path d="M17.0248 37.5594C16.4528 37.5594 15.9912 38.0166 15.9868 38.5886C15.9868 38.5886 16.0087 41.3919 18.4653 42.268C19.0034 42.4637 19.5973 42.1816 19.7898 41.6434C19.9823 41.1053 19.7001 40.5158 19.1653 40.3233C18.0245 39.9175 18.0507 38.5973 18.0507 38.5973C18.0551 38.0253 17.5935 37.5637 17.0248 37.5594V37.5594Z" fill="#FFCCBC"/>
<path d="M53.2432 41.6948C52.6745 41.6905 52.2085 42.1433 52.2009 42.712C52.2009 42.712 52.1921 44.0705 51.0557 44.4763C50.5209 44.6688 50.2398 45.2583 50.4312 45.7964C50.6237 46.3302 51.2132 46.6123 51.7514 46.4198C54.2079 45.5405 54.2637 42.7416 54.2637 42.7416C54.2725 42.1695 53.8153 41.7036 53.2432 41.6948Z" fill="#FFCCBC"/>
<path d="M20.5201 50.4197C19.9469 50.4197 19.481 50.8845 19.4854 51.4576C19.4854 51.4576 19.5029 54.2522 21.9594 55.1272C22.4976 55.3241 23.0959 55.0462 23.284 54.5037C23.4765 53.9656 23.1987 53.3761 22.6605 53.188C21.5241 52.7778 21.5493 51.4576 21.5493 51.4576C21.5493 50.8845 21.0921 50.4241 20.5201 50.4197V50.4197Z" fill="#FFCCBC"/>
</svg>
