<svg width="70" height="70" viewBox="0 0 70 70" fill="none" xmlns="http://www.w3.org/2000/svg">
<path d="M41.8315 8.05886C36.9359 7.99105 33.0137 10.0889 32.0436 10.6314C31.6805 10.8359 31.2615 11.1225 30.847 11.3959C28.9242 10.2332 25.1267 8.26011 20.405 8.19558C15.3212 8.12339 9.4467 10.5198 5.10999 18.4965C5.10561 18.5009 5.10561 18.5053 5.10124 18.514C3.51202 21.5514 2.49045 26.144 3.28124 31.0921C4.04139 35.8817 6.67405 40.9446 12.0094 45.0462C10.6684 50.574 11.3345 59.0889 14.5819 64.1945C15.3037 65.3232 16.4708 66.0407 17.7133 66.301C18.9525 66.5657 20.3197 66.382 21.4222 65.5967C26.0061 62.3406 29.0139 56.3512 30.9969 49.7154C32.9787 56.3512 35.9866 62.3406 40.5716 65.5967C41.6773 66.382 43.0412 66.5657 44.2837 66.301C45.523 66.0407 46.69 65.3232 47.4119 64.1945C50.6625 59.0889 51.3297 50.574 49.992 45.0539C55.3711 40.9567 58.0245 35.8981 58.7847 31.1085C59.5667 26.1528 58.5244 21.5557 56.9308 18.514C56.9308 18.5053 56.9264 18.5009 56.922 18.4965C52.5897 10.5198 46.7283 8.12339 41.8315 8.05886Z" fill="#E2F0FA"/>
<path d="M28.0525 44.5496C27.7921 44.5584 27.545 44.6656 27.3612 44.8493C26.9587 45.2507 26.9587 45.9048 27.3612 46.3062C28.292 47.2337 29.5826 47.8101 30.9968 47.8101C32.411 47.8101 33.7049 47.2337 34.6325 46.3062C35.0382 45.9048 35.0382 45.2507 34.6325 44.8493C34.231 44.4435 33.577 44.4435 33.1756 44.8493C32.6156 45.4093 31.8554 45.7506 30.9968 45.7506C30.1382 45.7506 29.3693 45.4093 28.8093 44.8493C28.6081 44.6481 28.3346 44.542 28.0525 44.5496Z" fill="white"/>
<path d="M12.8088 16.4457C12.659 16.4589 12.5179 16.4971 12.3899 16.5693C9.88194 17.9114 8.53226 19.8724 7.91648 21.9746C7.30179 24.0724 7.34007 26.2851 7.34007 28.4048C7.34444 28.9724 7.80601 29.4296 8.37366 29.4296C8.93804 29.4253 9.39523 28.9681 9.3996 28.4048C9.3996 26.2764 9.39523 24.2474 9.89069 22.5598C10.3862 20.8678 11.2918 19.4874 13.3601 18.3817C13.8643 18.1159 14.0524 17.4924 13.7866 16.9926C13.5952 16.6339 13.2146 16.4206 12.8088 16.4457Z" fill="white"/>
<path d="M8.54104 31.3743C8.50604 31.3743 8.47651 31.3743 8.44261 31.3787C7.87823 31.4717 7.49761 32.0021 7.59167 32.5654C7.59167 32.5654 7.6737 33.1046 7.87386 33.6515C8.06636 34.1853 8.66026 34.4631 9.19401 34.2662C9.72448 34.0693 9.99792 33.4842 9.80979 32.9504C9.70698 32.6682 9.62604 32.2242 9.62604 32.2242C9.53636 31.7025 9.06604 31.335 8.54104 31.3743Z" fill="white"/>
<path d="M51.7475 11.8957C52.8456 13.1601 53.8967 14.652 54.8668 16.437C54.8712 16.4413 54.8712 16.4501 54.8756 16.4545C56.4692 19.4962 57.5115 24.0976 56.7295 29.0501C55.9693 33.8396 53.3115 38.9015 47.9368 42.9954C49.2745 48.5145 48.6073 57.0304 45.3567 62.136C44.6348 63.2681 43.4678 63.9812 42.2286 64.2459C40.9861 64.5106 39.6233 64.3235 38.5164 63.5371C38.1401 63.2724 37.7814 62.9859 37.427 62.6862C38.384 63.8062 39.4308 64.784 40.5715 65.5967C41.6773 66.382 43.0412 66.5657 44.2837 66.301C45.5273 66.0363 46.69 65.3232 47.4118 64.1912C50.6625 59.0888 51.3297 50.574 49.992 45.0538C55.3711 40.9567 58.0245 35.8937 58.7847 31.1053C59.5711 26.1528 58.5243 21.5557 56.9351 18.514C56.9307 18.5096 56.9264 18.5009 56.9264 18.4965C55.3579 15.6167 53.5937 13.4718 51.7475 11.8957Z" fill="#C8DAE5"/>
<path d="M41.8316 8.05886C39.4987 8.02495 37.4008 8.48651 35.7263 9.03339V22.1026C35.7263 27.0628 38.2813 31.5537 41.404 34.9454C44.5102 38.3207 48.3219 41.0212 52.5985 41.0212C53.188 41.0212 53.7688 40.9654 54.3419 40.867C56.8707 37.7487 58.2674 34.3646 58.7848 31.1085C59.5712 26.1528 58.5244 21.5557 56.9308 18.514C56.9308 18.5053 56.9265 18.5009 56.9265 18.4965C52.5898 10.5198 46.7283 8.12339 41.8316 8.05886Z" fill="#C8DAE5"/>
<path d="M52.5985 3.58542C46.561 3.58542 43.1781 3.91026 41.1185 4.53479C40.0882 4.84651 39.3456 5.25229 38.8501 5.83308C38.3492 6.41386 38.196 7.13573 38.196 7.70011V22.1026C38.196 26.179 40.3923 30.2029 43.2207 33.2796C46.0492 36.3509 49.4879 38.5559 52.5985 38.5559C55.7048 38.5559 59.1392 36.3509 61.9632 33.2796C64.7917 30.2029 66.9923 26.179 66.9923 22.1026V7.70011C66.9923 7.13573 66.8381 6.41386 66.3382 5.83308C65.8384 5.25229 65.1078 4.84651 64.0742 4.53479C62.0146 3.91026 58.6306 3.58542 52.5985 3.58542Z" fill="#4895EF"/>
<path d="M52.5984 30.3232C57.7142 30.3232 61.8614 26.18 61.8614 21.069C61.8614 15.958 57.7142 11.8148 52.5984 11.8148C47.4826 11.8148 43.3354 15.958 43.3354 21.069C43.3354 26.18 47.4826 30.3232 52.5984 30.3232Z" fill="#E2F0FA"/>
<path d="M52.5983 15.9284C52.0296 15.9284 51.5647 16.3856 51.5647 16.9543V25.1826C51.5604 25.7557 52.0252 26.2217 52.5983 26.2173C53.166 26.2173 53.6232 25.7513 53.6232 25.1826V16.9543C53.6188 16.3899 53.1616 15.9328 52.5983 15.9284Z" fill="#DC1C4B"/>
<path d="M48.4838 20.0431C47.9162 20.0431 47.4502 20.5003 47.4502 21.069C47.4459 21.6411 47.9118 22.107 48.4838 22.1026H56.7044C57.2765 22.107 57.738 21.6411 57.738 21.069C57.7337 20.5003 57.2721 20.0431 56.7044 20.0431H48.4838Z" fill="#DC1C4B"/>
<path d="M52.5983 7.7001C48.313 7.7001 43.1385 8.74682 43.1385 8.74682C42.5796 8.86276 42.2164 9.40526 42.3313 9.96417C42.4472 10.5154 42.9853 10.8785 43.541 10.7681C43.541 10.7681 48.6542 9.75964 52.5983 9.75964C56.5369 9.75964 61.6469 10.7681 61.6469 10.7681C62.2025 10.8829 62.7494 10.5198 62.861 9.96417C62.9758 9.40088 62.6083 8.85838 62.0483 8.74682C62.0483 8.74682 56.8836 7.7001 52.5983 7.7001Z" fill="#E2F0FA"/>
<path d="M64.8134 4.7951C64.8943 5.08932 64.937 5.38464 64.937 5.64495V20.0431C64.937 24.1195 62.7364 28.1478 59.9079 31.2201C57.0806 34.2924 53.6495 36.4964 50.5389 36.4964C48.0528 36.4964 45.3523 35.069 42.9209 32.9253C43.0237 33.0401 43.1178 33.1637 43.2206 33.2796C46.049 36.3509 49.4921 38.5559 52.5984 38.5559C55.7046 38.5559 59.1346 36.3509 61.9631 33.2796C64.7915 30.2073 66.9921 26.1746 66.9921 22.1026V7.7001C66.9921 7.13573 66.8379 6.41385 66.3381 5.83307C65.9662 5.40214 65.4664 5.06417 64.8134 4.7951Z" fill="#4377D1"/>
<path d="M46.3138 16.1592C45.7068 16.869 45.2879 17.6762 44.9893 18.77L46.3138 16.1592Z" fill="#C8DAE5"/>
<path d="M46.3138 16.1592C45.7068 16.869 45.2879 17.6762 44.9893 18.77" stroke="white" stroke-width="1.5" stroke-linecap="round" stroke-linejoin="round"/>
<path d="M39.8496 6.32416C39.2765 6.32416 38.8149 6.78572 38.8149 7.35884V10.6609C38.8193 11.2296 39.2809 11.6912 39.8496 11.6868C40.4129 11.6868 40.8745 11.2253 40.8745 10.6609V7.35884C40.8788 6.79009 40.4173 6.32853 39.8496 6.32416Z" fill="#7CB3F4"/>
</svg>
