<svg width="70" height="70" viewBox="0 0 70 70" fill="none" xmlns="http://www.w3.org/2000/svg">
<path d="M41.3794 5.82751C40.8107 5.82751 40.3502 6.29345 40.3502 6.86111V8.01939C40.1063 8.03689 39.8624 8.05767 39.6196 8.0883C38.6702 8.20314 37.735 8.39126 36.8382 8.66033L36.603 7.78423C36.4794 7.3358 36.0725 7.02408 35.6033 7.02408C35.5136 7.02408 35.4239 7.0372 35.3386 7.06236C34.7917 7.20783 34.4669 7.77111 34.608 8.31798L34.8935 9.39095C33.1588 10.2025 31.7019 11.3695 30.8138 12.903C30.6727 13.1502 30.6388 13.4455 30.7241 13.7189L32.4675 19.4392C32.5999 19.8756 32.9969 20.1699 33.4497 20.1699H41.4264C41.6999 20.1742 41.9646 20.0681 42.1571 19.8756L49.8133 12.2489C50.2235 11.8388 50.2103 11.1683 49.7914 10.7713C49.2107 10.22 48.5577 9.75845 47.8522 9.3822L48.0535 8.63845C48.2022 8.0883 47.8741 7.51955 47.3228 7.37408C47.2113 7.34017 47.0997 7.32705 46.9892 7.3358C46.5452 7.36533 46.1689 7.67376 46.0574 8.1047L45.9294 8.57939C44.8105 8.23267 43.6227 8.04126 42.4174 7.98548V6.86111C42.4174 6.28908 41.9514 5.82314 41.3794 5.82751Z" fill="#FFCCBC"/>
<path d="M53.9958 15.6844C53.893 15.6844 53.7957 15.7008 53.6972 15.7314L47.733 17.6367C47.2113 17.7986 46.9127 18.3455 47.0494 18.8759L48.6551 25.2077C48.6857 25.3313 48.7404 25.4472 48.8137 25.5489L52.9754 31.4366C53.4282 32.0775 54.3929 32.0009 54.744 31.2999C58.4944 23.6699 54.9485 16.2695 54.9485 16.2695C54.7735 15.9064 54.4016 15.6756 53.9958 15.6844Z" fill="#4895EF"/>
<path d="M53.9958 15.6844C53.893 15.6844 53.7957 15.7008 53.7016 15.7314L47.733 17.6367C47.2113 17.803 46.9127 18.3455 47.0494 18.8759L48.6551 25.2077C48.6901 25.3313 48.7404 25.4472 48.8137 25.5489L52.7522 31.1249C52.983 29.108 52.9404 26.8953 52.5094 24.4902L52.5007 24.4683C52.4832 24.3491 52.458 24.2288 52.4241 24.1095C52.4197 24.0844 52.411 24.0625 52.4022 24.0374C52.4022 24.0374 51.5819 21.9428 53.4446 20.3799L55.8629 18.982C55.4407 17.2988 54.9485 16.2695 54.9485 16.2695C54.7735 15.902 54.4016 15.6756 53.9958 15.6844Z" fill="#4377D1"/>
<path d="M49.6078 23.9258C49.2841 23.9433 48.98 24.1139 48.8006 24.383L37.7909 41.0069C37.6706 41.195 37.6116 41.417 37.6236 41.6391L38.6452 56.9986C38.6539 57.1309 38.6878 57.26 38.7436 57.3792C38.7436 57.3792 41.0974 61.8352 47.0572 61.8352C48.4977 61.8352 50.7191 61.3999 52.9361 59.908C55.1542 58.4172 57.2947 55.8458 58.3928 51.7563C59.55 47.4327 58.6531 41.9814 57.555 37.6622V37.6534C55.3424 29.0314 50.3778 24.2167 50.3778 24.2167C50.1722 24.0199 49.8944 23.9127 49.6078 23.9258Z" fill="#F0517A"/>
<path d="M25.5716 49.8728C24.9776 49.8422 24.4822 50.3169 24.4822 50.9108V61.8352C24.4822 62.9628 25.4217 63.8991 26.5494 63.8991H31.7108C32.2839 63.8991 32.7455 63.4331 32.7411 62.8655V54.6273C32.7411 54.2642 32.5486 53.9317 32.2412 53.7436L26.0539 50.0259C25.9095 49.9363 25.7422 49.8848 25.5716 49.8728Z" fill="#4895EF"/>
<path d="M32.2412 53.7436L26.0539 50.0259C25.9095 49.9362 25.7422 49.8848 25.5716 49.8728H25.46C24.9175 49.9023 24.4822 50.3508 24.4822 50.9108V53.7687C24.9733 54.1187 25.4436 54.4392 25.9095 54.7433C27.3576 55.6784 28.6133 57.6953 28.6133 59.4169V63.8991H31.7108L32.2412 53.7436Z" fill="#4377D1"/>
<path d="M31.7368 53.5981C31.155 53.585 30.677 54.0509 30.677 54.6273V64.9283C30.677 66.057 31.6122 66.9922 32.7409 66.9922H36.872C37.9997 66.9922 38.9359 66.057 38.9359 64.9283V56.9133C38.9359 56.4823 38.6625 56.093 38.2567 55.9475L32.0606 53.6616C31.9589 53.6233 31.8473 53.6025 31.7368 53.5981Z" fill="#DC1C4B"/>
<path d="M20.9952 7.41233L18.8296 8.55311C17.5565 9.22468 17.0774 10.8522 17.7872 12.1034L20.0513 16.0901C20.2307 16.415 20.5763 16.6151 20.9482 16.6151H25.8493C26.4476 16.6119 26.9168 16.1076 26.8741 15.5094L26.5493 11.177C26.5329 10.9933 26.4727 10.8226 26.3743 10.6728L24.7337 8.25015C23.8882 6.99452 22.2344 6.75936 20.9952 7.41233Z" fill="#4895EF"/>
<path d="M49.6078 23.9258C49.2841 23.9433 48.9844 24.1139 48.8006 24.383L37.7909 41.0069C37.6706 41.195 37.6116 41.417 37.6236 41.6391L38.6452 56.9986C38.6539 57.1309 38.6878 57.26 38.7436 57.3792C38.7436 57.3792 39.3506 58.5156 40.7134 59.6433C41.3281 59.4508 41.9483 59.1347 42.4908 58.6053C43.8317 57.3103 43.952 55.452 43.5452 53.9317C43.5419 53.9142 43.5331 53.8967 43.5288 53.8847C43.567 54.017 43.4052 53.4144 43.3024 52.7395C43.1952 52.068 43.0967 51.1842 43.1011 50.3038C43.1055 48.5395 43.5758 46.7961 44.3742 45.9977V45.9889C45.4209 45.2025 53.5563 38.7045 52.8464 27.2759C51.4672 25.2711 50.3778 24.2167 50.3778 24.2167C50.1722 24.0199 49.8944 23.9127 49.6078 23.9258Z" fill="#B01D47"/>
<path d="M49.531 31.9113C49.437 31.9113 49.3473 31.92 49.2576 31.9408C48.7064 32.0863 48.3771 32.6506 48.5182 33.2008C48.5182 33.2008 49.5529 37.3888 49.2106 40.1013C49.1428 40.6656 49.5398 41.1775 50.1042 41.2508C50.6675 41.323 51.1804 40.9216 51.2526 40.3616C51.6803 36.9359 50.5143 32.6802 50.5143 32.6802C50.3984 32.2317 49.9926 31.92 49.531 31.9113Z" fill="#801231"/>
<path d="M43.3624 42.0875C43.323 42.0875 43.2891 42.0919 43.2552 42.0962C42.6908 42.1564 42.2807 42.6606 42.3408 43.225C42.3408 43.225 42.6186 46.2875 44.4299 49.2833L43.9475 50.7052C43.7638 51.2444 44.0493 51.8295 44.5885 52.0176C45.1266 52.2014 45.7118 51.9148 45.8999 51.3767L45.925 51.2914C46.4128 51.8208 46.9597 52.3162 47.5832 52.7691C48.0403 53.1026 48.6857 52.9998 49.0225 52.5427C49.3561 52.0811 49.2533 51.4358 48.7918 51.1033C45.0282 48.3645 44.3872 43.0106 44.3872 43.0106C44.3314 42.4856 43.8874 42.0875 43.3624 42.0875Z" fill="#801231"/>
<path d="M38.3804 16.3034C36.509 16.0727 34.5654 15.8375 32.6896 16.3549C32.3221 16.4533 31.9797 16.6283 31.6812 16.8591L32.4676 19.4392C32.5999 19.8756 32.9969 20.1699 33.4497 20.1699H41.4265C41.6999 20.1742 41.9646 20.0681 42.1571 19.8756L49.8133 12.2489C50.2235 11.8388 50.2104 11.1683 49.7915 10.7713C49.4458 10.4464 49.074 10.1511 48.6857 9.88642C47.9715 9.40407 46.6863 9.39095 45.9207 9.78798C42.8155 11.4122 39.9783 13.8305 38.3804 16.3034Z" fill="#FFA185"/>
<path d="M34.0141 9.84811C32.6677 10.6214 31.5444 11.6342 30.8138 12.903C30.6727 13.1501 30.6388 13.4455 30.7241 13.7189L32.4675 19.4392C32.5999 19.8756 32.9969 20.1698 33.4497 20.1698H36.0605C35.5049 16.9619 34.351 14.6201 34.0141 13.9748V9.84811Z" fill="#FFA185"/>
<path d="M31.7368 53.5981C31.155 53.585 30.677 54.0466 30.677 54.6273V57.3497L31.7193 57.8834C31.762 57.9042 31.8003 57.9261 31.8429 57.9436C31.8692 57.9556 31.8987 57.9644 31.925 57.9731C34.0009 58.9258 36.2912 59.7888 38.5684 59.8872C38.6876 59.8916 38.8112 59.8916 38.9359 59.8916V56.9133C38.9359 56.4823 38.6625 56.093 38.2567 55.9431L32.065 53.6583C31.9589 53.6233 31.8473 53.6025 31.7368 53.5981Z" fill="#B01D47"/>
<path d="M53.0816 9.10438C51.3469 9.56157 48.4594 10.4628 45.6605 11.9842C43.0847 13.3809 40.662 15.4066 39.2861 18.1234C37.2058 17.7909 34.9964 17.6498 33.1852 18.1453C32.9205 18.2175 32.6941 18.3881 32.5574 18.6233L19.5986 41.0069C19.5089 41.1655 19.4575 41.3448 19.4575 41.5242C19.4575 43.6855 20.5895 50.2009 29.1777 54.4994L32.565 56.2297L32.6044 56.2428C34.595 57.1659 36.7956 57.9513 38.6452 58.0289C39.5683 58.0672 40.5035 57.9513 41.2045 57.272C41.9046 56.5928 42.038 55.4947 41.747 54.4097C41.7427 54.4009 41.7427 54.3966 41.7383 54.3922C41.6781 54.1833 41.2385 52.3294 41.2428 50.295C41.2472 48.2617 41.7 46.0491 43.0628 44.6852L42.9174 44.8011C42.9174 44.8011 53.0389 37.7388 50.6764 24.7713C50.6677 24.7286 50.6546 24.6816 50.6425 24.6345C50.6425 24.6345 49.4755 21.2133 52.2831 18.9098L55.5338 17.0253C56.7391 16.3297 57.333 14.9023 56.9742 13.5603L56.2819 10.9933C55.91 9.61297 54.4914 8.72813 53.0816 9.10438Z" fill="#DC1C4B"/>
<path d="M35.5225 17.8292C34.7022 17.85 33.9114 17.9484 33.1808 18.1453C32.9205 18.2175 32.6941 18.3881 32.5617 18.6277L19.603 41.0069C19.5089 41.1655 19.4575 41.3448 19.4575 41.5242C19.4575 42.0963 19.5341 42.968 19.8075 44.0191C20.3161 43.972 20.8291 43.8616 21.3289 43.6647C24.4647 42.4386 29.8777 39.503 33.6555 33.1155C33.6588 33.1078 33.6675 33.1078 33.6719 33.0991C33.6719 33.0859 33.6763 33.0728 33.6763 33.0608C37.2178 27.3481 36.59 21.5502 35.5225 17.8292Z" fill="#B01D47"/>
<path d="M33.4628 26.7925C33.2014 26.7969 32.9542 26.8997 32.7661 27.0834C32.3559 27.4761 32.3472 28.1302 32.7409 28.5359C32.7409 28.5359 32.8776 28.6683 33.1467 29.1299C33.4158 29.5914 33.7658 30.3297 34.0436 31.4027C34.3597 32.62 34.5861 34.2694 34.4625 36.4186L32.1164 37.8066C31.6209 38.0975 31.459 38.7297 31.7489 39.2252C32.0442 39.713 32.6764 39.8749 33.1675 39.5839L34.1803 38.9824C34.0217 39.9733 33.7997 41.0452 33.4967 42.2034C33.3468 42.7547 33.6804 43.3224 34.2361 43.4678C34.7873 43.6089 35.3462 43.2797 35.4917 42.7284C36.9365 37.2477 36.697 33.3977 36.0386 30.8809C35.9325 30.4631 35.8078 30.0781 35.6842 29.7281L36.2529 29.937C36.7867 30.1339 37.3806 29.8649 37.5764 29.33C37.7733 28.7919 37.4998 28.198 36.9617 28.0022L33.839 26.8527L33.4628 26.7925Z" fill="#801231"/>
<path d="M23.2134 7.16077V10.8697C23.2134 11.8256 22.4401 12.6973 21.517 12.9587C20.7645 13.172 19.8808 13.4969 18.8723 14.0131L20.0514 16.0901C20.2351 16.415 20.5764 16.6151 20.9483 16.6151H25.8493C26.4476 16.6151 26.9168 16.1076 26.8742 15.5094L26.5493 11.1726C26.5373 10.9933 26.4728 10.8226 26.3743 10.6728L24.7337 8.25014C24.3542 7.68577 23.8073 7.32702 23.2134 7.16077Z" fill="#4377D1"/>
<path d="M26.5493 3.00781C25.4216 3.00781 24.4821 3.94297 24.4821 5.07172V13.6587C23.7132 13.7441 21.3758 13.8939 18.2652 15.808C14.6854 18.013 11.0662 22.2939 11.0662 29.8386C11.0662 33.1078 11.9466 37.4183 15.7704 41.4816C16.4244 42.1772 17.3082 42.5239 18.2062 42.6814C19.103 42.8444 20.0262 42.8148 20.8629 42.4856C23.828 41.323 28.9851 38.5416 32.5824 32.4538V32.445C37.9057 23.9127 33.0615 14.8258 32.741 14.2362V5.07172C32.741 3.94297 31.8048 3.00781 30.6771 3.00781H26.5493Z" fill="#F0517A"/>
<path d="M47.0408 36.773C46.3615 36.8845 45.0622 37.1273 43.6184 37.555C41.5206 38.1784 39.0804 39.1016 37.7997 40.9981C37.4792 41.4728 37.6028 42.1137 38.0731 42.4342C38.5467 42.7503 39.1876 42.6223 39.5037 42.152C40.2092 41.1097 42.2851 40.1056 44.2036 39.5369C44.6826 39.3969 45.1475 39.2766 45.5708 39.1737C46.0837 38.4694 46.5836 37.6698 47.0408 36.773Z" fill="#801231"/>
<path d="M16.9496 18.5938C16.535 18.2011 15.8777 18.2219 15.4883 18.6408C15.4883 18.6408 13.1433 21.0164 12.5319 23.9947C12.4171 24.5536 12.7758 25.0961 13.3314 25.2164C13.886 25.3313 14.4328 24.9725 14.5488 24.4125C14.9841 22.2983 16.9878 20.0594 16.9878 20.0594C17.3816 19.6449 17.3641 18.9864 16.9496 18.5938Z" fill="#F4B8D0"/>
<path d="M18.5267 10.2244C18.0137 10.4759 17.8037 11.0994 18.0607 11.608L18.6502 12.7663C18.9018 13.2748 19.5176 13.4838 20.0262 13.2322C20.5381 12.9795 20.7481 12.3561 20.491 11.8431L19.9059 10.6816C19.6499 10.173 19.0342 9.97172 18.5267 10.2244Z" fill="#7CB3F4"/>
<path d="M34.2744 10.3348C33.7056 10.3392 33.2451 10.7964 33.2451 11.3652V13.3306C33.2408 13.9027 33.7012 14.3642 34.2744 14.3686C34.8464 14.3686 35.3123 13.9027 35.308 13.3306V11.3652C35.308 10.7964 34.842 10.3348 34.2744 10.3348Z" fill="#FFEFEB"/>
<path d="M47.0997 11.6681C47.0997 11.6681 45.109 12.3812 43.6948 13.7572C43.2934 14.1542 43.2846 14.8039 43.6828 15.2141C44.0754 15.6198 44.7295 15.6286 45.1353 15.2359C46.0704 14.3259 47.8303 13.5997 47.8303 13.5997C48.3651 13.3984 48.6342 12.8045 48.4329 12.2708C48.2328 11.7359 47.6345 11.4669 47.0997 11.6725V11.6681Z" fill="#F0517A"/>
<path d="M55.5128 33.7991C55.2569 33.705 54.9747 33.7138 54.7264 33.8253C54.2091 34.0561 53.975 34.6664 54.2091 35.1881C54.2091 35.1881 55.6025 38.4355 55.6627 40.7334C55.6834 41.3022 56.1538 41.7463 56.7214 41.7331C57.2945 41.7167 57.743 41.242 57.7298 40.6744C57.6489 37.6578 56.0892 34.3416 56.0892 34.3416C55.9788 34.09 55.7688 33.8975 55.5128 33.7991Z" fill="#F4B8D0"/>
</svg>
