<svg width="70" height="70" viewBox="0 0 70 70" fill="none" xmlns="http://www.w3.org/2000/svg">
<path d="M13.4662 33.0568C8.22494 33.0568 3.95166 37.329 3.95166 42.5713C3.95166 46.1129 5.90838 49.2837 8.91182 50.9199C9.71572 51.3552 10.4803 52.3888 10.4803 53.0855L10.4628 58.0883C10.4628 58.644 10.9079 59.0924 11.4624 59.0968H15.471C16.0256 59.0968 16.4784 58.6483 16.474 58.0883L16.462 53.0855C16.4576 52.3888 17.2134 51.3552 18.0217 50.9199C21.0207 49.2837 22.9818 46.1129 22.9818 42.5713C22.9818 37.329 18.7085 33.0568 13.4662 33.0568Z" fill="#3A4D5C"/>
<path d="M10.4714 55.0893L10.4626 58.0883C10.4626 58.644 10.9078 59.0924 11.4623 59.0968H15.4709C16.0255 59.0968 16.4783 58.644 16.4739 58.0883L16.4662 55.0893H10.4714Z" fill="#143441"/>
<path d="M13.4661 33.0568C13.1249 33.0568 12.7913 33.0732 12.4631 33.1082C17.2395 33.6113 20.978 37.6669 20.978 42.5713C20.978 46.1129 19.0169 49.2837 16.0178 50.9199C15.2139 51.3552 14.4581 52.3888 14.4581 53.0855L14.4702 58.0883C14.4745 58.644 14.0217 59.0968 13.4661 59.0968H15.4709C16.0255 59.0968 16.4783 58.644 16.4739 58.0883L16.4619 53.0855C16.4575 52.3888 17.2177 51.3552 18.0216 50.9199C21.0206 49.2837 22.9817 46.1129 22.9817 42.5713C22.9817 37.329 18.7084 33.0568 13.4661 33.0568Z" fill="#143441"/>
<path d="M10.361 57.093C9.80971 57.093 9.36455 57.5415 9.36127 58.0883L9.34814 64.0996C9.34814 65.2579 10.3052 66.2237 11.4624 66.2237H15.471C16.6238 66.2237 17.5808 65.2579 17.5852 64.0996L17.5764 58.0883C17.5764 57.5415 17.128 57.093 16.5767 57.093H10.361Z" fill="#D0E2EE"/>
<path d="M7.95923 42.5713C7.95923 39.5416 10.4333 37.0555 13.4663 37.0555C16.4959 37.0555 18.9744 39.5416 18.9744 42.5713C18.9744 45.601 16.4959 48.0783 13.4663 48.0783C10.4333 48.0783 7.95923 45.5999 7.95923 42.5713Z" fill="#D0E2EE"/>
<path d="M16.2181 37.8026C16.6927 38.6196 16.9706 39.5635 16.9706 40.5676C16.9706 43.5962 14.4921 46.0746 11.4624 46.0746C10.4584 46.0746 9.51884 45.8012 8.70728 45.3265C9.66431 46.9671 11.4373 48.0783 13.4662 48.0783C16.4959 48.0783 18.9743 45.5999 18.9743 42.5713C18.9743 40.5413 17.8587 38.7607 16.2181 37.8026Z" fill="#A8C2E1"/>
<path d="M10.8949 38.2685C10.6936 38.2816 10.5022 38.3538 10.348 38.4741C9.2247 39.3283 8.3147 40.7382 8.3147 42.311C8.3147 42.8622 8.75876 43.3107 9.31001 43.3107C9.86563 43.3151 10.3141 42.8655 10.3184 42.311C10.3184 41.7893 11.0491 40.4604 11.5653 40.0633C12.0061 39.7297 12.087 39.0976 11.7491 38.6622C11.5489 38.3932 11.2284 38.2477 10.8949 38.2685Z" fill="#F6FBFE"/>
<path d="M7.58843 36.3457C7.39155 36.3676 7.2078 36.4485 7.05358 36.5732C7.05358 36.5732 4.48218 38.6962 4.48218 42.2465C4.48655 42.7977 4.93062 43.2418 5.48187 43.2418C6.03312 43.2462 6.48593 42.7977 6.48593 42.2465C6.48593 39.6576 8.33546 38.111 8.33546 38.111C8.75874 37.7566 8.8178 37.1233 8.45905 36.7012C8.24577 36.4441 7.92093 36.3118 7.58843 36.3457Z" fill="#5F8EA2"/>
<path d="M10.8697 57.6738C10.3229 57.6782 9.87332 58.1233 9.87332 58.6746V61.0841C9.86895 61.6387 10.3185 62.0882 10.8697 62.0926C11.4243 62.0882 11.8727 61.6387 11.8694 61.0841V58.6746C11.8694 58.1233 11.4199 57.6782 10.8697 57.6738Z" fill="#F6FBFE"/>
<path d="M61.3178 43.349C64.2797 39.721 66.0483 35.0857 66.0483 30.0446V12.899C66.0483 8.4857 62.4553 4.89273 58.0409 4.89273H55.0331C54.4819 4.89711 54.0378 5.34117 54.0334 5.89242V9.89992C54.0378 10.4512 54.4819 10.8952 55.0331 10.8952H57.0369C58.2378 10.8952 58.9345 11.1512 59.3447 11.5405C59.7505 11.9244 60.0108 12.5698 60.037 13.728V30.0446C60.0414 33.9624 58.5539 37.5171 56.1061 40.1913L61.3178 43.349Z" fill="#D0E2EE"/>
<path d="M32.0097 40.2723C29.5181 37.5893 27.9934 34.0007 27.9934 30.0446V13.728C28.0186 12.5698 28.2876 11.9244 28.6978 11.5405C29.1036 11.1512 29.7916 10.904 30.9969 10.904H33.0006C33.5519 10.904 34.0003 10.4512 34.0003 9.89992V5.89242C33.9959 5.34117 33.5519 4.89711 33.0006 4.89273H29.9972C25.5839 4.89273 21.9822 8.4857 21.9822 12.899V30.0446C21.9822 35.1119 23.7759 39.768 26.7586 43.4004L32.0097 40.2723Z" fill="#D0E2EE"/>
<path d="M30.2794 10.9423C30.4971 10.9204 30.7322 10.904 30.9969 10.904H33.0007C33.5519 10.8996 34.0004 10.4512 33.996 9.89992V5.89242C33.996 5.34117 33.5519 4.89711 33.0007 4.89273H30.2532L30.2794 10.9423Z" fill="#A8C2E1"/>
<path d="M39.8968 3.02131L33.8724 3.76834C32.8125 3.90069 32.001 4.81944 32.001 5.89241V9.89991C32.001 10.9674 32.8125 11.8905 33.8724 12.0185L39.8968 12.7579C41.0069 12.899 42.011 12.0065 42.011 10.8908V4.89272C42.011 3.77709 41.0069 2.88459 39.8968 3.02131Z" fill="#3A4D5C"/>
<path d="M25.6002 44.9382L25.3782 44.4854C25.4121 44.6516 25.4897 44.8102 25.6002 44.9382Z" fill="#3A4D5C"/>
<path d="M57.5158 38.3713C57.0881 39.0122 56.6233 39.6236 56.106 40.1913L61.3177 43.349C61.9083 42.6271 62.4333 41.8538 62.92 41.0586C62.8052 40.9865 62.698 40.9012 62.5744 40.841L57.5158 38.3713Z" fill="#A8C2E1"/>
<path d="M30.5221 38.3669L25.4591 40.841C25.3355 40.9012 25.224 40.9865 25.1091 41.0587C25.6133 41.8746 26.1558 42.661 26.7585 43.4004L32.0096 40.2723C31.4627 39.6827 30.9705 39.0418 30.5221 38.3669Z" fill="#A8C2E1"/>
<path d="M31.7481 39.5548L26.1601 42.2804C25.6986 42.5068 25.3223 42.9432 25.2075 43.4594C25.0915 43.9724 25.2589 44.5368 25.6001 44.9382C28.6167 48.4634 32.68 51.061 37.3197 52.2488C38.3281 52.5091 39.1309 53.5263 39.1309 54.0809V64.0996C39.1265 65.6855 40.4303 66.9926 42.0108 66.9926H46.0183C47.6031 66.9926 48.9025 65.6855 48.9025 64.0996V54.0809C48.9025 53.5263 49.7053 52.5091 50.7137 52.2488C55.3534 51.061 59.4167 48.4634 62.4333 44.9382C62.7756 44.5368 62.9419 43.9724 62.8259 43.4594C62.7111 42.9432 62.3348 42.5068 61.8733 42.2804L56.2809 39.5548C55.3665 39.1063 54.427 39.2857 53.7008 39.9223C51.3886 41.9555 48.3644 43.1904 45.023 43.1904H43.0192C39.6778 43.1904 36.6536 41.9555 34.3381 39.9223C33.6151 39.2901 32.6625 39.1107 31.7481 39.5548Z" fill="#3A4D5C"/>
<path d="M57.785 4.89273H55.0331C54.4819 4.89711 54.0378 5.34117 54.0334 5.89242V9.89992C54.0378 10.4468 54.4819 10.8952 55.0331 10.8996H57.0369C57.307 10.8996 57.5411 10.9127 57.7631 10.9379L57.785 4.89273Z" fill="#A8C2E1"/>
<path d="M48.1424 3.02131C47.0355 2.88459 46.0183 3.77709 46.0183 4.89272V10.8908C46.0183 12.0065 47.0355 12.899 48.1424 12.7579L54.1624 12.0185H54.1657C55.2299 11.8905 56.0371 10.9674 56.0371 9.89991V5.89241C56.0371 4.81944 55.2299 3.90069 54.1657 3.76834L48.1424 3.02131Z" fill="#3A4D5C"/>
<path d="M60.853 41.7849C60.853 42.2038 60.6988 42.6183 60.4297 42.9344C57.4132 46.4596 53.3499 49.0605 48.7146 50.2483C47.7018 50.5054 46.9033 51.5215 46.9033 52.0815V62.0959C46.9033 63.6818 45.5996 64.9888 44.0191 64.9888H40.0072C39.7425 64.9888 39.4943 64.9418 39.2471 64.8729C39.5883 66.0869 40.6996 66.9926 42.011 66.9926H46.0185C47.6033 66.9926 48.9027 65.6855 48.9027 64.0996V54.0852C48.9027 53.5263 49.7055 52.5091 50.7139 52.2488C55.3536 51.0654 59.4169 48.4633 62.4335 44.9382C62.7758 44.5368 62.9421 43.9768 62.8261 43.4594C62.7113 42.9432 62.335 42.5112 61.8735 42.2848L60.853 41.7849Z" fill="#143441"/>
<path d="M27.16 42.8579C26.9041 42.8579 26.6602 42.9476 26.4721 43.1182C26.0619 43.4901 26.028 44.1179 26.3999 44.5324C26.3999 44.5324 28.3992 46.8096 30.1853 47.9668C30.6469 48.2665 31.266 48.1341 31.5646 47.6726C31.8642 47.211 31.7363 46.5919 31.2791 46.2879C29.9666 45.438 27.8819 43.1904 27.8819 43.1904C27.6982 42.9858 27.4378 42.8655 27.16 42.8623V42.8579Z" fill="#5F8EA2"/>
<path d="M33.8812 4.7385C33.3255 4.7385 32.8804 5.19131 32.8804 5.74256V7.49475C32.8847 8.0449 33.3299 8.49006 33.8812 8.49443C34.4313 8.49443 34.8852 8.04928 34.8852 7.49475V5.74256C34.8885 5.18693 34.4357 4.73412 33.8812 4.7385Z" fill="#5F8EA2"/>
<path d="M47.9794 4.7385C47.4238 4.73412 46.971 5.18693 46.9754 5.74256V7.49475C46.9754 8.04928 47.4238 8.49443 47.9794 8.49443C48.5307 8.49006 48.9747 8.0449 48.9791 7.49475V5.74256C48.9791 5.19131 48.5307 4.7385 47.9794 4.7385Z" fill="#5F8EA2"/>
<path d="M24.255 9.62647C23.9433 9.65163 23.6611 9.81897 23.4905 10.0837C22.7128 11.3141 22.5291 12.4418 22.5291 14.6074C22.5291 15.163 22.9775 15.6115 23.5287 15.6115C24.0844 15.6158 24.5372 15.163 24.5328 14.6074C24.5328 12.514 24.5755 12.1213 25.1858 11.1643C25.4811 10.694 25.3444 10.0749 24.8741 9.7796C24.6903 9.66038 24.4726 9.60897 24.255 9.62647Z" fill="#F6FBFE"/>
<path d="M60.9427 9.62647C60.7415 9.61772 60.5446 9.67351 60.3783 9.7796C59.9124 10.0749 59.7713 10.694 60.0666 11.1643C60.678 12.1213 60.7207 12.514 60.7207 14.6074C60.7163 15.163 61.1691 15.6158 61.7247 15.6115C62.2793 15.6115 62.7244 15.163 62.7244 14.6074C62.7244 12.4418 62.5451 11.3141 61.763 10.0837C61.5793 9.80585 61.2719 9.63085 60.9427 9.62647Z" fill="#F6FBFE"/>
<path d="M40.9684 54.1793C40.4128 54.1749 39.9644 54.6277 39.9644 55.1833V58.2294C39.9644 58.7851 40.4128 59.2379 40.9684 59.2379C41.524 59.2335 41.9725 58.7851 41.9681 58.2294V55.1833C41.9725 54.6321 41.524 54.1793 40.9684 54.1793Z" fill="#5F8EA2"/>
</svg>
