<svg width="24" height="24" viewBox="0 0 24 24" fill="none" xmlns="http://www.w3.org/2000/svg">
<path d="M17 12.939C17 13.3208 16.854 13.6465 16.5508 13.9385L7.79102 22.5073C7.55518 22.7544 7.24072 22.8779 6.88135 22.8779C6.15137 22.8779 5.57861 22.3164 5.57861 21.5752C5.57861 21.2158 5.72461 20.8901 5.97168 20.6431L13.8667 12.939L5.97168 5.23486C5.72461 4.97656 5.57861 4.65088 5.57861 4.2915C5.57861 3.56152 6.15137 3 6.88135 3C7.24072 3 7.55518 3.12354 7.79102 3.37061L16.5508 11.9395C16.854 12.2314 16.9888 12.5571 17 12.939Z" fill="#847392"/>
</svg>
