<svg width="12" height="20" viewBox="0 0 12 20" fill="none" xmlns="http://www.w3.org/2000/svg">
<path d="M0.578613 9.93896C0.578613 10.3208 0.724609 10.6465 1.02783 10.9385L9.7876 19.5073C10.0234 19.7544 10.3379 19.8779 10.6973 19.8779C11.4272 19.8779 12 19.3164 12 18.5752C12 18.2158 11.854 17.8901 11.6069 17.6431L3.71191 9.93896L11.6069 2.23486C11.854 1.97656 12 1.65088 12 1.2915C12 0.561523 11.4272 0 10.6973 0C10.3379 0 10.0234 0.123535 9.7876 0.370605L1.02783 8.93945C0.724609 9.23145 0.589844 9.55713 0.578613 9.93896Z" fill="white"/>
</svg>
