<svg width="24" height="24" viewBox="0 0 24 24" fill="none" xmlns="http://www.w3.org/2000/svg">
<g clip-path="url(#clip0_16_2094)">
<path fill-rule="evenodd" clip-rule="evenodd" d="M21.75 6.75C21.75 5.7555 21.3547 4.8015 20.6516 4.09837C19.9485 3.39525 18.9945 3 18 3C14.6707 3 9.32925 3 6 3C5.0055 3 4.0515 3.39525 3.34837 4.09837C2.64525 4.8015 2.25 5.7555 2.25 6.75C2.25 10.0793 2.25 15.4207 2.25 18.75C2.25 19.7445 2.64525 20.6985 3.34837 21.4016C4.0515 22.1047 5.0055 22.5 6 22.5C9.32925 22.5 14.6707 22.5 18 22.5C18.9945 22.5 19.9485 22.1047 20.6516 21.4016C21.3547 20.6985 21.75 19.7445 21.75 18.75V6.75Z" fill="#EAEAEA"/>
<path fill-rule="evenodd" clip-rule="evenodd" d="M21.75 6.74954C21.75 5.75492 21.3548 4.80118 20.6516 4.09794C19.9485 3.39469 18.9945 2.99957 18 2.99957C14.6707 2.99957 9.32925 2.99957 6 2.99957C5.0055 2.99957 4.05149 3.39469 3.34837 4.09794C2.64524 4.80118 2.25 5.75492 2.25 6.74954V10.4995H21.75V6.74954Z" fill="#DA3767"/>
<path fill-rule="evenodd" clip-rule="evenodd" d="M7.5006 7.5H16.5006C16.9146 7.5 17.2507 7.164 17.2507 6.75C17.2507 6.336 16.9146 6 16.5006 6H7.5006C7.0866 6 6.75049 6.336 6.75049 6.75C6.75049 7.164 7.0866 7.5 7.5006 7.5Z" fill="white"/>
<path fill-rule="evenodd" clip-rule="evenodd" d="M8.25 4.49999V2.24999C8.25 1.83599 7.914 1.50018 7.5 1.50018C7.086 1.50018 6.75 1.83599 6.75 2.24999V4.49999C6.75 4.91399 7.086 5.2498 7.5 5.2498C7.914 5.2498 8.25 4.91399 8.25 4.49999Z" fill="#364F6B"/>
<path fill-rule="evenodd" clip-rule="evenodd" d="M17.25 4.49999V2.24999C17.25 1.83599 16.914 1.50018 16.5 1.50018C16.086 1.50018 15.75 1.83599 15.75 2.24999V4.49999C15.75 4.91399 16.086 5.2498 16.5 5.2498C16.914 5.2498 17.25 4.91399 17.25 4.49999Z" fill="#364F6B"/>
<path d="M3.15159 13.0667H6.4416C6.48278 13.0667 6.51833 13.0844 6.54828 13.12C6.57822 13.1556 6.59319 13.1978 6.59319 13.2467V14.32C6.59319 14.3689 6.57822 14.4111 6.54828 14.4467C6.51833 14.4822 6.48278 14.5 6.4416 14.5H5.50962V17.5533C5.50962 17.6022 5.49465 17.6444 5.46471 17.68C5.43476 17.7156 5.3992 17.7333 5.35803 17.7333H4.23516C4.19399 17.7333 4.15843 17.7156 4.12849 17.68C4.09854 17.6444 4.08357 17.6022 4.08357 17.5533V14.5H3.15159C3.11042 14.5 3.07486 14.4822 3.04491 14.4467C3.01497 14.4111 3 14.3689 3 14.32V13.2467C3 13.1978 3.01497 13.1556 3.04491 13.12C3.07486 13.0844 3.11042 13.0667 3.15159 13.0667Z" fill="#332A3A"/>
<path d="M6.87501 16.2267V15.7733C6.87501 15.2667 7.0266 14.8778 7.32977 14.6067C7.63295 14.3356 8.02408 14.2 8.50317 14.2C8.98227 14.2 9.3734 14.3356 9.67658 14.6067C9.97975 14.8778 10.1313 15.2667 10.1313 15.7733V16.2267C10.1313 16.7378 9.98536 17.1289 9.69342 17.4C9.40147 17.6667 9.00472 17.8 8.50317 17.8C8.00162 17.8 7.60487 17.6667 7.31293 17.4C7.02098 17.1289 6.87501 16.7378 6.87501 16.2267ZM8.75582 16.28V15.72C8.75582 15.5511 8.7371 15.4333 8.69968 15.3667C8.66225 15.3 8.59675 15.2667 8.50317 15.2667C8.4096 15.2667 8.3441 15.3 8.30667 15.3667C8.26924 15.4333 8.25053 15.5511 8.25053 15.72V16.28C8.25053 16.4578 8.26924 16.5778 8.30667 16.64C8.3441 16.7022 8.4096 16.7333 8.50317 16.7333C8.59675 16.7333 8.66225 16.7 8.69968 16.6333C8.7371 16.5667 8.75582 16.4489 8.75582 16.28Z" fill="#332A3A"/>
<path d="M10.4423 16.26V15.7333C10.4423 15.2356 10.5546 14.8556 10.7792 14.5933C11.0038 14.3311 11.277 14.2 11.5989 14.2C11.9245 14.2 12.1846 14.3044 12.3793 14.5133V13.18C12.3793 13.1311 12.3942 13.0889 12.4242 13.0533C12.4541 13.0178 12.4897 13 12.5309 13H13.5695C13.6107 13 13.6463 13.0178 13.6762 13.0533C13.7061 13.0889 13.7211 13.1311 13.7211 13.18V17.5533C13.7211 17.6022 13.7061 17.6444 13.6762 17.68C13.6463 17.7156 13.6107 17.7333 13.5695 17.7333H12.6151C12.5739 17.7333 12.5384 17.7156 12.5084 17.68C12.4785 17.6444 12.4635 17.6022 12.4635 17.5533V17.3533C12.2689 17.6511 11.9938 17.8 11.6382 17.8C11.2826 17.8 10.9944 17.6756 10.7736 17.4267C10.5527 17.1733 10.4423 16.7844 10.4423 16.26ZM12.3793 16.22V15.7267C12.368 15.5044 12.2745 15.3933 12.0986 15.3933C11.9114 15.3933 11.8178 15.5222 11.8178 15.78V16.22C11.8178 16.4778 11.9114 16.6067 12.0986 16.6067C12.2857 16.6067 12.3793 16.4778 12.3793 16.22Z" fill="#332A3A"/>
<path d="M14.1138 16.74C14.1138 16.14 14.5237 15.7556 15.3434 15.5867L15.9385 15.4733C15.9385 15.34 15.9291 15.2511 15.9104 15.2067C15.8917 15.1578 15.8468 15.1333 15.7757 15.1333C15.7083 15.1333 15.6409 15.1689 15.5735 15.24C15.5062 15.3111 15.4425 15.3467 15.3827 15.3467H14.4282C14.3459 15.3467 14.3047 15.3 14.3047 15.2067C14.3047 15.1089 14.3328 15.0067 14.3889 14.9C14.4488 14.7889 14.533 14.68 14.6416 14.5733C14.7538 14.4667 14.9092 14.3778 15.1075 14.3067C15.3097 14.2356 15.5342 14.2 15.7813 14.2C16.2828 14.2 16.659 14.3244 16.9098 14.5733C17.1605 14.8222 17.2859 15.1778 17.2859 15.64V17.5533C17.2859 17.6022 17.271 17.6444 17.241 17.68C17.2111 17.7156 17.1755 17.7333 17.1343 17.7333H16.1518C16.1107 17.7333 16.0751 17.7156 16.0451 17.68C16.0152 17.6444 16.0002 17.6022 16.0002 17.5533V17.3667C15.8243 17.6556 15.5679 17.8 15.2311 17.8C14.8942 17.8 14.6228 17.7 14.417 17.5C14.2149 17.2956 14.1138 17.0422 14.1138 16.74ZM15.5904 16.8133C15.8337 16.8133 15.9553 16.64 15.9553 16.2933L15.6241 16.38C15.4594 16.4244 15.377 16.5067 15.377 16.6267C15.377 16.68 15.3958 16.7244 15.4332 16.76C15.4706 16.7956 15.523 16.8133 15.5904 16.8133Z" fill="#332A3A"/>
<path d="M17.6763 14.2667H18.6251C18.7112 14.2667 18.7711 14.32 18.8048 14.4267L19.2652 15.9467L19.7424 14.4267C19.7798 14.32 19.8434 14.2667 19.9333 14.2667H20.8709C20.9046 14.2667 20.9345 14.2822 20.9607 14.3133C20.9869 14.34 21 14.3689 21 14.4C21 14.4311 20.9981 14.4556 20.9944 14.4733L19.4111 18.84C19.3737 18.9467 19.3082 19 19.2146 19H18.2939C18.2602 19 18.2302 18.9867 18.204 18.96C18.1816 18.9333 18.1704 18.9 18.1704 18.86C18.1704 18.8244 18.1722 18.8022 18.176 18.7933L18.6251 17.5133L17.5416 14.4733C17.5378 14.46 17.5359 14.4444 17.5359 14.4267C17.5509 14.32 17.5977 14.2667 17.6763 14.2667Z" fill="#332A3A"/>
</g>
<defs>
<clipPath id="clip0_16_2094">
<rect width="24" height="24" fill="white"/>
</clipPath>
</defs>
</svg>
