<svg width="32" height="32" viewBox="0 0 32 32" fill="none" xmlns="http://www.w3.org/2000/svg">
<path d="M3.48932 23.8987C3.24564 23.7978 3.03737 23.6269 2.89092 23.4076C2.74446 23.1882 2.66641 22.9304 2.66666 22.6667V6.66666C2.66666 5.60579 3.08808 4.58838 3.83823 3.83823C4.58838 3.08808 5.60579 2.66666 6.66666 2.66666H20C21.0609 2.66666 22.0783 3.08808 22.8284 3.83823C23.5786 4.58838 24 5.60579 24 6.66666V15.8307C24 16.8915 23.5786 17.9089 22.8284 18.6591C22.0783 19.4092 21.0609 19.8307 20 19.8307H8.71732L4.94266 23.6093C4.7562 23.7959 4.51859 23.923 4.25989 23.9745C4.00119 24.026 3.73302 23.9996 3.48932 23.8987Z" fill="#FFB103"/>
<mask id="mask0_16_19818" style="mask-type:alpha" maskUnits="userSpaceOnUse" x="2" y="2" width="22" height="23">
<path d="M3.48942 23.8987C3.24573 23.7979 3.03746 23.627 2.89101 23.4077C2.74456 23.1883 2.66651 22.9305 2.66675 22.6667V6.66675C2.66675 5.60588 3.08818 4.58847 3.83832 3.83832C4.58847 3.08818 5.60588 2.66675 6.66675 2.66675H20.0001C21.0609 2.66675 22.0784 3.08818 22.8285 3.83832C23.5787 4.58847 24.0001 5.60588 24.0001 6.66675V15.8307C24.0001 16.8916 23.5787 17.909 22.8285 18.6592C22.0784 19.4093 21.0609 19.8307 20.0001 19.8307H8.71742L4.94275 23.6094C4.75629 23.796 4.51868 23.9231 4.25998 23.9746C4.00128 24.0261 3.73311 23.9997 3.48942 23.8987Z" fill="#FFB103"/>
</mask>
<g mask="url(#mask0_16_19818)">
<path d="M29.4286 31C29.0118 30.9999 28.6122 30.8343 28.3176 30.5396L24.587 26.809H13.7143C12.4644 26.8078 11.266 26.3107 10.3822 25.4268C9.49833 24.543 9.00125 23.3446 9 22.0947V13.7143C9.00125 12.4644 9.49833 11.266 10.3822 10.3822C11.266 9.49833 12.4644 9.00125 13.7143 9H26.2857C27.5356 9.00125 28.734 9.49833 29.6178 10.3822C30.5017 11.266 30.9988 12.4644 31 13.7143V29.4286C31 29.8453 30.8344 30.245 30.5397 30.5397C30.245 30.8344 29.8453 31 29.4286 31Z" fill="#F6FBFE"/>
</g>
<path d="M28 29.3333C27.6464 29.3332 27.3073 29.1927 27.0573 28.9427L23.892 25.7773H14.6667C13.6061 25.7763 12.5893 25.3545 11.8394 24.6046C11.0895 23.8547 10.6677 22.8379 10.6667 21.7773V14.6667C10.6677 13.6061 11.0895 12.5893 11.8394 11.8394C12.5893 11.0895 13.6061 10.6677 14.6667 10.6667H25.3333C26.3939 10.6677 27.4107 11.0895 28.1606 11.8394C28.9105 12.5893 29.3323 13.6061 29.3333 14.6667V28C29.3333 28.3536 29.1928 28.6928 28.9428 28.9428C28.6928 29.1928 28.3536 29.3333 28 29.3333Z" fill="#1EAFF9"/>
</svg>
