<svg width="16" height="16" viewBox="0 0 16 16" fill="none" xmlns="http://www.w3.org/2000/svg">
<g clip-path="url(#clip0_16_2043)">
<path d="M3.26389 2.46399L2.43189 3.29599C-0.416111 6.14399 -0.416111 10.72 2.43189 13.568C5.27989 16.416 9.85589 16.416 12.7039 13.568L13.5359 12.736L3.26389 2.46399Z" fill="#F19520"/>
<path d="M1.15193 7.58401C1.15193 11.5958 4.40413 14.848 8.41593 14.848C12.4277 14.848 15.6799 11.5958 15.6799 7.58401C15.6799 3.57221 12.4277 0.320007 8.41593 0.320007C4.40413 0.320007 1.15193 3.57221 1.15193 7.58401Z" fill="#F8E452"/>
<path d="M3.58405 7.58401C3.58405 10.2527 5.74741 12.416 8.41605 12.416C11.0847 12.416 13.248 10.2527 13.248 7.58401C13.248 4.91537 11.0847 2.75201 8.41605 2.75201C5.74741 2.75201 3.58405 4.91537 3.58405 7.58401Z" fill="#F19520"/>
<path d="M13.568 12.704C10.72 15.552 6.14399 15.552 3.29598 12.704C1.11999 10.528 0.607985 7.328 1.75999 4.672C3.13599 6.592 5.56799 8.384 8.63999 9.44C10.944 10.24 13.184 10.496 15.136 10.304C14.784 11.2 14.272 12 13.568 12.704Z" fill="#EFD745"/>
<path d="M3.58405 7.58401C3.58405 10.2527 5.74741 12.416 8.41605 12.416C11.0847 12.416 13.248 10.2527 13.248 7.58401C13.248 4.91537 11.0847 2.75201 8.41605 2.75201C5.74741 2.75201 3.58405 4.91537 3.58405 7.58401Z" fill="#F19520"/>
<path d="M13.1841 8.44802C13.0241 7.52002 12.5761 6.62402 11.8401 5.92002C9.95209 4.03202 6.91209 4.03202 5.02409 5.92002C4.32009 6.62402 3.87209 7.52002 3.68009 8.44802C3.39209 6.94402 3.84009 5.31202 5.02409 4.16002C6.91209 2.27202 9.95209 2.27202 11.8401 4.16002C12.9921 5.31202 13.4401 6.94402 13.1841 8.44802Z" fill="#D06D28"/>
<path d="M11.2208 8.9587L11.7186 6.56019C11.7639 6.33392 11.515 6.17553 11.3113 6.28867C10.904 6.56019 10.3157 7.01274 9.84055 7.62368C9.75005 7.75945 9.5464 7.69156 9.50114 7.5558C9.34275 6.76384 8.93546 6.03976 8.68656 5.70035C8.57342 5.54196 8.34715 5.54196 8.27926 5.70035C8.03036 6.08502 7.62307 6.76384 7.46468 7.5558C7.44205 7.71419 7.21577 7.75945 7.12526 7.62368C6.65009 7.01274 6.06178 6.56019 5.65448 6.28866C5.47346 6.1529 5.20193 6.33392 5.24719 6.56019C5.38295 7.23902 5.63186 8.34776 5.74499 8.9587C5.81287 9.2076 6.03915 9.38862 6.26542 9.38862L10.6099 9.38862C10.9493 9.36599 11.1756 9.18497 11.2208 8.9587Z" fill="#F8E452"/>
<path opacity="0.2" d="M11.8378 4.1532C12.5001 4.81552 13.422 4.96746 13.8969 4.49257C14.3717 4.01769 14.2198 3.0958 13.5574 2.43349C12.8951 1.77117 11.9732 1.61922 11.4983 2.09411C11.0235 2.569 11.1754 3.49088 11.8378 4.1532Z" fill="white"/>
<path opacity="0.2" d="M3.29383 12.6972C3.95617 13.3595 4.87806 13.5115 5.35293 13.0366C5.8278 12.5617 5.67582 11.6398 5.01348 10.9775C4.35114 10.3152 3.42925 10.1632 2.95438 10.6381C2.47951 11.113 2.63149 12.0349 3.29383 12.6972Z" fill="white"/>
<path opacity="0.2" d="M12.7475 3.25656C13.0599 3.56897 13.4955 3.63988 13.7204 3.41493C13.9454 3.18999 13.8745 2.75437 13.562 2.44196C13.2496 2.12954 12.814 2.05864 12.5891 2.28358C12.3641 2.50853 12.435 2.94414 12.7475 3.25656Z" fill="white"/>
</g>
<defs>
<clipPath id="clip0_16_2043">
<rect width="16" height="16" fill="white" transform="translate(16) rotate(90)"/>
</clipPath>
</defs>
</svg>
