<svg width="32" height="32" viewBox="0 0 32 32" fill="none" xmlns="http://www.w3.org/2000/svg">
<path d="M25.3333 16.6667H28C28 9.68267 22.3173 4 15.3333 4V6.66667C20.848 6.66667 25.3333 11.152 25.3333 16.6667ZM21.3333 16.6667H24C24 11.888 20.112 8 15.3333 8V10.6667C18.6413 10.6667 21.3333 13.3587 21.3333 16.6667ZM26.0747 19.7533C24.6208 19.756 23.1759 19.526 21.7947 19.072C21.1133 18.8387 20.12 19.2467 19.892 19.472C19.2747 20.0853 17.524 21.8347 17.524 21.8347C14.3988 20.1607 11.8417 17.5957 10.1773 14.4653C10.1773 14.4653 11.8627 12.7667 12.4667 12.1773C12.848 11.804 13.164 10.916 12.944 10.212C12.4883 8.82883 12.2569 7.38164 12.2587 5.92533C12.2587 4.864 11.3947 4 10.3333 4H5.92533C4.864 4 4 4.864 4 5.92533C4 18.0987 13.9027 28 26.0747 28C27.136 28 28 27.136 28 26.0747V21.6787C28 20.6173 27.136 19.7533 26.0747 19.7533Z" fill="#77C900"/>
<path opacity="0.1" d="M25.3333 16.6667C25.3333 11.152 20.848 6.66667 15.3333 6.66667V4C22.3173 4 28 9.68267 28 16.6667H25.3333ZM12.4667 12.1773C12.848 11.804 13.164 10.916 12.944 10.212C12.4883 8.82883 12.2569 7.38164 12.2587 5.92533C12.2587 4.864 11.3947 4 10.3333 4H5.92533C4.864 4 4 4.864 4 5.92533C4 10.1347 5.20533 14.0587 7.25733 17.4093C7.25733 17.4093 11.864 12.7667 12.4667 12.1773ZM26.0747 19.7533C24.6208 19.756 23.1759 19.526 21.7947 19.072C21.1133 18.8387 20.12 19.2467 19.892 19.472L14.5907 24.7427C18.0434 26.8705 22.019 27.9981 26.0747 28C27.136 28 28 27.136 28 26.0747V21.6787C28 20.6173 27.136 19.7533 26.0747 19.7533Z" fill="black"/>
</svg>
