<svg width="40" height="40" viewBox="0 0 40 40" fill="none" xmlns="http://www.w3.org/2000/svg">
<g clip-path="url(#clip0_16_1514)">
<path d="M27.9902 23.9913C28.5203 23.9913 29.0287 24.2019 29.4036 24.5768C29.7785 24.9517 29.9891 25.4601 29.9891 25.9902C29.9891 26.5204 29.7785 27.0288 29.4036 27.4037C29.0287 27.7785 28.5203 27.9891 27.9902 27.9891H11.9989C11.4688 27.9891 10.9603 27.7785 10.5855 27.4037C10.2106 27.0288 10 26.5204 10 25.9902C10 25.4601 10.2106 24.9517 10.5855 24.5768C10.9603 24.2019 11.4688 23.9913 11.9989 23.9913V15.9957C11.9989 13.8751 12.8413 11.8414 14.3408 10.3419C15.8402 8.84246 17.874 8.00006 19.9945 8.00006C22.1151 8.00006 24.1488 8.84246 25.6483 10.3419C27.1478 11.8414 27.9902 13.8751 27.9902 15.9957V23.9913Z" stroke="white" stroke-width="2"/>
<path d="M22.9928 27.9891V28.9886C22.9928 29.7838 22.6769 30.5464 22.1146 31.1087C21.5523 31.6711 20.7897 31.987 19.9945 31.987C19.1992 31.987 18.4366 31.6711 17.8743 31.1087C17.312 30.5464 16.9961 29.7838 16.9961 28.9886V27.9891H22.9928Z" stroke="white" stroke-width="2"/>
<path d="M22.9928 27.9891V28.9885C22.9928 29.7837 22.6769 30.5464 22.1146 31.1087C21.5523 31.671 20.7897 31.9869 19.9945 31.9869C19.1992 31.9869 18.4366 31.671 17.8743 31.1087C17.312 30.5464 16.9961 29.7837 16.9961 28.9885V27.9891H22.9928Z" fill="#FE8205"/>
<path d="M19.9945 30.9874C19.1992 30.9874 18.4366 30.6715 17.8743 30.1092C17.312 29.5469 16.9961 28.7843 16.9961 27.9891V28.9885C16.9961 29.7837 17.312 30.5464 17.8743 31.1087C18.4366 31.671 19.1992 31.9869 19.9945 31.9869C20.7897 31.9869 21.5523 31.671 22.1146 31.1087C22.6769 30.5464 22.9928 29.7837 22.9928 28.9885V27.9891C22.9928 28.7843 22.6769 29.5469 22.1146 30.1092C21.5523 30.6715 20.7897 30.9874 19.9945 30.9874Z" fill="#FFB13B"/>
<path d="M27.9902 23.9913C28.5203 23.9913 29.0287 24.2019 29.4036 24.5768C29.7785 24.9517 29.9891 25.4601 29.9891 25.9902C29.9891 26.5204 29.7785 27.0288 29.4036 27.4037C29.0287 27.7785 28.5203 27.9891 27.9902 27.9891H11.9989C11.4688 27.9891 10.9603 27.7785 10.5855 27.4037C10.2106 27.0288 10 26.5204 10 25.9902C10 25.4601 10.2106 24.9517 10.5855 24.5768C10.9603 24.2019 11.4688 23.9913 11.9989 23.9913V15.9957C11.9989 13.8751 12.8413 11.8414 14.3408 10.3419C15.8402 8.84246 17.874 8.00006 19.9945 8.00006C22.1151 8.00006 24.1488 8.84246 25.6483 10.3419C27.1478 11.8414 27.9902 13.8751 27.9902 15.9957V23.9913Z" fill="#FFD747"/>
<path d="M12.9984 25.9902C12.9999 25.4606 13.211 24.953 13.5856 24.5785C13.9601 24.204 14.4676 23.9929 14.9973 23.9913V15.9957C14.998 14.1358 15.6471 12.3343 16.8328 10.9014C18.0186 9.46842 19.6668 8.4937 21.4937 8.14496C20.3375 7.92153 19.1461 7.95675 18.0051 8.2481C16.864 8.53946 15.8016 9.07973 14.8941 9.83015C13.9865 10.5806 13.2562 11.5226 12.7557 12.5885C12.2551 13.6545 11.9967 14.818 11.9989 15.9957V23.9913C11.4688 23.9913 10.9603 24.2019 10.5855 24.5768C10.2106 24.9516 10 25.4601 10 25.9902C10 26.5204 10.2106 27.0288 10.5855 27.4037C10.9603 27.7785 11.4688 27.9891 11.9989 27.9891H14.9973C14.4676 27.9875 13.9601 27.7764 13.5856 27.4019C13.211 27.0274 12.9999 26.5199 12.9984 25.9902Z" fill="#FFB13B"/>
<path d="M27.4844 26.5093C27.8063 26.1872 27.7038 25.563 27.2556 25.1151C26.8074 24.6671 26.1831 24.5652 25.8612 24.8873C25.5393 25.2094 25.6417 25.8336 26.0899 26.2816C26.5382 26.7295 27.1625 26.8315 27.4844 26.5093Z" fill="#F6FAFD"/>
<path d="M24.8253 25.6047C24.9864 25.4435 24.9354 25.1312 24.7113 24.9073C24.4872 24.6833 24.1748 24.6325 24.0137 24.7937C23.8526 24.955 23.9036 25.2672 24.1277 25.4912C24.3518 25.7152 24.6642 25.766 24.8253 25.6047Z" fill="#F6FAFD"/>
<rect width="40" height="40" rx="20" fill="#B876E3"/>
<rect x="2" y="3" width="37" height="37" rx="18.5" fill="#CD81FF"/>
<rect x="1" y="1" width="38" height="38" rx="19" stroke="#F8E452" stroke-width="2"/>
</g>
<defs>
<clipPath id="clip0_16_1514">
<rect width="40" height="40" fill="white"/>
</clipPath>
</defs>
</svg>
