<svg width="24" height="24" viewBox="0 0 24 24" fill="none" xmlns="http://www.w3.org/2000/svg">
<path d="M19.86 12.08C19.86 13.02 19.68 13.94 19.22 14.74C18.42 16.12 19.88 18.26 19.68 18.84C19.48 19.4 16.08 17.96 15.1 18.32C14.06 18.7 13.04 18.84 11.82 18.84C7.38 18.84 3.76 15.82 3.76 12.08C3.76 8.34001 7.36 5.32001 11.82 5.32001C16.28 5.32001 19.86 8.34001 19.86 12.08Z" fill="#FBB03B"/>
<path opacity="0.1" d="M15.58 18.14C14.54 18.52 13.52 18.66 12.3 18.66C7.86 18.66 4.24 15.64 4.24 11.9C4.24 9.14 6.22 6.76 9.06 5.7C5.96 6.64 3.76 9.14 3.76 12.06C3.76 15.8 7.36 18.82 11.82 18.82C13.02 18.82 14.06 18.68 15.1 18.3C16.08 17.94 19.48 19.4 19.68 18.82C19.68 18.8 19.68 18.8 19.7 18.78C18.66 18.72 16.38 17.86 15.58 18.14Z" fill="black"/>
<path opacity="0.1" d="M11.58 8.94L12.42 10.38L14.04 10.74L12.84 11.9L13.1 13.64L11.58 12.86L10.06 13.64L10.34 11.96L9.12 10.74L10.78 10.36L11.58 8.94ZM7.54 10.3L8.12 11.32L9.28 11.58L8.42 12.4L8.62 13.64L7.54 13.08L6.44 13.64L6.66 12.44L5.78 11.58L6.96 11.32L7.54 10.3ZM15.62 10.3L16.22 11.32L17.38 11.58L16.52 12.4L16.72 13.64L15.62 13.08L14.54 13.64L14.76 12.44L13.88 11.58L15.06 11.32L15.62 10.3Z" fill="black"/>
<path d="M11.82 8.94L12.66 10.38L14.28 10.74L13.08 11.9L13.34 13.64L11.82 12.86L10.3 13.64L10.58 11.96L9.34 10.74L11.02 10.36L11.82 8.94ZM7.76 10.3L8.36 11.32L9.52 11.58L8.66 12.4L8.86 13.64L7.76 13.08L6.68 13.64L6.9 12.44L6.02 11.58L7.2 11.32L7.76 10.3ZM15.86 10.3L16.46 11.32L17.62 11.58L16.76 12.4L16.96 13.64L15.86 13.08L14.78 13.64L15 12.44L14.12 11.58L15.3 11.32L15.86 10.3Z" fill="white"/>
</svg>
