<svg width="24" height="24" viewBox="0 0 24 24" fill="none" xmlns="http://www.w3.org/2000/svg">
<path d="M14.7451 19.755C14.7451 20.2979 14.5841 20.8286 14.2825 21.28C13.9809 21.7315 13.5522 22.0833 13.0506 22.2911C12.549 22.4988 11.9971 22.5532 11.4646 22.4473C10.9321 22.3413 10.443 22.0799 10.0591 21.696C9.67522 21.3121 9.41379 20.823 9.30787 20.2905C9.20196 19.758 9.25632 19.2061 9.46408 18.7045C9.67184 18.203 10.0237 17.7742 10.4751 17.4726C10.9265 17.171 11.4572 17.01 12.0001 17.01C12.7281 17.01 13.4263 17.2992 13.9411 17.814C14.4559 18.3288 14.7451 19.027 14.7451 19.755Z" fill="#F4B442"/>
<path d="M21.1426 18.99C21 19.2264 20.797 19.4206 20.5544 19.5524C20.3119 19.6842 20.0385 19.749 19.7626 19.74H4.23758C3.93067 19.7643 3.62372 19.6936 3.35838 19.5374C3.09304 19.3813 2.88218 19.1473 2.75441 18.8672C2.62665 18.5871 2.58816 18.2744 2.64419 17.9717C2.70021 17.669 2.84803 17.3908 3.06758 17.175L4.39508 15.75C4.52458 15.6117 4.59693 15.4295 4.59758 15.24V9.585C4.59758 8.12896 5.17599 6.73256 6.20557 5.70298C7.23514 4.67341 8.63154 4.095 10.0876 4.095V3.4125C10.0876 2.90527 10.2891 2.41882 10.6477 2.06016C11.0064 1.70149 11.4929 1.5 12.0001 1.5C12.5073 1.5 12.9938 1.70149 13.3524 2.06016C13.7111 2.41882 13.9126 2.90527 13.9126 3.4125V4.095C15.3686 4.095 16.765 4.67341 17.7946 5.70298C18.8242 6.73256 19.4026 8.12896 19.4026 9.585V15.24C19.4032 15.4295 19.4756 15.6117 19.6051 15.75L20.9326 17.175C21.155 17.4165 21.2951 17.7222 21.3329 18.0483C21.3706 18.3744 21.304 18.7041 21.1426 18.99Z" fill="#FFD066"/>
</svg>
