<svg width="24" height="24" viewBox="0 0 24 24" fill="none" xmlns="http://www.w3.org/2000/svg">
<path d="M12 2.39999C10.1013 2.39999 8.24524 2.96302 6.66653 4.01789C5.08782 5.07275 3.85736 6.57206 3.13076 8.32623C2.40416 10.0804 2.21405 12.0106 2.58447 13.8729C2.95488 15.7351 3.86919 17.4456 5.21178 18.7882C6.55436 20.1308 8.26492 21.0451 10.1271 21.4155C11.9894 21.7859 13.9196 21.5958 15.6738 20.8692C17.4279 20.1426 18.9272 18.9122 19.9821 17.3335C21.037 15.7548 21.6 13.8987 21.6 12C21.6 9.45391 20.5886 7.01212 18.7882 5.21177C16.9879 3.41142 14.5461 2.39999 12 2.39999ZM12 20.1119C10.3956 20.1119 8.82728 19.6361 7.49328 18.7448C6.15929 17.8534 5.11957 16.5865 4.5056 15.1043C3.89164 13.622 3.73099 11.991 4.04399 10.4174C4.35699 8.84389 5.12957 7.39849 6.26404 6.26403C7.39851 5.12956 8.8439 4.35698 10.4175 4.04398C11.991 3.73098 13.622 3.89163 15.1043 4.50559C16.5865 5.11956 17.8534 6.15928 18.7448 7.49327C19.6361 8.82727 20.1119 10.3956 20.1119 12C20.1108 14.1511 19.2558 16.2137 17.7348 17.7348C16.2137 19.2558 14.1511 20.1108 12 20.1119Z" fill="#DD5865"/>
<path d="M13.0919 7.11126H10.9527C10.8455 7.11126 10.7426 7.15386 10.6668 7.2297C10.591 7.30553 10.5484 7.40839 10.5484 7.51564V10.0673C10.5484 10.1745 10.5058 10.2774 10.4299 10.3532C10.3541 10.4291 10.2512 10.4717 10.144 10.4717H7.51551C7.40826 10.4717 7.30541 10.5143 7.22957 10.5901C7.15373 10.6659 7.11113 10.7688 7.11113 10.876V13.0152C7.11113 13.1225 7.15373 13.2253 7.22957 13.3012C7.30541 13.377 7.40826 13.4196 7.51551 13.4196H10.1399C10.2472 13.4196 10.35 13.4622 10.4259 13.538C10.5017 13.6139 10.5443 13.7167 10.5443 13.824V16.4727C10.5443 16.5799 10.5869 16.6828 10.6628 16.7586C10.7386 16.8344 10.8415 16.8771 10.9487 16.8771H13.0919C13.1992 16.8771 13.302 16.8344 13.3779 16.7586C13.4537 16.6828 13.4963 16.5799 13.4963 16.4727V13.8361C13.4963 13.7289 13.5389 13.626 13.6147 13.5502C13.6906 13.4743 13.7934 13.4317 13.9007 13.4317H16.4806C16.5879 13.4317 16.6907 13.3891 16.7666 13.3133C16.8424 13.2375 16.885 13.1346 16.885 13.0273V10.8801C16.885 10.7728 16.8424 10.67 16.7666 10.5941C16.6907 10.5183 16.5879 10.4757 16.4806 10.4757H13.9047C13.7975 10.4757 13.6946 10.4331 13.6188 10.3573C13.5429 10.2814 13.5003 10.1786 13.5003 10.0713V7.51968C13.5009 7.4659 13.4907 7.41254 13.4704 7.36275C13.45 7.31295 13.42 7.26771 13.3819 7.22968C13.3439 7.19164 13.2987 7.16158 13.2489 7.14124C13.1991 7.12091 13.1457 7.11072 13.0919 7.11126Z" fill="#DD5865"/>
</svg>
