<svg width="24" height="24" viewBox="0 0 24 24" fill="none" xmlns="http://www.w3.org/2000/svg">
<path fill-rule="evenodd" clip-rule="evenodd" d="M3.46952 13.3973L9.59684 8.20726L15.3457 14.9944L9.21842 20.1844C7.35196 21.7654 4.53135 21.5318 2.9504 19.6653L2.95038 19.6653C1.36943 17.7988 1.60304 14.9782 3.46952 13.3973Z" fill="#199CE9"/>
<path fill-rule="evenodd" clip-rule="evenodd" d="M9.12549 8.60652L14.7815 3.81575C16.648 2.2348 19.4686 2.46841 21.0495 4.33488L21.0495 4.33491C22.6305 6.20138 22.3969 9.022 20.5304 10.6029L14.8744 15.3937L9.12549 8.60652Z" fill="#C72D5D"/>
<path fill-rule="evenodd" clip-rule="evenodd" d="M3.46951 13.3972L9.59683 8.20725L12.4713 11.6009L2.95041 19.6653L2.95037 19.6653C1.36943 17.7988 1.60303 14.9782 3.46951 13.3972Z" fill="#43C2FE"/>
<path fill-rule="evenodd" clip-rule="evenodd" d="M9.12549 8.60652L14.7815 3.81575C16.648 2.2348 19.4686 2.46841 21.0495 4.33488L21.0496 4.33493L12 12.0001L9.12549 8.60652Z" fill="#DA3767"/>
<path fill-rule="evenodd" clip-rule="evenodd" d="M18.4234 5.03811C18.4934 5.09091 18.5718 5.11145 18.6591 5.06898C18.8083 4.99647 18.9067 4.7891 18.7599 4.67652C17.1124 3.41353 15.2341 5.15033 13.944 6.24306C13.6378 6.50241 13.8485 6.92545 14.2406 6.59331C15.2845 5.70912 16.9974 3.96252 18.4234 5.03811Z" fill="white"/>
</svg>
