<svg width="24" height="24" viewBox="0 0 24 24" fill="none" xmlns="http://www.w3.org/2000/svg">
<g clip-path="url(#clip0_16_19903)">
<path d="M12 22.125C17.5919 22.125 22.125 17.5919 22.125 12C22.125 6.40812 17.5919 1.875 12 1.875C6.40812 1.875 1.875 6.40812 1.875 12C1.875 17.5919 6.40812 22.125 12 22.125Z" fill="white"/>
<path d="M3.375 12C3.376 9.4458 4.34294 6.98648 6.08178 5.11555C7.82063 3.24462 10.2027 2.10053 12.75 1.91286C12.5015 1.89459 12.2532 1.875 12 1.875C9.31468 1.875 6.73935 2.94174 4.84054 4.84054C2.94174 6.73935 1.875 9.31468 1.875 12C1.875 14.6853 2.94174 17.2607 4.84054 19.1595C6.73935 21.0583 9.31468 22.125 12 22.125C12.2532 22.125 12.5015 22.1054 12.75 22.0871C10.2027 21.8995 7.82063 20.7554 6.08179 18.8844C4.34295 17.0135 3.37601 14.5542 3.375 12Z" fill="#E0E0E2"/>
<path d="M12 4.5C11.9507 4.50003 11.902 4.49035 11.8565 4.47151C11.8109 4.45268 11.7696 4.42506 11.7348 4.39023C11.6999 4.3554 11.6723 4.31405 11.6535 4.26854C11.6347 4.22303 11.625 4.17425 11.625 4.125V2.625C11.625 2.52554 11.6645 2.43016 11.7348 2.35984C11.8052 2.28951 11.9005 2.25 12 2.25C12.0995 2.25 12.1948 2.28951 12.2652 2.35984C12.3355 2.43016 12.375 2.52554 12.375 2.625V4.125C12.375 4.17425 12.3653 4.22303 12.3465 4.26854C12.3277 4.31405 12.3001 4.3554 12.2652 4.39023C12.2304 4.42506 12.1891 4.45268 12.1435 4.47151C12.098 4.49035 12.0493 4.50003 12 4.5ZM12 21.75C11.9507 21.75 11.902 21.7403 11.8565 21.7215C11.8109 21.7027 11.7696 21.6751 11.7348 21.6402C11.6999 21.6054 11.6723 21.5641 11.6535 21.5185C11.6347 21.473 11.625 21.4243 11.625 21.375V19.875C11.625 19.7755 11.6645 19.6802 11.7348 19.6098C11.8052 19.5395 11.9005 19.5 12 19.5C12.0995 19.5 12.1948 19.5395 12.2652 19.6098C12.3355 19.6802 12.375 19.7755 12.375 19.875V21.375C12.375 21.4243 12.3653 21.473 12.3465 21.5185C12.3277 21.5641 12.3001 21.6054 12.2652 21.6402C12.2304 21.6751 12.1891 21.7027 12.1435 21.7215C12.098 21.7403 12.0493 21.75 12 21.75ZM4.125 12.375H2.625C2.52554 12.375 2.43016 12.3355 2.35984 12.2652C2.28951 12.1948 2.25 12.0995 2.25 12C2.25 11.9005 2.28951 11.8052 2.35984 11.7348C2.43016 11.6645 2.52554 11.625 2.625 11.625H4.125C4.22446 11.625 4.31984 11.6645 4.39016 11.7348C4.46049 11.8052 4.5 11.9005 4.5 12C4.5 12.0995 4.46049 12.1948 4.39016 12.2652C4.31984 12.3355 4.22446 12.375 4.125 12.375ZM21.375 12.375H19.875C19.7755 12.375 19.6802 12.3355 19.6098 12.2652C19.5395 12.1948 19.5 12.0995 19.5 12C19.5 11.9005 19.5395 11.8052 19.6098 11.7348C19.6802 11.6645 19.7755 11.625 19.875 11.625H21.375C21.4745 11.625 21.5698 11.6645 21.6402 11.7348C21.7105 11.8052 21.75 11.9005 21.75 12C21.75 12.0995 21.7105 12.1948 21.6402 12.2652C21.5698 12.3355 21.4745 12.375 21.375 12.375ZM6.4314 6.8064C6.38215 6.80646 6.33337 6.79678 6.28787 6.77793C6.24236 6.75908 6.20104 6.73142 6.16626 6.69654L5.10572 5.63599C5.03657 5.56543 4.99806 5.47044 4.99856 5.37165C4.99906 5.27286 5.03852 5.17826 5.10838 5.1084C5.17823 5.03855 5.27284 4.99908 5.37162 4.99858C5.47041 4.99808 5.56541 5.03659 5.63596 5.10574L6.69653 6.16626C6.74897 6.2187 6.78467 6.28552 6.79914 6.35826C6.8136 6.43099 6.80618 6.50638 6.7778 6.5749C6.74942 6.64342 6.70136 6.70198 6.63971 6.74319C6.57805 6.78439 6.50556 6.80639 6.4314 6.8064ZM18.6292 19.0042C18.5799 19.0042 18.5311 18.9945 18.4856 18.9757C18.4401 18.9568 18.3988 18.9292 18.364 18.8943L17.3035 17.8337C17.2343 17.7632 17.1958 17.6682 17.1963 17.5694C17.1968 17.4706 17.2363 17.376 17.3061 17.3062C17.376 17.2363 17.4706 17.1968 17.5694 17.1963C17.6682 17.1958 17.7632 17.2344 17.8337 17.3035L18.8943 18.364C18.9467 18.4165 18.9824 18.4833 18.9969 18.556C19.0113 18.6288 19.0039 18.7042 18.9755 18.7727C18.9472 18.8412 18.8991 18.8998 18.8374 18.941C18.7758 18.9822 18.7033 19.0041 18.6292 19.0042ZM5.37085 19.0042C5.29669 19.0041 5.22419 18.9821 5.16253 18.9409C5.10088 18.8997 5.05282 18.8412 5.02444 18.7727C4.99606 18.7041 4.98864 18.6287 5.0031 18.556C5.01757 18.4833 5.05327 18.4165 5.10571 18.364L6.16625 17.3035C6.23681 17.2343 6.3318 17.1958 6.43059 17.1963C6.52938 17.1968 6.62398 17.2363 6.69384 17.3061C6.76369 17.376 6.80316 17.4706 6.80366 17.5694C6.80416 17.6682 6.76565 17.7632 6.6965 17.8337L5.63599 18.8943C5.60121 18.9292 5.55988 18.9568 5.51438 18.9757C5.46888 18.9945 5.4201 19.0042 5.37085 19.0042ZM17.5686 6.8064C17.4944 6.80639 17.4219 6.78439 17.3603 6.74319C17.2986 6.70198 17.2506 6.64342 17.2222 6.5749C17.1938 6.50638 17.1864 6.43099 17.2009 6.35826C17.2153 6.28552 17.251 6.2187 17.3035 6.16626L18.364 5.10572C18.4346 5.03657 18.5296 4.99806 18.6283 4.99856C18.7271 4.99906 18.8217 5.03852 18.8916 5.10838C18.9614 5.17823 19.0009 5.27284 19.0014 5.37162C19.0019 5.47041 18.9634 5.56541 18.8943 5.63596L17.8337 6.69653C17.799 6.73141 17.7576 6.75907 17.7121 6.77793C17.6666 6.79678 17.6179 6.80646 17.5686 6.8064ZM12 11.25C11.9507 11.25 11.902 11.2403 11.8565 11.2215C11.8109 11.2027 11.7696 11.1751 11.7348 11.1402C11.6999 11.1054 11.6723 11.0641 11.6535 11.0185C11.6347 10.973 11.625 10.9243 11.625 10.875V6.375C11.625 6.27554 11.6645 6.18016 11.7348 6.10983C11.8052 6.03951 11.9005 6 12 6C12.0995 6 12.1948 6.03951 12.2652 6.10983C12.3355 6.18016 12.375 6.27554 12.375 6.375V10.875C12.375 10.9243 12.3653 10.973 12.3465 11.0185C12.3277 11.0641 12.3001 11.1054 12.2652 11.1402C12.2304 11.1751 12.1891 11.2027 12.1435 11.2215C12.098 11.2403 12.0493 11.25 12 11.25ZM16.125 12.375H13.125C13.0255 12.375 12.9302 12.3355 12.8598 12.2652C12.7895 12.1948 12.75 12.0995 12.75 12C12.75 11.9005 12.7895 11.8052 12.8598 11.7348C12.9302 11.6645 13.0255 11.625 13.125 11.625H16.125C16.2245 11.625 16.3198 11.6645 16.3902 11.7348C16.4605 11.8052 16.5 11.9005 16.5 12C16.5 12.0995 16.4605 12.1948 16.3902 12.2652C16.3198 12.3355 16.2245 12.375 16.125 12.375Z" fill="#3C3B41"/>
<path d="M12 13.125C12.6213 13.125 13.125 12.6213 13.125 12C13.125 11.3787 12.6213 10.875 12 10.875C11.3787 10.875 10.875 11.3787 10.875 12C10.875 12.6213 11.3787 13.125 12 13.125Z" fill="#E5303E"/>
<path d="M12 0.375C9.70079 0.375 7.45322 1.05679 5.5415 2.33417C3.62977 3.61154 2.13977 5.42711 1.2599 7.55131C0.380031 9.6755 0.149817 12.0129 0.598371 14.2679C1.04692 16.523 2.1541 18.5943 3.77988 20.2201C5.40567 21.8459 7.47705 22.9531 9.73207 23.4016C11.9871 23.8502 14.3245 23.62 16.4487 22.7401C18.5729 21.8602 20.3885 20.3702 21.6658 18.4585C22.9432 16.5468 23.625 14.2992 23.625 12C23.625 8.91686 22.4002 5.95999 20.2201 3.77988C18.04 1.59977 15.0831 0.375 12 0.375ZM12 21.375C10.1458 21.375 8.33324 20.8252 6.79153 19.795C5.24982 18.7649 4.0482 17.3007 3.33863 15.5877C2.62906 13.8746 2.4434 11.9896 2.80514 10.171C3.16687 8.35246 4.05976 6.68199 5.37087 5.37087C6.68199 4.05976 8.35246 3.16687 10.171 2.80514C11.9896 2.4434 13.8746 2.62906 15.5877 3.33863C17.3007 4.0482 18.7649 5.24982 19.795 6.79153C20.8252 8.33324 21.375 10.1458 21.375 12C21.375 13.2311 21.1325 14.4502 20.6614 15.5877C20.1902 16.7251 19.4997 17.7586 18.6291 18.6291C17.7586 19.4997 16.7251 20.1902 15.5877 20.6614C14.4502 21.1325 13.2311 21.375 12 21.375Z" fill="#E5303E"/>
<path d="M1.125 12C1.12623 8.98339 2.30088 6.08556 4.40047 3.91952C6.50005 1.75349 9.35989 0.489146 12.375 0.393952C12.2494 0.389925 12.1266 0.375 12 0.375C8.91686 0.375 5.95999 1.59977 3.77988 3.77988C1.59977 5.95999 0.375 8.91686 0.375 12C0.375 15.0831 1.59977 18.04 3.77988 20.2201C5.95999 22.4002 8.91686 23.625 12 23.625C12.1266 23.625 12.2494 23.6101 12.375 23.606C9.35989 23.5109 6.50005 22.2465 4.40047 20.0805C2.30088 17.9144 1.12623 15.0166 1.125 12Z" fill="#B72732"/>
</g>
<defs>
<clipPath id="clip0_16_19903">
<rect width="24" height="24" fill="white"/>
</clipPath>
</defs>
</svg>
