<svg width="24" height="24" viewBox="0 0 24 24" fill="none" xmlns="http://www.w3.org/2000/svg">
<g clip-path="url(#clip0_16_19843)">
<path fill-rule="evenodd" clip-rule="evenodd" d="M21.75 6.75C21.75 5.7555 21.3547 4.8015 20.6516 4.09837C19.9485 3.39525 18.9945 3 18 3C14.6707 3 9.32925 3 6 3C5.0055 3 4.0515 3.39525 3.34837 4.09837C2.64525 4.8015 2.25 5.7555 2.25 6.75C2.25 10.0793 2.25 15.4207 2.25 18.75C2.25 19.7445 2.64525 20.6985 3.34837 21.4016C4.0515 22.1047 5.0055 22.5 6 22.5C9.32925 22.5 14.6707 22.5 18 22.5C18.9945 22.5 19.9485 22.1047 20.6516 21.4016C21.3547 20.6985 21.75 19.7445 21.75 18.75V6.75Z" fill="#EAEAEA"/>
<path fill-rule="evenodd" clip-rule="evenodd" d="M21.75 6.74954C21.75 5.75492 21.3548 4.80118 20.6516 4.09794C19.9485 3.39469 18.9945 2.99957 18 2.99957C14.6707 2.99957 9.32925 2.99957 6 2.99957C5.0055 2.99957 4.05149 3.39469 3.34837 4.09794C2.64524 4.80118 2.25 5.75492 2.25 6.74954V10.4995H21.75V6.74954Z" fill="#DA3767"/>
<path fill-rule="evenodd" clip-rule="evenodd" d="M7.50054 7.5H16.5006C16.9146 7.5 17.2507 7.164 17.2507 6.75C17.2507 6.336 16.9146 6 16.5006 6H7.50054C7.08654 6 6.75043 6.336 6.75043 6.75C6.75043 7.164 7.08654 7.5 7.50054 7.5Z" fill="white"/>
<path fill-rule="evenodd" clip-rule="evenodd" d="M8.25 4.5V2.25C8.25 1.836 7.914 1.50019 7.5 1.50019C7.086 1.50019 6.75 1.836 6.75 2.25V4.5C6.75 4.914 7.086 5.24981 7.5 5.24981C7.914 5.24981 8.25 4.914 8.25 4.5Z" fill="#364F6B"/>
<path fill-rule="evenodd" clip-rule="evenodd" d="M17.25 4.5V2.25C17.25 1.836 16.914 1.50019 16.5 1.50019C16.086 1.50019 15.75 1.836 15.75 2.25V4.5C15.75 4.914 16.086 5.24981 16.5 5.24981C16.914 5.24981 17.25 4.914 17.25 4.5Z" fill="#364F6B"/>
</g>
<defs>
<clipPath id="clip0_16_19843">
<rect width="24" height="24" fill="white"/>
</clipPath>
</defs>
</svg>
