<svg width="24" height="24" viewBox="0 0 24 24" fill="none" xmlns="http://www.w3.org/2000/svg">
<path d="M22.6499 6.43028L18.4485 10.6317L12.4293 16.6509C12.1986 16.8709 11.8933 16.9956 11.5746 17H8.20384C7.88456 17 7.57836 16.8732 7.3526 16.6474C7.12683 16.4216 7 16.1154 7 15.7962V12.3893C7.00443 12.0706 7.12913 11.7653 7.34911 11.5346L13.3683 5.51536L14.5722 4.31152L17.5697 1.35007C17.7953 1.12585 18.1004 1 18.4184 1C18.7365 1 19.0416 1.12585 19.2671 1.35007L22.6499 4.73286C22.8741 4.95842 23 5.26353 23 5.58157C23 5.89961 22.8741 6.20472 22.6499 6.43028Z" fill="#847392"/>
<path d="M17.4706 23H4.52941C3.59335 23 2.69563 22.6282 2.03374 21.9663C1.37185 21.3044 1 20.4066 1 19.4706V6.52941C1 5.59335 1.37185 4.69563 2.03374 4.03374C2.69563 3.37185 3.59335 3 4.52941 3H9.23529C9.54731 3 9.84655 3.12395 10.0672 3.34458C10.2878 3.56521 10.4118 3.86445 10.4118 4.17647C10.4118 4.48849 10.2878 4.78773 10.0672 5.00836C9.84655 5.22899 9.54731 5.35294 9.23529 5.35294H4.52941C4.21739 5.35294 3.91815 5.47689 3.69752 5.69752C3.47689 5.91815 3.35294 6.21739 3.35294 6.52941V19.4706C3.35294 19.7826 3.47689 20.0819 3.69752 20.3025C3.91815 20.5231 4.21739 20.6471 4.52941 20.6471H17.4706C17.7826 20.6471 18.0819 20.5231 18.3025 20.3025C18.5231 20.0819 18.6471 19.7826 18.6471 19.4706V14.7647C18.6471 14.4527 18.771 14.1534 18.9916 13.9328C19.2123 13.7122 19.5115 13.5882 19.8235 13.5882C20.1355 13.5882 20.4348 13.7122 20.6554 13.9328C20.8761 14.1534 21 14.4527 21 14.7647V19.4706C21 20.4066 20.6282 21.3044 19.9663 21.9663C19.3044 22.6282 18.4066 23 17.4706 23Z" fill="#847392"/>
</svg>
