<svg width="40" height="40" viewBox="0 0 40 40" fill="none" xmlns="http://www.w3.org/2000/svg">
<g clip-path="url(#clip0_16_5846)">
<path d="M15.3067 19.1571L18.8216 26.8086L17.5646 35.9938L10.5 38.5L9.89976 38.5L4.50003 38.5L8.16557 26.2008L8.72985 24.9898L9.89976 22.4906L15.3067 19.1571Z" fill="url(#paint0_linear_16_5846)"/>
<path d="M15.3067 19.1571L18.8217 26.8086L18.1137 31.8707L17.5 38.4999L9.00003 38.5C9.62847 36.0701 12.602 27.0781 11.4593 27.414C10.3381 27.7383 9.07822 26.9798 8.14417 26.2122L9.87836 22.502L10.6694 22.0237L15.3067 19.1571Z" fill="#EFAB97"/>
<path d="M17.0084 36.3388C13.9655 35.9193 9.77138 34.7591 7.02984 33.7978C5.92213 33.4093 4.65476 33.9492 4.25361 35.0524L2.99994 38.5001H19C19 37.3955 18.1026 36.4897 17.0084 36.3388Z" fill="#3E3B81"/>
<path d="M15.3067 19.1571L18.8217 26.8086L18.1137 31.8707C16.9963 30.7604 15.305 28.9379 14.6299 27.3156C13.5607 24.8021 11.8304 27.0777 10.4724 25.5176C9.82128 24.764 10.1509 23.3204 10.6908 22.0123L15.3067 19.1571Z" fill="url(#paint1_linear_16_5846)"/>
<path d="M29.6801 4.82822C29.7145 4.89247 29.7374 4.93531 29.7718 4.99956C29.8405 5.12808 29.8993 5.28947 29.9367 5.46231C29.9496 5.53803 29.984 5.60229 29.997 5.67801C30.1435 6.26081 30.2287 6.98658 30.2099 7.87823C30.1082 13.2496 24.9037 12.8933 24.9037 12.8933C24.9037 12.8933 24.2526 13.3243 23.2604 13.9929C20.348 15.9642 14.6462 20.0339 14.8526 21.604C15.1068 23.727 11.5509 26.4008 10.2044 26.0467C9.75558 25.9287 8.98343 25.5153 8.08375 24.812C7.70614 24.5181 7.29416 24.16 6.85926 23.7591C6.3571 23.2839 5.83053 22.7116 5.32388 22.0735C4.23187 20.7017 3.15228 18.9927 2.31226 16.9076C0.0114165 11.1136 5.36358 1.85884 11.9369 1.01447C18.5101 0.170103 20.7585 4.06381 23.9889 3.76816C26.4177 3.5707 28.6946 2.98621 29.6801 4.82822Z" fill="url(#paint2_linear_16_5846)"/>
<path d="M29.9367 5.46236C29.9496 5.53807 29.984 5.60233 29.997 5.67805C30.1435 6.26085 30.2287 6.98662 30.2098 7.87828C30.1082 13.2496 24.9037 12.8934 24.9037 12.8934C24.9037 12.8934 24.2526 13.3243 23.2604 13.9929C20.348 15.9642 14.6462 20.0339 14.8526 21.604C15.1068 23.727 11.5509 26.4008 10.2044 26.0467C9.75556 25.9287 8.98342 25.5153 8.08373 24.8121C7.70613 24.5182 7.29414 24.1601 6.85924 23.7591C10.1637 22.2116 6.61436 20.0057 6.00491 17.2187C5.40693 14.4531 7.99013 13.1538 7.10993 13.1564C6.21828 13.1375 3.98527 14.525 4.96893 12.759C5.96256 10.9602 8.59875 11.9742 8.11289 9.72714C7.62703 7.48011 12.9977 4.79973 11.6553 6.56472C10.3658 8.27391 10.342 9.77428 10.3665 9.87141C10.4177 9.76132 13.0305 4.80969 15.7723 5.71208C18.537 6.65731 21.5264 7.86802 25.0013 6.58754C28.4761 5.30706 25.4045 8.989 27.7142 8.41447C28.977 8.09705 29.6025 6.74309 29.9397 5.57096C29.9167 5.52812 29.9267 5.49523 29.9367 5.46236Z" fill="#22224F"/>
<path d="M23.2758 13.7642L23.2604 13.9929C20.348 15.9642 14.6462 20.0339 14.8526 21.604C15.1068 23.727 11.5509 26.4008 10.2044 26.0467C9.75556 25.9287 8.98342 25.5153 8.08374 24.812C11.4107 24.079 12.6145 21.2311 10.8434 18.487C9.07229 15.743 9.86159 12.8413 10.5636 14.2564C11.2441 15.683 13.3293 16.0275 12.7384 14.305C12.1475 12.5826 12.8686 9.96532 13.4242 11.9822C13.9583 14.0105 14.992 14.4493 14.9654 12.7004C14.9503 10.9729 17.3812 10.0581 17.3812 10.0581L23.2758 13.7642Z" fill="#1C1C3D"/>
<path d="M29.997 5.67802C29.0654 4.60611 27.7328 3.96911 26.6823 4.88924C25.2279 6.13569 20.8956 5.09246 20.0288 4.39913C19.162 3.7058 13.803 3.26688 15.0374 3.1024C16.2717 2.93792 17.9903 2.59705 16.2851 2.24202C14.5586 1.89846 10.6562 1.8649 8.11543 3.91292C5.57463 5.96095 4.92442 10.3585 4.82076 9.75278C4.70564 9.12565 4.23284 8.13888 3.20643 11.1123C2.18002 14.0857 4.39703 18.0238 3.65371 16.6859C2.91039 15.3479 1.79493 13.5204 3.0435 16.6266C3.87206 18.6903 5.42295 21.3318 5.3468 22.1164C4.25479 20.7446 3.17519 19.0356 2.33518 16.9505C0.0343335 11.1564 5.3865 1.90169 11.9598 1.05732C18.533 0.21295 20.7814 4.10666 24.0118 3.811C26.732 3.5403 29.266 2.81831 29.997 5.67802Z" fill="#6565C2"/>
<path d="M25.9029 18.7777L27.8528 21.7016C27.8528 21.7016 27.8314 21.713 27.7886 21.7359L25.3 23.3152C25.3 23.3152 24.2967 27.516 23.3598 29.009C23.2243 29.2192 23.0774 29.408 22.9489 29.4768C21.9123 30.114 18.4412 28.7753 16.873 27.0798C15.3047 25.3843 15.4235 22.2077 15.4235 22.2077C15.4235 22.2077 14.9548 22.1554 14.3829 21.9104C13.5694 21.5742 12.5596 20.8196 12.442 19.3123C12.1677 16.0705 14.782 16.683 15.5865 17.8779C15.6095 17.9207 15.6324 17.9636 15.6553 18.0064C16.1366 18.906 16.5813 18.0895 16.5907 16.4592C16.5926 15.7418 16.5472 14.8846 16.3688 13.9331C15.8047 10.8189 17.9321 9.54299 17.9321 9.54299C17.9321 9.54299 22.8421 8.67933 24.79 11.136C25.0032 11.38 25.1636 11.6799 25.3355 12.0012C26.6363 14.6387 25.9029 18.7777 25.9029 18.7777Z" fill="url(#paint3_linear_16_5846)"/>
<path d="M15.598 17.8993C15.4336 17.8495 15.1691 17.7155 14.8044 17.4974C13.8649 16.9256 13.1536 17.1409 12.92 17.7342C12.6865 18.3274 12.691 19.6749 13.3168 20.69C13.6346 21.1812 14.0596 21.615 14.3943 21.9318C13.5809 21.5956 12.5711 20.841 12.4534 19.3337C12.2006 16.0804 14.782 16.6829 15.598 17.8993Z" fill="#FFEEE8"/>
<path d="M23.3927 29.019C23.2572 29.2292 23.1103 29.418 22.9818 29.4867C21.9452 30.1239 18.4741 28.7852 16.9059 27.0897C15.3376 25.3942 15.4564 22.2176 15.4564 22.2176C15.4564 22.2176 16.2771 25.966 18.6902 27.9533C20.3138 29.2887 22.2898 29.2233 23.3927 29.019Z" fill="#FFEEE8"/>
<path d="M25.3684 12.0111C24.1031 11.4483 22.096 10.7864 20.2062 11.219C17.3878 11.8727 18.3381 16.3783 16.6021 16.4805C16.623 16.0561 16.5881 15.5789 16.5303 15.0589C16.4884 14.7231 16.445 14.3331 16.3802 13.9545C15.8161 10.8402 17.9435 9.56436 17.9435 9.56436C17.9435 9.56436 22.7021 8.72662 24.7227 11.0617C24.767 11.0931 24.79 11.1359 24.8014 11.1573C25.0475 11.4114 25.2294 11.6998 25.3684 12.0111Z" fill="#EFAB97"/>
<path d="M24.7441 11.0503C23.4689 10.5204 20.9557 9.63339 19.6003 10.1381C17.7394 10.8307 18.1272 14.6453 16.5303 15.0589C16.4884 14.7232 16.445 14.3331 16.3802 13.9545C15.8161 10.8403 17.9435 9.5644 17.9435 9.5644C17.9435 9.5644 22.7235 8.71519 24.7441 11.0503Z" fill="url(#paint4_linear_16_5846)"/>
<path d="M27.8215 21.7459L25.3329 23.3252C25.3329 23.3252 24.5896 21.9873 25.3618 22.4007C26.0353 22.7842 27.5331 21.9278 27.8215 21.7459Z" fill="#EFAB97"/>
<path d="M15.9503 19.6393C16.4117 20.6046 15.7681 21.307 14.8376 21.061C14.5532 20.9928 14.2114 20.8175 13.8881 20.5221C13.6535 20.2895 13.4831 20.0225 13.3655 19.6998C13.3411 19.6026 13.3067 19.5384 13.2823 19.4412C13.1503 18.9884 13.0795 18.3927 13.3275 17.9294C13.8036 17.0686 15.2712 18.267 15.9503 19.6393Z" fill="#EFAB97"/>
<path d="M15.9503 19.6393C16.4117 20.6046 15.7681 21.307 14.8376 21.061C14.7773 20.8453 14.8485 20.6695 15.1629 20.6391C16.193 20.5563 15.3322 20.0802 14.6014 19.5896C13.8706 19.099 14.9391 18.8304 14.0972 18.6471C13.474 18.5122 13.5224 19.4781 13.3037 19.4298C13.1717 18.977 13.1009 18.3812 13.3489 17.9179C13.8037 17.0686 15.2713 18.267 15.9503 19.6393Z" fill="url(#paint5_linear_16_5846)"/>
<path d="M24.0558 18.0027C24.0409 18.6443 23.6743 19.1435 23.2499 19.1226C22.8255 19.1017 22.4962 18.5892 22.5111 17.9476C22.526 17.306 22.8925 16.8068 23.3169 16.8277C23.7628 16.8371 24.0821 17.3826 24.0558 18.0027Z" fill="#252260"/>
<path d="M19.8884 24.1166C19.8884 24.1166 20.9954 26.0314 22.4553 24.5892" stroke="#EF6A6A" stroke-miterlimit="10" stroke-linecap="round" stroke-linejoin="round"/>
<path d="M24.1955 14.4017C24.1955 14.4017 22.4643 12.7107 21.0711 13.8142" stroke="#231F20" stroke-miterlimit="10" stroke-linecap="round" stroke-linejoin="round"/>
<path opacity="0.2" d="M9.45454 7.87876C11.0303 6.66664 12.9697 6.06058 14.9091 6.06058C15.7576 6.06058 16.4848 5.33331 16.4848 4.48483C16.4848 3.63634 15.7576 2.90907 14.9091 2.90907C12.2424 2.78786 9.69696 3.63634 7.51514 5.2121C6.78787 5.81816 6.66666 6.78785 7.1515 7.51513C7.75757 8.2424 8.72726 8.36361 9.45454 7.87876ZM22.0606 6.90907C22.5454 6.18179 22.303 5.09089 21.5757 4.60604C21.2121 4.36361 20.7273 4.12119 20.3636 3.87876C19.5151 3.51513 18.5454 3.87876 18.1818 4.60604C17.8182 5.45452 18.1818 6.42422 18.9091 6.78785C19.2727 6.90907 19.5151 7.15149 19.8788 7.2727C20.6061 7.87876 21.5757 7.63634 22.0606 6.90907Z" fill="white"/>
<path d="M39.3939 2.78786V37.2121C39.3939 38.0606 38.6667 38.6666 37.9394 38.6666H33.5758C32.7273 38.6666 32.1212 37.9394 32.1212 37.2121V2.78786C32.1212 1.93937 32.7273 1.33331 33.5758 1.33331H37.9394C38.6667 1.33331 39.3939 1.93937 39.3939 2.78786Z" fill="#DA3767"/>
<path d="M32 36.4848H34.7879C35.0303 36.4848 35.2727 36.2424 35.2727 36C35.2727 35.7576 35.0303 35.5151 34.7879 35.5151H32V36.4848ZM32 33.3333H33.2121C33.4545 33.3333 33.697 33.0909 33.697 32.8485C33.697 32.606 33.4545 32.3636 33.2121 32.3636H32V33.3333ZM32 30.0606H34.7879C35.0303 30.0606 35.2727 29.8182 35.2727 29.5757C35.2727 29.3333 35.0303 29.0909 34.7879 29.0909H32V30.0606ZM32 26.9091H33.9394C34.1818 26.9091 34.4242 26.6667 34.4242 26.4242C34.4242 26.1818 34.1818 25.9394 33.9394 25.9394H31.8788V26.9091H32ZM32 23.6363H36C36.2424 23.6363 36.4848 23.3939 36.4848 23.1515C36.4848 22.9091 36.2424 22.6667 36 22.6667H32V23.6363ZM32 20.4848H33.5758C33.8182 20.4848 34.0606 20.2424 34.0606 20C34.0606 19.7576 33.8182 19.5151 33.5758 19.5151H32V20.4848ZM32 17.3333H34.4242C34.6667 17.3333 34.9091 17.0909 34.9091 16.8485C34.9091 16.606 34.6667 16.3636 34.4242 16.3636H32V17.3333ZM32 14.0606H35.1515C35.3939 14.0606 35.6364 13.8182 35.6364 13.5757C35.6364 13.3333 35.3939 13.0909 35.1515 13.0909H32V14.0606ZM32 10.9091H33.5758C33.8182 10.9091 34.0606 10.6667 34.0606 10.4242C34.0606 10.1818 33.8182 9.93938 33.5758 9.93938H32V10.9091ZM32 7.63635H34.4242C34.6667 7.63635 34.9091 7.39392 34.9091 7.1515C34.9091 6.90908 34.6667 6.66665 34.4242 6.66665H32V7.63635ZM32 4.48483H34.7879C35.0303 4.48483 35.2727 4.24241 35.2727 3.99999C35.2727 3.75756 35.0303 3.51514 34.7879 3.51514H32V4.48483Z" fill="#FFA8C2"/>
</g>
<defs>
<linearGradient id="paint0_linear_16_5846" x1="9.9425" y1="22.037" x2="17.4408" y2="36.0528" gradientUnits="userSpaceOnUse">
<stop stop-color="#FFCCB9"/>
<stop offset="1" stop-color="#EFAB97"/>
</linearGradient>
<linearGradient id="paint1_linear_16_5846" x1="12.1026" y1="20.881" x2="18.0098" y2="31.9226" gradientUnits="userSpaceOnUse">
<stop stop-color="#EFAB97"/>
<stop offset="1" stop-color="#E38677"/>
</linearGradient>
<linearGradient id="paint2_linear_16_5846" x1="10.6813" y1="1.07652" x2="21.1538" y2="20.6518" gradientUnits="userSpaceOnUse">
<stop stop-color="#45438C"/>
<stop offset="1" stop-color="#252260"/>
</linearGradient>
<linearGradient id="paint3_linear_16_5846" x1="16.0468" y1="10.5781" x2="25.4556" y2="28.165" gradientUnits="userSpaceOnUse">
<stop stop-color="#FFCCB9"/>
<stop offset="1" stop-color="#EFAB97"/>
</linearGradient>
<linearGradient id="paint4_linear_16_5846" x1="18.5993" y1="9.21253" x2="20.7283" y2="13.1921" gradientUnits="userSpaceOnUse">
<stop stop-color="#EFAB97"/>
<stop offset="1" stop-color="#E38677"/>
</linearGradient>
<linearGradient id="paint5_linear_16_5846" x1="13.6255" y1="17.6635" x2="15.4685" y2="21.1086" gradientUnits="userSpaceOnUse">
<stop stop-color="#EFAB97"/>
<stop offset="1" stop-color="#E38677"/>
</linearGradient>
<clipPath id="clip0_16_5846">
<rect width="40" height="40" fill="white"/>
</clipPath>
</defs>
</svg>
