<svg width="110" height="110" viewBox="0 0 110 110" fill="none" xmlns="http://www.w3.org/2000/svg">
<path d="M39.148 51.2674C38.5516 51.2536 37.993 51.563 37.6922 52.0803L35.5438 55.8203C34.1808 58.1888 34.9921 61.2653 37.3622 62.6335L40.8478 64.641C43.2111 66.0039 46.2928 65.1927 47.6558 62.8225L49.8094 59.0825C50.2528 58.3108 49.9916 57.3243 49.2267 56.8739L39.9077 51.496C39.6791 51.3619 39.4178 51.2811 39.148 51.2674Z" fill="#143441"/>
<path d="M60.9555 31.005C60.2628 31.0257 59.6595 31.4743 59.4515 32.1325L56.772 40.4255C56.4833 41.3107 57.0144 42.2646 57.9201 42.4932L63.0506 43.7822C63.1778 43.8149 63.305 43.8286 63.439 43.8286C72.7444 43.8286 80.2639 51.3482 80.2639 60.6535C80.2639 64.0583 78.8476 67.9925 76.4036 70.9728C73.9595 73.9532 70.589 75.9675 66.5208 75.9675L64.13 75.9211C63.6951 75.9142 63.2706 76.0827 62.963 76.3972L58.135 81.2114C57.8325 81.5139 57.6658 81.9299 57.6726 82.3596V86.7578C57.6658 87.6499 58.3911 88.3752 59.2831 88.3821H66.0842C80.0164 88.3821 92.7111 75.8403 92.7111 60.6466C92.7111 47.2593 83.7083 35.9464 71.4089 32.4763C71.3419 32.4557 71.268 32.4419 71.194 32.4282L61.2167 31.0325C61.129 31.0119 61.0431 31.005 60.9555 31.005Z" fill="#A8C2E1"/>
<path d="M67.8511 75.8936C67.4214 75.9418 66.978 75.9676 66.5208 75.9676L64.13 75.9211C63.6952 75.9143 63.2707 76.0827 62.963 76.3972L58.135 81.2115C57.8325 81.5208 57.6658 81.9299 57.6727 82.3596V86.7579C57.6658 87.6499 58.3911 88.3752 59.2832 88.3821H66.0843C67.4953 88.3821 68.8978 88.248 70.2746 87.9988L67.8511 75.8936Z" fill="#91A9D9"/>
<path d="M26.5805 82.0708C25.6936 82.0777 24.9752 82.7961 24.9683 83.683V86.7579C24.9683 89.3291 27.0841 91.45 29.6553 91.45H47.8638C48.608 91.45 49.2663 90.9396 49.4416 90.2074L50.8974 84.0577C51.1328 83.0436 50.368 82.0777 49.3333 82.0708H26.5805Z" fill="#A8C2E1"/>
<path d="M20.4445 75.9211C18.7258 75.9211 17.2889 77.3511 17.2889 79.0699V82.1447C17.2889 83.8635 18.7258 85.3004 20.4445 85.3004H49.1855C49.9503 85.2935 50.6017 84.7624 50.7633 84.0182L52.0798 77.8805C52.2947 76.8751 51.5281 75.9211 50.502 75.9211H20.4445Z" fill="#D0E2EE"/>
<path d="M45.5125 82.0708L43.6339 91.45H47.8638C48.6148 91.45 49.2663 90.9396 49.4416 90.2074L50.8974 84.0508C51.1259 83.0436 50.368 82.0777 49.3333 82.0708H45.5125Z" fill="#91A9D9"/>
<path d="M46.7414 75.9211L44.8628 85.3004H49.1855C49.9451 85.2935 50.6017 84.7624 50.7633 84.0182L52.0798 77.8754C52.2947 76.8751 51.5281 75.9211 50.502 75.9211H46.7414Z" fill="#A8C2E1"/>
<path d="M51.1603 72.8463C50.3869 72.8463 49.7234 73.3894 49.5687 74.1491L44.9556 97.1838C44.7476 98.191 45.5194 99.138 46.5472 99.1311H68.0522C69.0783 99.138 69.8517 98.191 69.6437 97.1838L65.0306 74.1491C64.8759 73.3894 64.2108 72.8463 63.439 72.8463H51.1603Z" fill="#3A4D5C"/>
<path d="M45.8631 92.6583L44.9556 97.1838C44.7476 98.191 45.5194 99.138 46.5472 99.1311H68.0522C69.0783 99.138 69.8517 98.191 69.6437 97.1838L68.7362 92.6583H45.8631Z" fill="#0D202B"/>
<path d="M29.6553 95.8947C27.0841 95.8947 24.9683 98.0088 24.9683 100.582V103.65C24.9683 104.542 25.6867 105.274 26.5805 105.274H88.0189C88.9178 105.281 89.6431 104.549 89.6431 103.65V100.582C89.6431 98.0088 87.5153 95.8947 84.9441 95.8947H29.6553Z" fill="#143441"/>
<path d="M57.31 79.0836C56.4575 79.0768 55.7717 79.7608 55.7648 80.6133C55.7648 81.4658 56.4575 82.1585 57.31 82.1585C58.1556 82.1516 58.8397 81.4607 58.8397 80.6133C58.8328 79.7677 58.1556 79.0836 57.31 79.0836Z" fill="#0D202B"/>
<path d="M57.31 85.2196C56.4575 85.2196 55.7717 85.9036 55.7648 86.751C55.7648 87.6035 56.4575 88.2944 57.31 88.2944C58.1556 88.2875 58.8397 87.5966 58.8397 86.751C58.8328 85.9036 58.1556 85.2196 57.31 85.2196Z" fill="#0D202B"/>
<path d="M70.2144 5.143C68.7225 4.27675 66.7631 4.80785 65.9037 6.298L61.3044 14.2816C60.8541 15.0533 61.117 16.0399 61.8887 16.4902L68.542 20.323C69.3137 20.7733 70.3003 20.5121 70.7506 19.7386L75.3637 11.7499C76.23 10.2597 75.6989 8.3055 74.2087 7.44613L70.2144 5.143Z" fill="#D0E2EE"/>
<path d="M68.5747 4.72708C68.0316 4.74083 67.5005 4.89551 67.0312 5.17051L70.9723 7.44614C72.4625 8.31239 72.9867 10.2529 72.1273 11.7499L67.5211 19.7318L68.542 20.323C69.3138 20.7733 70.3003 20.5121 70.7506 19.7386L75.3637 11.7499C76.2231 10.2529 75.6989 8.31239 74.2087 7.44614L70.2144 5.13614C69.7039 4.84051 69.1333 4.71333 68.5747 4.72708Z" fill="#A8C2E1"/>
<path d="M63.513 13.6835C62.0228 12.8241 60.0617 13.3483 59.2023 14.8453L52.2947 26.8164C51.8444 27.5882 52.1056 28.5747 52.879 29.025L62.1981 34.403C62.9767 34.8447 63.9633 34.5766 64.4067 33.8049L71.3144 21.8338C72.1737 20.3368 71.6564 18.3825 70.1662 17.5163L63.513 13.6835Z" fill="#91A9D9"/>
<path d="M47.3258 63.3193C47.4461 63.1646 47.5613 62.9961 47.6609 62.8225L49.8094 59.0825C50.2597 58.3108 49.9984 57.3243 49.2267 56.8739L39.9077 51.496C39.6791 51.3619 39.4178 51.2811 39.148 51.2674C38.5516 51.2536 37.993 51.563 37.6922 52.0803L35.5438 55.8203C35.4698 55.9544 35.4028 56.0816 35.3409 56.2157L47.3258 63.3193Z" fill="#0D202B"/>
<path d="M60.9555 31.005C60.2628 31.0257 59.6595 31.4743 59.4515 32.1325L56.772 40.4255C56.4833 41.3107 57.0144 42.2646 57.9201 42.4863L62.633 43.6739C63.8825 41.5118 65.0908 39.4183 66.5809 36.8402C67.2598 35.6577 67.2598 34.3618 66.9436 33.1328L67.6362 31.9246L61.2167 31.0325C61.129 31.0119 61.0431 31.005 60.9555 31.005Z" fill="#91A9D9"/>
<path d="M61.875 13.2744C61.3319 13.2813 60.7939 13.4343 60.3247 13.711L66.9299 17.5163C68.4217 18.3826 68.9374 20.3368 68.078 21.8338L61.1703 33.8049L62.1981 34.403C62.9767 34.8447 63.9633 34.5766 64.4067 33.8049L71.3144 21.8269C72.1738 20.3368 71.6564 18.3826 70.1663 17.5163L63.513 13.6835C63.0025 13.3879 62.4319 13.2538 61.875 13.2676V13.2744Z" fill="#6788CB"/>
<path d="M53.3088 25.8213C52.0867 25.6752 50.8372 26.251 50.1927 27.3733L37.1336 49.9921C36.2742 51.4822 36.7984 53.4296 38.2886 54.2958L47.6008 59.6669C49.0909 60.5332 51.052 60.0158 51.9114 58.5257C57.035 49.6501 60.0428 44.4457 64.9705 35.9069C65.8298 34.4151 65.3056 32.4557 63.8086 31.5963L54.5033 26.2183C54.1338 26.0035 53.7247 25.8763 53.3088 25.8213Z" fill="#D0E2EE"/>
<path d="M52.8516 25.8024C51.9716 25.8213 51.1191 26.2183 50.5278 26.9024C50.7839 26.9763 51.0314 27.0708 51.2669 27.2049L60.5722 32.5829C62.0624 33.4491 62.5935 35.4102 61.7341 36.9004C56.7996 45.4408 53.7986 50.6366 48.675 59.5122C48.5822 59.6807 48.4671 59.8337 48.3467 59.9815C49.6891 60.3372 51.1861 59.7735 51.9114 58.5257C57.035 49.6432 60.0428 44.4457 64.9705 35.9069C65.8299 34.4151 65.2988 32.4557 63.8086 31.5963L54.5033 26.2183C54.1338 26.0035 53.7178 25.8763 53.3088 25.8213C53.1541 25.8024 53.0063 25.8024 52.8516 25.8024Z" fill="#A8C2E1"/>
<path d="M65.0633 42.2165C65.0633 45.635 62.2583 48.4418 58.8397 48.4418C55.4228 48.4418 52.6161 45.635 52.6161 42.2165C52.6161 38.7927 55.4228 35.9877 58.8397 35.9877C62.2583 35.9877 65.0633 38.7927 65.0633 42.2165Z" fill="#143441"/>
<path d="M53.0801 26.8629C52.3084 26.4126 51.3201 26.6755 50.8716 27.4472L48.3742 31.7836C47.9308 32.5554 48.192 33.5436 48.9569 33.9922C49.7372 34.4426 50.7237 34.1744 51.1723 33.3958L53.6766 29.0715C54.1269 28.2997 53.8587 27.3063 53.0801 26.8629Z" fill="#F6FBFE"/>
<path d="M60.9882 13.9722C60.5791 14.0788 60.2164 14.3418 60.0016 14.7113L58.1952 17.7243C57.7466 18.4908 57.9941 19.4774 58.7607 19.9346C59.5255 20.3969 60.5189 20.1494 60.9813 19.3829L62.7739 16.3682C63.2311 15.6033 62.9888 14.6099 62.2239 14.1458C61.8544 13.931 61.411 13.864 60.9882 13.9722Z" fill="#D0E2EE"/>
<path d="M67.7291 5.40598C67.3131 5.51254 66.9573 5.77379 66.7356 6.14332L64.9361 9.14426C64.4738 9.91082 64.7281 10.9111 65.493 11.3666C66.2664 11.8238 67.2598 11.5746 67.7153 10.8029L69.508 7.80879C69.972 7.04395 69.7228 6.04363 68.958 5.58645C68.5884 5.36473 68.145 5.2977 67.7291 5.40598Z" fill="#F6FBFE"/>
<path d="M58.7864 34.1882L56.772 40.4255C56.4833 41.3107 57.0144 42.2646 57.9201 42.4863L63.0506 43.7822C63.1778 43.808 63.305 43.8286 63.439 43.8286C64.5339 43.8286 65.6012 43.9352 66.6359 44.1311C66.782 43.5193 66.8697 42.8747 66.8697 42.2165C66.8697 37.8061 63.2448 34.1882 58.8397 34.1882H58.7864Z" fill="#91A9D9"/>
<path d="M39.4969 76.686C38.6049 76.6791 37.8727 77.4044 37.8727 78.2982C37.8727 79.1971 38.598 79.9224 39.4969 79.9224H45.5074C46.4063 79.9224 47.1385 79.1971 47.1316 78.2982C47.1316 77.4044 46.3994 76.6791 45.5074 76.686H39.4969Z" fill="#F6FBFE"/>
<path d="M28.4934 96.9088C27.5945 96.9088 26.8692 97.6341 26.8692 98.533C26.8761 99.4336 27.6014 100.152 28.4934 100.152H32.7233C33.617 100.145 34.3355 99.4268 34.3355 98.533C34.3406 97.641 33.617 96.9157 32.7233 96.9088H28.4934Z" fill="#5F8EA2"/>
<path d="M88.3283 49.3613C87.481 49.6569 87.0392 50.5833 87.3331 51.4289C87.3331 51.4289 89.2805 57.2297 89.0192 60.748C88.9591 61.6332 89.6242 62.4118 90.5163 62.4805C91.4031 62.5407 92.1817 61.8755 92.2488 60.9818C92.5977 56.183 90.396 50.341 90.396 50.341C90.0935 49.4953 89.167 49.0588 88.3283 49.3613Z" fill="#D0E2EE"/>
<path d="M58.8397 34.1882C54.4363 34.1882 50.8097 37.8061 50.8097 42.2113C50.8097 45.9307 53.3878 49.0863 56.8391 49.9852C59.2625 45.7897 61.7134 41.5393 64.5666 36.6116C63.1039 35.1215 61.0758 34.1882 58.8397 34.1882Z" fill="#A8C2E1"/>
<path d="M65.0633 42.2165C65.0633 45.635 62.2583 48.4418 58.8397 48.4418C55.4228 48.4418 52.6161 45.635 52.6161 42.2165C52.6161 38.7927 55.4228 35.9877 58.8397 35.9877C62.2583 35.9877 65.0633 38.7927 65.0633 42.2165Z" fill="#143441"/>
<path d="M61.3112 36.5102C61.6464 37.2699 61.8286 38.1018 61.8286 38.9749C61.8286 42.3986 59.0219 45.1985 55.605 45.1985C54.7319 45.1985 53.8914 45.0163 53.1334 44.688C54.1011 46.8897 56.2959 48.4418 58.8397 48.4418C62.2583 48.4418 65.0633 45.635 65.0633 42.2164C65.0633 39.6727 63.513 37.471 61.3112 36.5102Z" fill="#0D202B"/>
<path d="M52.1864 73.6575C51.2875 73.6575 50.5553 74.3828 50.5622 75.2835C50.5622 76.1824 51.2944 76.9008 52.1864 76.9008H54.5033C55.3953 76.8939 56.1137 76.1755 56.1137 75.2835C56.1206 74.3897 55.3953 73.6644 54.5033 73.6575H52.1864Z" fill="#5F8EA2"/>
</svg>
