<svg width="70" height="70" viewBox="0 0 70 70" fill="none" xmlns="http://www.w3.org/2000/svg">
<path d="M67.2956 35.0027C67.2956 52.8433 52.8284 67.3104 34.9879 67.3104C17.1473 67.3104 2.70306 52.8433 2.70306 35.0027C2.70306 17.1621 17.1473 2.69501 34.9879 2.69501C52.8284 2.69501 67.2956 17.1621 67.2956 35.0027Z" fill="#424E9B"/>
<path d="M43.47 66.1608C40.7642 66.9146 37.9238 67.305 34.9892 67.305C17.1527 67.305 2.70844 52.8473 2.70844 34.9973C2.70844 17.1608 17.1527 2.68961 34.9892 2.68961C37.9238 2.68961 40.7642 3.07999 43.47 3.83384C29.7392 7.53576 19.6565 20.0954 19.6565 34.9973C19.6565 49.9127 29.7392 62.4588 43.47 66.1608Z" fill="#515FA5"/>
<path d="M67.2969 34.9973C67.2969 52.8473 52.8258 67.305 34.9892 67.305C34.5046 67.305 34.0335 67.2915 33.5623 67.2646C50.7258 66.5242 64.4296 52.3627 64.4296 34.9973C64.4296 17.6454 50.7258 3.47038 33.5623 2.72999C34.0335 2.70307 34.5046 2.68961 34.9892 2.68961C52.8258 2.68961 67.2969 17.1608 67.2969 34.9973Z" fill="#343E90"/>
<path d="M8.27344 35.0027C8.27344 49.7659 20.2448 61.7373 35.0081 61.7373C49.7713 61.7373 61.7252 49.7659 61.7252 35.0027C61.7252 20.2394 49.7713 8.26807 35.0081 8.26807C20.2448 8.26807 8.27344 20.2394 8.27344 35.0027Z" fill="#D7ECF9"/>
<path d="M57.7796 20.9973L10.0719 44.6492C8.90076 41.6608 8.26807 38.4031 8.26807 34.9973C8.26807 20.2435 20.2219 8.2627 34.9892 8.2627C44.6277 8.2627 53.0681 13.3646 57.7796 20.9973Z" fill="#E6F5FC"/>
<path d="M8.27478 34.9973C8.27478 49.7646 20.2421 61.7319 35.0094 61.7319C35.3459 61.7319 35.669 61.7319 35.9921 61.705C21.6825 61.1935 10.2536 49.4281 10.2536 34.9973C10.2536 20.58 21.6825 8.80116 35.9921 8.28962C35.669 8.2627 35.3459 8.2627 35.0094 8.2627C20.2421 8.2627 8.27478 20.2435 8.27478 34.9973Z" fill="#B9D4E7"/>
<path d="M22.081 49.2679C21.8148 49.2678 21.5546 49.1889 21.3332 49.0409C21.1119 48.893 20.9394 48.6828 20.8376 48.4369C20.7357 48.1909 20.709 47.9203 20.761 47.6592C20.8129 47.3981 20.941 47.1583 21.1292 46.97L33.6539 34.4454V16.6546C33.6539 16.2976 33.7957 15.9552 34.0481 15.7028C34.3006 15.4503 34.643 15.3085 35 15.3085C35.357 15.3085 35.6994 15.4503 35.9519 15.7028C36.2043 15.9552 36.3462 16.2976 36.3462 16.6546V35.0027C36.3461 35.3597 36.2042 35.702 35.9517 35.9544L23.0327 48.8735C22.9079 48.9987 22.7595 49.0979 22.5962 49.1656C22.4329 49.2333 22.2578 49.2681 22.081 49.2679Z" fill="#E24740"/>
<path d="M39.0438 35.0027C39.0438 36.0755 38.6177 37.1045 37.859 37.8631C37.1004 38.6217 36.0715 39.0479 34.9987 39.0479C33.9258 39.0479 32.8969 38.6217 32.1383 37.8631C31.3797 37.1045 30.9535 36.0755 30.9535 35.0027C30.9535 33.9298 31.3797 32.9009 32.1383 32.1423C32.8969 31.3837 33.9258 30.9575 34.9987 30.9575C36.0715 30.9575 37.1004 31.3837 37.859 32.1423C38.6177 32.9009 39.0438 33.9298 39.0438 35.0027ZM36.4404 11.2633C36.4404 12.0588 35.7969 12.6942 35 12.6942C34.2044 12.6942 33.5596 12.0588 33.5596 11.2633C33.5596 10.8812 33.7114 10.5149 33.9815 10.2448C34.2516 9.97463 34.618 9.82288 35 9.82288C35.382 9.82288 35.7484 9.97463 36.0185 10.2448C36.2886 10.5149 36.4404 10.8812 36.4404 11.2633ZM36.4404 58.7502C36.4404 59.5471 35.7969 60.1825 35 60.1825C34.2044 60.1825 33.5596 59.5471 33.5596 58.7502C33.5596 58.3682 33.7114 58.0018 33.9815 57.7317C34.2516 57.4616 34.618 57.3098 35 57.3098C35.382 57.3098 35.7484 57.4616 36.0185 57.7317C36.2886 58.0018 36.4404 58.3682 36.4404 58.7502ZM24.3775 13.724C24.776 14.4133 24.5363 15.2856 23.8471 15.684C23.6842 15.7796 23.5039 15.8419 23.3167 15.8674C23.1295 15.8929 22.9392 15.8811 22.7566 15.8327C22.574 15.7842 22.4028 15.7001 22.2529 15.5852C22.103 15.4703 21.9773 15.3268 21.8831 15.1631C21.6921 14.8323 21.6403 14.4392 21.7391 14.0702C21.838 13.7013 22.0793 13.3867 22.4101 13.1957C22.7409 13.0047 23.134 12.9529 23.5029 13.0517C23.8719 13.1505 24.1865 13.3932 24.3775 13.724ZM48.121 54.849C48.5194 55.5383 48.2798 56.4106 47.5906 56.809C46.9014 57.2075 46.0264 56.9786 45.6279 56.2894C45.4369 55.9588 45.385 55.5659 45.4837 55.197C45.5825 54.8282 45.8236 54.5137 46.1542 54.3227C46.4848 54.1317 46.8778 54.0798 47.2466 54.1785C47.6154 54.2772 47.93 54.5184 48.121 54.849ZM15.1604 21.8858C15.8496 22.2842 16.0785 23.1592 15.68 23.8485C15.2815 24.539 14.4092 24.7773 13.72 24.3802C13.5562 24.2856 13.4127 24.1597 13.2975 24.0096C13.1824 23.8596 13.098 23.6883 13.049 23.5056C12.9502 23.1367 13.002 22.7436 13.193 22.4128C13.384 22.082 13.6986 21.8406 14.0675 21.7418C14.2502 21.6929 14.4408 21.6804 14.6283 21.7051C14.8158 21.7298 14.9966 21.7912 15.1604 21.8858ZM56.2854 45.6306C56.9746 46.0277 57.2035 46.9027 56.805 47.5933C56.4079 48.2825 55.5356 48.5221 54.845 48.1236C54.6813 48.0291 54.5378 47.9032 54.4228 47.7532C54.3078 47.6031 54.2234 47.4319 54.1745 47.2493C54.1256 47.0667 54.1132 46.8762 54.1379 46.6888C54.1627 46.5013 54.2241 46.3206 54.3187 46.1569C54.4132 45.9932 54.5391 45.8498 54.6892 45.7347C54.8392 45.6197 55.0104 45.5353 55.193 45.4864C55.3756 45.4375 55.5661 45.4251 55.7535 45.4499C55.941 45.4746 56.1217 45.536 56.2854 45.6306ZM11.2592 33.5637C12.0562 33.5637 12.6915 34.2071 12.6915 35.004C12.6915 35.7983 12.0562 36.4431 11.2592 36.4431C10.8772 36.4431 10.5109 36.2913 10.2407 36.0212C9.9706 35.7511 9.81885 35.3847 9.81885 35.0027C9.81885 34.6207 9.9706 34.2543 10.2407 33.9842C10.5109 33.7141 10.8772 33.5623 11.2592 33.5623V33.5637ZM58.7475 33.5637C59.5431 33.5637 60.1785 34.2071 60.1785 35.004C60.1785 35.7983 59.5431 36.4431 58.7475 36.4431C58.3655 36.4431 57.9991 36.2913 57.729 36.0212C57.4589 35.7511 57.3071 35.3847 57.3071 35.0027C57.3071 34.6207 57.4589 34.2543 57.729 33.9842C57.9991 33.7141 58.3655 33.5623 58.7475 33.5623V33.5637ZM13.72 45.6265C13.8834 45.532 14.0638 45.4708 14.2509 45.4463C14.4381 45.4218 14.6282 45.4346 14.8104 45.4839C14.9925 45.5332 15.1632 45.618 15.3124 45.7335C15.4617 45.849 15.5866 45.9929 15.68 46.1569C16.0785 46.8461 15.8496 47.7211 15.1604 48.1196C14.9967 48.2142 14.816 48.2756 14.6285 48.3003C14.4411 48.3251 14.2506 48.3126 14.068 48.2638C13.8854 48.2149 13.7142 48.1305 13.5641 48.0155C13.4141 47.9004 13.2882 47.757 13.1937 47.5933C13.0991 47.4296 13.0377 47.2488 13.0129 47.0614C12.9882 46.874 13.0006 46.6835 13.0495 46.5009C13.0984 46.3183 13.1827 46.147 13.2978 45.997C13.4128 45.847 13.5563 45.7211 13.72 45.6265ZM54.845 21.8817C55.0084 21.7873 55.189 21.7261 55.3761 21.7017C55.5633 21.6773 55.7535 21.6902 55.9357 21.7396C56.1179 21.789 56.2885 21.874 56.4377 21.9897C56.5869 22.1053 56.7117 22.2493 56.805 22.4135C56.9004 22.5763 56.9626 22.7564 56.9881 22.9433C57.0136 23.1303 57.0019 23.3205 56.9536 23.5029C56.9053 23.6853 56.8214 23.8564 56.7067 24.0063C56.592 24.1561 56.4488 24.2818 56.2854 24.3761C56.1216 24.4707 55.9408 24.5321 55.7533 24.5568C55.5658 24.5815 55.3752 24.569 55.1925 24.5201C55.0098 24.4712 54.8386 24.3867 54.6885 24.2716C54.5385 24.1565 54.4126 24.0129 54.318 23.8491C54.2234 23.6853 54.162 23.5045 54.1373 23.317C54.1126 23.1295 54.1251 22.939 54.174 22.7563C54.223 22.5736 54.3074 22.4023 54.4225 22.2523C54.5377 22.1022 54.6812 21.9763 54.845 21.8817ZM21.8817 54.8423C21.976 54.6787 22.1018 54.5353 22.2518 54.4205C22.4017 54.3057 22.573 54.2218 22.7555 54.1735C22.9381 54.1252 23.1285 54.1135 23.3156 54.1391C23.5027 54.1647 23.6829 54.2271 23.8458 54.3227C24.535 54.7198 24.7746 55.5921 24.3762 56.2827C24.2816 56.4465 24.1557 56.59 24.0056 56.7052C23.8556 56.8203 23.6843 56.9047 23.5016 56.9537C23.3189 57.0026 23.1284 57.0151 22.9409 56.9904C22.7533 56.9657 22.5725 56.9043 22.4088 56.8097C22.245 56.7151 22.1014 56.5892 21.9863 56.4392C21.8712 56.2891 21.7867 56.1178 21.7378 55.9352C21.6888 55.7525 21.6764 55.5619 21.7011 55.3744C21.7258 55.1869 21.7872 55.0061 21.8817 54.8423ZM45.6265 13.7173C45.7207 13.5537 45.8464 13.4104 45.9962 13.2956C46.146 13.1808 46.317 13.0968 46.4995 13.0483C46.6819 12.9999 46.8721 12.9881 47.0591 13.0135C47.2462 13.0389 47.4263 13.101 47.5892 13.1963C48.2785 13.5948 48.5181 14.4671 48.1196 15.1563C47.9286 15.4869 47.6141 15.7281 47.2453 15.8268C46.8764 15.9255 46.4835 15.8737 46.1529 15.6827C45.8223 15.4917 45.5811 15.1772 45.4824 14.8083C45.3837 14.4395 45.4355 14.0479 45.6265 13.7173Z" fill="#424E9B"/>
<path d="M42.0525 54.7319C41.8165 54.7317 41.588 54.6488 41.4067 54.4977C41.2255 54.3465 41.1029 54.1365 41.0603 53.9044C41.0178 53.6722 41.0579 53.4325 41.1737 53.2268C41.2896 53.0212 41.4738 52.8626 41.6945 52.7787C44.5109 51.7052 47.0328 49.9794 49.0533 47.7429C51.0739 45.5064 52.5356 42.8228 53.3185 39.9121C53.3879 39.6533 53.5573 39.4326 53.7895 39.2987C54.0216 39.1648 54.2974 39.1286 54.5563 39.198C54.8151 39.2674 55.0358 39.4369 55.1697 39.669C55.3036 39.9011 55.3399 40.1769 55.2704 40.4358C54.4038 43.6551 52.7865 46.6232 50.5511 49.0968C48.3158 51.5703 45.526 53.4789 42.4106 54.666C42.2963 54.7097 42.1749 54.732 42.0525 54.7319ZM35.0095 56.0175C30.5093 56.0294 26.1271 54.579 22.5225 51.8848C22.4161 51.8057 22.3263 51.7064 22.2583 51.5926C22.1902 51.4788 22.1453 51.3527 22.1259 51.2215C22.1066 51.0903 22.1133 50.9566 22.1457 50.828C22.1781 50.6994 22.2354 50.5785 22.3145 50.472C22.3937 50.3656 22.493 50.2758 22.6068 50.2078C22.7206 50.1397 22.8467 50.0948 22.9779 50.0754C23.1091 50.0561 23.2428 50.0628 23.3714 50.0952C23.5 50.1276 23.6209 50.1849 23.7273 50.2641C26.984 52.6976 30.9427 54.008 35.0081 53.9983C35.2759 53.9983 35.5327 54.1047 35.722 54.294C35.9114 54.4833 36.0177 54.7401 36.0177 55.0079C36.0177 55.2757 35.9114 55.5325 35.722 55.7218C35.5327 55.9111 35.2772 56.0175 35.0095 56.0175Z" fill="white"/>
</svg>
