<svg width="20" height="20" viewBox="0 0 20 20" fill="none" xmlns="http://www.w3.org/2000/svg">
<g clip-path="url(#clip0_16_6180)">
<path d="M19.9084 5.40406L14.5959 0.0915606C14.5373 0.0329759 14.4579 6.48499e-05 14.375 6.48499e-05C14.2921 6.48499e-05 14.2127 0.0329759 14.1541 0.0915606L12.3853 1.86031C12.3563 1.88933 12.3332 1.9238 12.3175 1.96174C12.3018 1.99967 12.2937 2.04034 12.2937 2.0814C12.2937 2.12247 12.3018 2.16314 12.3175 2.20107C12.3332 2.23901 12.3563 2.27348 12.3853 2.3025L14.1478 4.0625H12.8125C10.9898 4.06457 9.24229 4.78956 7.95342 6.07842C6.66456 7.36729 5.93957 9.11477 5.9375 10.9375C5.93742 11.0105 5.96289 11.0812 6.00949 11.1374C6.05609 11.1935 6.12088 11.2316 6.19263 11.245C6.26438 11.2584 6.33855 11.2463 6.40229 11.2107C6.46602 11.1752 6.5153 11.1184 6.54156 11.0503C6.60281 10.8925 8.10812 7.1875 13.4375 7.1875H14.1478L12.3853 8.9475C12.3563 8.97652 12.3332 9.01099 12.3175 9.04892C12.3018 9.08686 12.2937 9.12752 12.2937 9.16859C12.2937 9.20966 12.3018 9.25032 12.3175 9.28826C12.3332 9.3262 12.3563 9.36066 12.3853 9.38969L14.1541 11.1584C14.2127 11.217 14.2921 11.2499 14.375 11.2499C14.4579 11.2499 14.5373 11.217 14.5959 11.1584L19.9084 5.84594C19.967 5.78733 19.9999 5.70786 19.9999 5.625C19.9999 5.54213 19.967 5.46266 19.9084 5.40406Z" fill="white"/>
<path d="M15.9375 12.1875H13.4375C13.3546 12.1875 13.2751 12.2204 13.2165 12.279C13.1579 12.3376 13.125 12.4171 13.125 12.5V16.875H3.125V6.875H5.625C5.70788 6.875 5.78737 6.84208 5.84597 6.78347C5.90458 6.72487 5.9375 6.64538 5.9375 6.5625V4.0625C5.9375 3.97962 5.90458 3.90013 5.84597 3.84153C5.78737 3.78292 5.70788 3.75 5.625 3.75H2.8125C2.06683 3.75083 1.35194 4.04741 0.824676 4.57468C0.297409 5.10194 0.000827142 5.81683 0 6.5625L0 17.1875C0.000827142 17.9332 0.297409 18.6481 0.824676 19.1753C1.35194 19.7026 2.06683 19.9992 2.8125 20H13.4375C14.1832 19.9992 14.8981 19.7026 15.4253 19.1753C15.9526 18.6481 16.2492 17.9332 16.25 17.1875V12.5C16.25 12.4171 16.2171 12.3376 16.1585 12.279C16.0999 12.2204 16.0204 12.1875 15.9375 12.1875Z" fill="white"/>
</g>
<defs>
<clipPath id="clip0_16_6180">
<rect width="20" height="20" fill="white"/>
</clipPath>
</defs>
</svg>
