<svg width="110" height="110" viewBox="0 0 110 110" fill="none" xmlns="http://www.w3.org/2000/svg">
<path d="M9.58719 24.1828C8.69516 24.1897 7.97672 24.9081 7.96985 25.8019V38.7784C7.97672 39.6722 8.69516 40.3906 9.58719 40.3975H17.7048C18.5969 40.3906 19.3153 39.6722 19.3222 38.7784V25.8019C19.3153 24.9081 18.5969 24.1897 17.7048 24.1828H9.58719Z" fill="#D0E2EE"/>
<path d="M92.2951 24.1828C91.4031 24.1897 90.6847 24.9081 90.6778 25.8019V38.7784C90.6847 39.6722 91.4031 40.3906 92.2951 40.3975H100.413C101.305 40.3906 102.023 39.6722 102.03 38.7784V25.8019C102.023 24.9081 101.305 24.1897 100.413 24.1828H92.2951Z" fill="#D0E2EE"/>
<path d="M90.6778 33.9109V38.7784C90.6847 39.6722 91.4031 40.3906 92.2951 40.3975H100.413C101.305 40.3906 102.023 39.6722 102.03 38.7784V33.9109H90.6778Z" fill="#91A9D9"/>
<path d="M7.96985 33.9109V38.7784C7.97672 39.6722 8.69516 40.3906 9.58719 40.3975H17.7048C18.5969 40.3906 19.3153 39.6722 19.3222 38.7784V33.9109H7.96985Z" fill="#91A9D9"/>
<path d="M17.7048 19.3153C16.8042 19.3084 16.0737 20.0406 16.0737 20.9412V38.7784C16.0789 39.6722 16.8042 40.3975 17.7048 40.3975H92.2951C93.1958 40.3975 93.9211 39.6722 93.9262 38.7784V20.9412C93.9262 20.0406 93.1958 19.3084 92.2951 19.3153H17.7048Z" fill="#3A4D5C"/>
<path d="M37.027 19.3153C36.9806 19.8533 36.9462 20.3895 36.9462 20.9412C36.9462 30.8842 45.0501 38.9881 54.9931 38.9881C64.9429 38.9881 73.04 30.8842 73.04 20.9412C73.04 20.3895 73.0073 19.8533 72.9592 19.3153H37.027Z" fill="#143441"/>
<path d="M80.9496 33.9109V38.7784C80.9496 39.6722 81.6801 40.3975 82.5739 40.3975H93.9262V35.5369C93.9262 34.6431 93.2026 33.9109 92.3089 33.9109H80.9496Z" fill="#143441"/>
<path d="M82.567 37.1473C81.6681 37.1542 80.9428 37.8795 80.9497 38.7784V102.023C80.9428 102.917 81.6681 103.649 82.567 103.649H103.649C104.548 103.656 105.28 102.924 105.273 102.023V38.7784C105.28 37.8795 104.548 37.1473 103.649 37.1473H82.567Z" fill="#D0E2EE"/>
<path d="M87.4345 37.1542V103.649H82.5602C81.6681 103.649 80.9428 102.917 80.9497 102.023V38.7784C80.9428 37.8864 81.6681 37.1542 82.5602 37.1542H87.4345Z" fill="#91A9D9"/>
<path d="M16.0737 33.9109V38.7784C16.0789 39.6722 16.8042 40.3975 17.7048 40.3975H29.0503V35.5369C29.0572 34.6431 28.3319 33.9109 27.433 33.9109H16.0737Z" fill="#143441"/>
<path d="M6.34389 37.1473C5.44499 37.1542 4.71967 37.8795 4.72655 38.7784V102.023C4.71967 102.917 5.44499 103.649 6.34389 103.649H27.433C28.3319 103.649 29.0572 102.917 29.0503 102.023V38.7784C29.0572 37.8795 28.3319 37.1542 27.433 37.1473H6.34389Z" fill="#D0E2EE"/>
<path d="M22.5654 37.1542V103.649H27.4329C28.3318 103.649 29.0571 102.917 29.0503 102.023V38.7784C29.0571 37.8864 28.3318 37.1542 27.4329 37.1542H22.5654Z" fill="#91A9D9"/>
<path d="M12.8304 82.567C11.9367 82.5739 11.2182 83.2923 11.2114 84.1844V92.2883C11.2114 93.1889 11.9367 93.9142 12.8304 93.9211H20.9481C21.847 93.9142 22.5654 93.1889 22.5654 92.2883V84.1844C22.5586 83.2923 21.8401 82.5739 20.9481 82.567H12.8304Z" fill="#3A4D5C"/>
<path d="M12.8304 64.7213C11.9367 64.7213 11.2114 65.4534 11.2114 66.3472V74.4494C11.2114 75.35 11.9367 76.0753 12.8304 76.0822H20.9481C21.847 76.0753 22.5654 75.35 22.5654 74.4494V66.3472C22.5654 65.4534 21.847 64.7213 20.9481 64.7213H12.8304Z" fill="#3A4D5C"/>
<path d="M12.8304 46.8823C11.9367 46.8892 11.2114 47.6145 11.2114 48.5151V56.6173C11.2114 57.5111 11.9367 58.2433 12.8304 58.2433H20.9481C21.847 58.2433 22.5654 57.5111 22.5654 56.6173V48.5151C22.5654 47.6145 21.847 46.8892 20.9481 46.8823H12.8304Z" fill="#3A4D5C"/>
<path d="M84.1913 103.649V30.6762C84.1981 29.7756 83.466 29.0434 82.5671 29.0434H27.433C26.5341 29.0434 25.8019 29.7756 25.8088 30.6762V103.649H84.1913Z" fill="#D0E2EE"/>
<path d="M43.6476 84.1844C42.7539 84.1844 42.0286 84.9097 42.0286 85.8034V103.649H67.9714V85.8034C67.9714 84.9097 67.2461 84.1844 66.3523 84.1844H43.6476Z" fill="#6788CB"/>
<path d="M54.9931 35.5369C46.9494 35.5369 40.4044 28.9833 40.4044 20.9412C40.4044 12.8992 46.9494 6.35077 54.9931 6.35077C63.0369 6.35077 69.5887 12.8975 69.5887 20.9412C69.5887 28.985 63.0369 35.5369 54.9931 35.5369Z" fill="#DC1C4B"/>
<path d="M54.9931 12.8236C54.1011 12.8305 53.3758 13.5558 53.3758 14.4547V27.433C53.3827 28.3198 54.1011 29.0434 54.9931 29.0434C55.8938 29.0503 56.6174 28.325 56.6242 27.433V14.4547C56.6242 13.5558 55.8938 12.8236 54.9931 12.8236Z" fill="#D0E2EE"/>
<path d="M48.5151 19.3153C47.6145 19.3084 46.8823 20.0406 46.8892 20.9412C46.8892 21.8401 47.6214 22.5586 48.5151 22.5586H61.4848C62.3786 22.5586 63.1108 21.8401 63.1108 20.9412C63.1176 20.0406 62.3855 19.3084 61.4848 19.3153H48.5151Z" fill="#D0E2EE"/>
<path d="M89.0519 82.567C88.1598 82.5739 87.4414 83.2923 87.4345 84.1844V92.2883C87.4345 93.1889 88.1529 93.9142 89.0519 93.9211H97.1695C98.0633 93.9142 98.7886 93.1889 98.7886 92.2883V84.1844C98.7817 83.2923 98.0633 82.5739 97.1695 82.567H89.0519Z" fill="#3A4D5C"/>
<path d="M89.0519 64.7213C88.1529 64.7213 87.4345 65.4534 87.4345 66.3472V74.4494C87.4345 75.35 88.1529 76.0753 89.0519 76.0822H97.1695C98.0633 76.0753 98.7886 75.35 98.7886 74.4494V66.3472C98.7886 65.4534 98.0633 64.7213 97.1695 64.7213H89.0519Z" fill="#3A4D5C"/>
<path d="M89.0519 46.8823C88.1529 46.8892 87.4345 47.6145 87.4345 48.5151V56.6173C87.4345 57.5111 88.1529 58.2433 89.0519 58.2433H97.1695C98.0633 58.2433 98.7886 57.5111 98.7886 56.6173V48.5151C98.7886 47.6145 98.0633 46.8892 97.1695 46.8823H89.0519Z" fill="#3A4D5C"/>
<path d="M51.7636 93.921C50.8647 93.9141 50.1325 94.6446 50.1325 95.5452C50.1394 96.4441 50.8647 97.1626 51.7636 97.1626H58.2364C59.1353 97.1626 59.8606 96.4441 59.8675 95.5452C59.8675 94.6446 59.1353 93.9141 58.2364 93.921H51.7636Z" fill="#3A4D5C"/>
<path d="M54.9931 84.1844C54.1011 84.1844 53.3758 84.9097 53.3758 85.8034V103.649H56.6242V85.8034C56.6242 84.9028 55.8938 84.1792 54.9931 84.1844Z" fill="#D0E2EE"/>
<path d="M84.1929 76.0822H25.8087V87.4294H84.1929V76.0822Z" fill="#3A4D5C"/>
<path d="M35.5438 38.7784C34.6431 38.7733 33.9178 39.4969 33.9109 40.3975V48.5152C33.9178 49.4072 34.6431 50.1325 35.5438 50.1256H43.6477C44.5397 50.1325 45.2719 49.4072 45.2719 48.5152V40.3975C45.2719 39.4969 44.5397 38.7733 43.6477 38.7784H35.5438Z" fill="#3A4D5C"/>
<path d="M35.5438 55C34.6431 54.9931 33.9178 55.7184 33.9109 56.6173V69.5956C33.9178 70.4894 34.6431 71.2147 35.5438 71.2078H43.6477C44.5397 71.2147 45.2719 70.4894 45.2719 69.5956V56.6173C45.2719 55.7184 44.5397 54.9931 43.6477 55H35.5438Z" fill="#3A4D5C"/>
<path d="M50.1325 38.7784C49.2387 38.7784 48.5203 39.5038 48.5151 40.3975V48.5152C48.5203 49.4003 49.2387 50.1256 50.1325 50.1256H58.2364C59.1353 50.1325 59.8606 49.4072 59.8675 48.5152V40.3975C59.8606 39.4969 59.1353 38.7733 58.2364 38.7784H50.1325Z" fill="#3A4D5C"/>
<path d="M50.1325 55C49.2387 55 48.5203 55.7253 48.5151 56.6173V69.5956C48.5203 70.4825 49.2387 71.2078 50.1325 71.2078H58.2364C59.1353 71.2147 59.8606 70.4894 59.8675 69.5956V56.6173C59.8606 55.7184 59.1353 54.9931 58.2364 55H50.1325Z" fill="#3A4D5C"/>
<path d="M66.3523 38.7784C65.4603 38.7733 64.7281 39.4969 64.7281 40.3975V48.5152C64.7281 49.4072 65.4603 50.1325 66.3523 50.1256H74.4562C75.3568 50.1325 76.0822 49.4072 76.089 48.5152V40.3975C76.0822 39.4969 75.3568 38.7733 74.4562 38.7784H66.3523Z" fill="#3A4D5C"/>
<path d="M66.3523 55C65.4603 54.9931 64.7281 55.7184 64.7281 56.6173V69.5956C64.7281 70.4894 65.4603 71.2147 66.3523 71.2078H74.4562C75.3568 71.2147 76.0822 70.4894 76.089 69.5956V56.6173C76.0822 55.7184 75.3568 54.9931 74.4562 55H66.3523Z" fill="#3A4D5C"/>
<path d="M19.3221 46.8823V53.3758C19.3221 54.2678 18.6037 54.9931 17.7048 55H11.2114V56.6173C11.2114 57.5111 11.9367 58.2433 12.8304 58.2433H20.9481C21.847 58.2433 22.5654 57.5111 22.5654 56.6173V48.5083C22.5654 47.6145 21.847 46.8823 20.9481 46.8823H19.3221Z" fill="#143441"/>
<path d="M19.3221 64.7213V71.2147C19.3221 72.1067 18.6037 72.8389 17.7048 72.8389H11.2114V74.4563C11.2114 75.35 11.9367 76.0822 12.8304 76.0822H20.9481C21.847 76.0822 22.5654 75.35 22.5654 74.4563V66.3472C22.5654 65.4534 21.847 64.7213 20.9481 64.7213H19.3221Z" fill="#143441"/>
<path d="M19.3221 82.5533V89.0467C19.3221 89.9456 18.6037 90.6709 17.7048 90.6778H11.2114V92.2883C11.2114 93.1889 11.9367 93.9142 12.8304 93.9211H20.9481C21.847 93.9142 22.5654 93.1889 22.5654 92.2883V84.1843C22.5654 83.2923 21.847 82.5601 20.9481 82.5533H19.3221Z" fill="#143441"/>
<path d="M95.5384 46.8823V53.3758C95.5453 54.2678 94.82 54.9931 93.9262 55H87.4345V56.6173C87.4345 57.5111 88.153 58.2433 89.0519 58.2433H97.1695C98.0633 58.2433 98.7886 57.5111 98.7817 56.6173V48.5083C98.7886 47.6145 98.0633 46.8823 97.1695 46.8823H95.5384Z" fill="#143441"/>
<path d="M95.5384 64.7213V71.2147C95.5453 72.1067 94.82 72.8389 93.9262 72.8389H87.4345V74.4563C87.4345 75.35 88.153 76.0822 89.0519 76.0822H97.1695C98.0633 76.0822 98.7886 75.35 98.7817 74.4563V66.3472C98.7886 65.4534 98.0633 64.7213 97.1695 64.7213H95.5384Z" fill="#143441"/>
<path d="M95.5384 82.5533V89.0467C95.5453 89.9456 94.82 90.6709 93.9262 90.6778H87.4345V92.2883C87.4345 93.1889 88.153 93.9142 89.0519 93.9211H97.1695C98.0633 93.9142 98.7886 93.1889 98.7817 92.2883V84.1843C98.7886 83.2923 98.0633 82.5601 97.1695 82.5533H95.5384Z" fill="#143441"/>
<path d="M42.0286 38.7784V45.265C42.0286 46.1639 41.2964 46.8892 40.4044 46.8823H33.9109V48.5083C33.9109 49.4072 34.6431 50.1325 35.5438 50.1256H43.6477C44.5466 50.1325 45.2719 49.4072 45.2719 48.5083V40.3975C45.2719 39.4969 44.5397 38.7784 43.6477 38.7784H42.0286Z" fill="#143441"/>
<path d="M56.6242 38.7784V45.265C56.6173 46.1639 55.8937 46.8892 54.9931 46.8823H48.5082V48.5083C48.5082 49.4072 49.2336 50.1325 50.1325 50.1256H58.2364C59.1353 50.1325 59.8675 49.4072 59.8675 48.5083V40.3975C59.8606 39.4969 59.1353 38.7784 58.2364 38.7784H56.6242Z" fill="#143441"/>
<path d="M72.8457 38.7784V45.265C72.8457 46.1639 72.1136 46.8892 71.2146 46.8823H64.7281V48.5083C64.7281 49.4072 65.4603 50.1325 66.3523 50.1256H74.4562C75.3568 50.1325 76.089 49.4072 76.089 48.5083V40.3975C76.0822 39.4969 75.3568 38.7784 74.4562 38.7784H72.8457Z" fill="#143441"/>
<path d="M42.0286 55V66.3472C42.0286 67.2461 41.2964 67.9645 40.4044 67.9645H33.9109V69.5887C33.9178 70.4894 34.6431 71.2147 35.5438 71.2078H43.6477C44.5397 71.2147 45.2719 70.4894 45.2719 69.5887V56.6173C45.2719 55.7184 44.5397 55 43.6477 55H42.0286Z" fill="#143441"/>
<path d="M56.6912 55V66.3472C56.6844 67.2461 55.9608 67.9645 55.0601 67.9645H48.5684V69.5887C48.5753 70.4894 49.3075 71.2147 50.1995 71.2078H58.3034C59.2023 71.2147 59.9276 70.4894 59.9345 69.5887V56.6173C59.9276 55.7184 59.2023 55 58.3034 55H56.6912Z" fill="#143441"/>
<path d="M72.9128 55V66.3472C72.9059 67.2461 72.1806 67.9645 71.2817 67.9645H64.7952V69.5887C64.7952 70.4894 65.5274 71.2147 66.4211 71.2078H74.5233C75.4239 71.2147 76.1492 70.4894 76.1561 69.5887V56.6173C76.1492 55.7184 75.4239 55 74.5233 55H72.9128Z" fill="#143441"/>
<path d="M46.9631 10.6958C46.6417 10.7027 46.3255 10.7955 46.0642 10.9845C46.0642 10.9845 41.8 13.9511 41.8 19.47C41.8069 20.3638 42.5253 21.0822 43.419 21.0891C44.3111 21.0891 45.0433 20.3638 45.0433 19.47C45.0433 15.5891 47.8964 13.6486 47.8964 13.6486C48.6355 13.145 48.8228 12.1258 48.3123 11.3867C48.0047 10.9433 47.5011 10.6889 46.9631 10.6958Z" fill="#F0517A"/>
<path d="M28.722 30.1847C27.8283 30.1795 27.0978 30.9031 27.0978 31.7969V35.5506C27.091 36.4495 27.8231 37.1817 28.722 37.1817C29.621 37.1748 30.3463 36.4495 30.3394 35.5506V31.7969C30.3394 30.91 29.6141 30.1847 28.722 30.1847Z" fill="#F6FBFE"/>
<path d="M19.3566 20.7453C18.4559 20.7384 17.7306 21.4637 17.7238 22.3575V25.7417C17.7238 26.6406 18.4559 27.3728 19.3566 27.3659C19.3566 27.3659 20.9739 26.6337 20.9739 25.7417V22.3575C20.967 21.4637 20.2486 20.7453 19.3566 20.7453Z" fill="#5F8EA2"/>
<path d="M28.4058 77.4245C27.5069 77.4245 26.7885 78.1567 26.7885 79.0487C26.7953 79.9425 27.5138 80.6609 28.4058 80.6678H37.2883C38.182 80.6678 38.9142 79.9494 38.9142 79.0487C38.9211 78.1498 38.1889 77.4176 37.2883 77.4245H28.4058Z" fill="#5F8EA2"/>
<path d="M87.4414 38.0806C86.5425 38.0737 85.8172 38.7991 85.8103 39.6928V43.7611C85.8103 44.6669 86.5425 45.3991 87.4414 45.3922C88.3351 45.3922 89.0587 44.66 89.0587 43.7611V39.6928C89.0519 38.8059 88.3351 38.0806 87.4414 38.0806Z" fill="#F6FBFE"/>
<path d="M7.38543 38.2027C6.4848 38.1958 5.76121 38.9211 5.75433 39.82V43.8883C5.75433 44.7889 6.4848 45.5194 7.38543 45.5125C8.27746 45.5125 9.00277 44.782 9.00277 43.8883V39.82C8.9959 38.9262 8.27746 38.2027 7.38543 38.2027Z" fill="#F6FBFE"/>
<path d="M36.2072 39.5106C35.3083 39.5175 34.5898 40.2428 34.5898 41.1434V42.063C34.5967 42.955 35.3152 43.6734 36.2072 43.6803C37.1009 43.6803 37.8331 42.9619 37.8331 42.063V41.1434C37.84 40.2428 37.1078 39.5106 36.2072 39.5106Z" fill="#5F8EA2"/>
<path d="M50.9455 39.5106C50.0517 39.5175 49.3264 40.2428 49.3333 41.1434V42.063C49.3333 42.955 50.0586 43.6734 50.9455 43.6803C51.8444 43.6803 52.5697 42.9619 52.5766 42.063V41.1434C52.5766 40.2428 51.8513 39.5106 50.9455 39.5106Z" fill="#5F8EA2"/>
<path d="M36.2072 55.9126C35.3083 55.9126 34.5898 56.6448 34.5898 57.5386V58.4581C34.5967 59.3502 35.3152 60.0755 36.2072 60.0755C37.1009 60.0823 37.8331 59.357 37.8331 58.4581V57.5386C37.84 56.638 37.1078 55.9058 36.2072 55.9126Z" fill="#5F8EA2"/>
<path d="M50.9455 55.9126C50.0517 55.9126 49.3264 56.6448 49.3333 57.5386V58.4581C49.3333 59.3502 50.0586 60.0755 50.9455 60.0755C51.8444 60.0823 52.5697 59.357 52.5766 58.4581V57.5386C52.5766 56.638 51.8513 55.9058 50.9455 55.9126Z" fill="#5F8EA2"/>
<path d="M67.0845 39.5106C66.1856 39.5175 65.4672 40.2428 65.4672 41.1434V42.063C65.474 42.955 66.1925 43.6734 67.0845 43.6803C67.9783 43.6803 68.7104 42.9619 68.7104 42.063V41.1434C68.7156 40.2428 67.9851 39.5106 67.0845 39.5106Z" fill="#5F8EA2"/>
<path d="M67.0845 55.9126C66.1856 55.9126 65.4672 56.6448 65.4672 57.5386V58.4581C65.474 59.3502 66.1925 60.0755 67.0845 60.0755C67.9783 60.0823 68.7104 59.357 68.7104 58.4581V57.5386C68.7156 56.638 67.9851 55.9058 67.0845 55.9126Z" fill="#5F8EA2"/>
<path d="M13.6159 47.5011C12.7222 47.5011 11.9969 48.2316 11.9969 49.1253V50.0517C12.0038 50.9386 12.7222 51.6639 13.6159 51.6639C14.5149 51.6691 15.2402 50.9455 15.247 50.0517V49.1253C15.247 48.2264 14.5149 47.4942 13.6159 47.5011Z" fill="#5F8EA2"/>
<path d="M13.6159 65.3795C12.7222 65.3864 11.9969 66.1117 11.9969 67.0106V67.9301C12.0038 68.8239 12.7222 69.5423 13.6159 69.5492C14.5149 69.5492 15.2402 68.8239 15.247 67.9301V67.0106C15.247 66.1117 14.5149 65.3795 13.6159 65.3795Z" fill="#5F8EA2"/>
<path d="M13.6159 83.6086C12.7222 83.6137 11.9969 84.3391 11.9969 85.2397V86.1592C12.0038 87.0512 12.7222 87.7697 13.6159 87.7765C14.5149 87.7765 15.2402 87.0581 15.247 86.1592V85.2397C15.247 84.3391 14.5149 83.6086 13.6159 83.6086Z" fill="#5F8EA2"/>
<path d="M89.7239 47.5011C88.825 47.5011 88.1066 48.2316 88.1066 49.1253V50.0517C88.1134 50.9386 88.8319 51.6639 89.7239 51.6639C90.6177 51.6691 91.3481 50.9455 91.3481 50.0517V49.1253C91.355 48.2264 90.6245 47.4942 89.7239 47.5011Z" fill="#5F8EA2"/>
<path d="M89.7239 65.3795C88.825 65.3864 88.1066 66.1117 88.1066 67.0106V67.9301C88.1134 68.8239 88.8319 69.5423 89.7239 69.5492C90.6177 69.5492 91.3481 68.8239 91.3481 67.9301V67.0106C91.355 66.1117 90.6245 65.3795 89.7239 65.3795Z" fill="#5F8EA2"/>
<path d="M89.7239 83.6086C88.825 83.6137 88.1066 84.3391 88.1066 85.2397V86.1592C88.1134 87.0512 88.8319 87.7697 89.7239 87.7765C90.6177 87.7765 91.3481 87.0581 91.3481 86.1592V85.2397C91.355 84.3391 90.6245 83.6086 89.7239 83.6086Z" fill="#5F8EA2"/>
</svg>
