<svg width="70" height="70" viewBox="0 0 70 70" fill="none" xmlns="http://www.w3.org/2000/svg">
<path d="M26.3867 41.6719C18.8087 38.9648 13.1589 34.761 9.95314 30.0289C7.55783 33.0148 3.96486 32.118 3.44533 28.8695C3.1172 26.7914 3.66955 24.057 4.75783 21.0656C6.64553 15.9908 9.93134 11.5542 14.2352 8.26875C19.0203 4.52266 27.1195 0.771094 36.5258 2.48281C56.2899 6.08125 60.5774 23.8984 56.2625 36.8266C54.4458 42.257 51.4123 44.8109 49.2942 45.9856C48.0558 46.6663 46.6164 46.887 45.231 46.6085C41.6867 45.9096 33.2079 44.1115 26.3867 41.6719Z" fill="#6565C2"/>
<path d="M26.58 42.1348C19.4808 39.529 14.188 35.4822 11.1848 30.927C8.94079 33.8013 5.57483 32.938 5.08813 29.8109C4.78074 27.8105 5.29818 25.1783 6.3177 22.2986C8.08613 17.4135 11.1643 13.1426 15.1962 9.97999C19.6791 6.37389 27.2665 2.76252 36.0785 4.41028C54.5938 7.87424 58.6104 25.0256 54.5682 37.4706C52.8662 42.6981 50.0244 45.1566 48.0402 46.2874C46.88 46.9427 45.5316 47.1551 44.2336 46.887C40.9132 46.2142 32.9702 44.4833 26.58 42.1348Z" fill="#38367A"/>
<path d="M51.9477 53.4898C50.7239 52.5101 49.7196 51.2841 49 49.8914C48.6281 49.2461 48.2727 48.5297 47.9391 47.8242C47.4141 46.6867 46.9602 45.5711 46.6539 44.7945C46.6231 44.7186 46.6143 44.6356 46.6284 44.5549C46.6425 44.4742 46.679 44.399 46.7337 44.3381C46.7885 44.2771 46.8592 44.2327 46.9379 44.2099C47.0166 44.1872 47.1001 44.187 47.1789 44.2094C49.607 44.9258 52.2539 41.8633 53.0469 39.5828C53.9328 37.0289 53.1563 33.8351 50.4766 32.9273C50.4492 32.9219 50.4219 32.9109 50.3945 32.9055C47.1844 32.2711 45.8391 33.9281 45.0187 35.1422C44.9623 35.2216 44.882 35.2808 44.7895 35.3113C44.6971 35.3418 44.5973 35.342 44.5047 35.3117C42.8859 34.8031 40.775 32.4844 40.4523 29.5203C40.3137 29.4915 40.1768 29.455 40.0422 29.4109C36.5969 28.2953 33.7258 25.0469 29.1648 21.0875C28.0984 20.1633 26.7695 19.8898 26.1953 21.175C23.5648 27.1141 21.5633 28.7547 19.6 30.543C17.2539 32.6703 13.5297 33.1297 12.1297 31.4945C11.7338 31.0353 11.4356 30.5003 11.2532 29.922C11.0708 29.3438 11.008 28.7345 11.0687 28.1312C10.786 28.8121 10.4106 29.4507 9.95312 30.0289C11.5391 37.2969 12.2992 41.4805 14.1367 46.5937C15.2469 49.7 18.7688 54.9828 24.0844 56.2898C30.018 57.7555 35.5031 55.0047 38.8609 52.4344C39.6756 53.2581 40.4304 54.139 41.1195 55.0703C41.3164 55.3437 41.4859 55.6062 41.6281 55.8469C42.0383 56.5359 42.1859 57.0609 41.9234 57.2469C41.174 57.647 40.3591 57.91 39.5172 58.0234C37.3953 62.6172 44.6633 62.3875 48.3055 59.9266C50.4887 58.527 52.3386 56.6659 53.725 54.4742C53.0867 54.2367 52.4876 53.9049 51.9477 53.4898Z" fill="#F8BDA9"/>
<path d="M31.6575 30.8594C30.7611 31.4409 29.757 31.8362 28.7048 32.0219C27.6525 32.2075 26.5737 32.1797 25.5325 31.94C25.3231 31.883 25.1416 31.7516 25.0222 31.5704C24.9028 31.3891 24.8536 31.1706 24.8839 30.9557C24.9123 30.7308 25.0251 30.5251 25.1994 30.3803C25.3738 30.2354 25.5966 30.1621 25.8229 30.1753C27.3004 30.3035 28.7889 30.1871 30.2285 29.8307C31.2408 29.5026 31.6799 29.7115 31.8691 29.9948C31.9519 30.1385 31.9761 30.3085 31.9366 30.4695C31.8972 30.6306 31.7972 30.7702 31.6575 30.8594Z" fill="#1C1C3D"/>
<path d="M11.7135 35.3595C12.6066 35.5543 13.5296 35.5675 14.4278 35.3984C15.3261 35.2293 16.1811 34.8813 16.9422 34.3751C17.0922 34.2658 17.1973 34.1057 17.238 33.9246C17.2788 33.7435 17.2524 33.5538 17.1637 33.3908C17.0734 33.219 16.9212 33.0879 16.738 33.0241C16.5547 32.9602 16.3541 32.9683 16.1766 33.0468C15.0324 33.5959 13.8055 33.9527 12.5453 34.1028C11.6353 34.1443 11.3471 34.4457 11.2831 34.7301C11.2601 34.8702 11.292 35.0138 11.3721 35.1311C11.4523 35.2483 11.5746 35.3301 11.7135 35.3595Z" fill="#1C1C3D"/>
<path d="M28.0039 37.9531C27.8642 37.9531 27.727 37.9174 27.605 37.8495C27.483 37.7815 27.3804 37.6836 27.3069 37.5649C27.2333 37.4463 27.1913 37.3108 27.1847 37.1714C27.1782 37.0319 27.2073 36.8931 27.2694 36.768C28.5015 34.2858 31.7653 34.3951 32.8568 34.8567C33.0522 34.9448 33.2053 35.1058 33.2835 35.3053C33.3617 35.5048 33.3587 35.727 33.2752 35.9243C33.1917 36.1216 33.0342 36.2785 32.8366 36.3612C32.6389 36.444 32.4167 36.4461 32.2175 36.3672C31.7253 36.1588 29.4749 36.0134 28.7394 37.497C28.6715 37.6341 28.5666 37.7494 28.4367 37.83C28.3067 37.9106 28.1568 37.9532 28.0039 37.9531Z" fill="#252260"/>
<path d="M17.9883 39.5341C17.7775 39.534 17.5748 39.4527 17.4223 39.3072C17.0693 39.0025 16.6499 38.7844 16.1977 38.6705C15.7455 38.5566 15.2728 38.5499 14.8176 38.6509C14.6604 38.7965 14.4525 38.8748 14.2384 38.8691C14.0242 38.8634 13.8208 38.7741 13.6716 38.6204C13.5224 38.4667 13.4392 38.2607 13.4399 38.0465C13.4405 37.8323 13.525 37.6268 13.6751 37.4741C14.519 36.604 17.1347 36.7675 18.5538 38.1199C18.6725 38.233 18.7546 38.379 18.7895 38.5391C18.8244 38.6993 18.8105 38.8662 18.7496 39.0184C18.6888 39.1706 18.5838 39.301 18.4481 39.393C18.3124 39.4849 18.1522 39.5341 17.9883 39.5341Z" fill="#252260"/>
<path d="M22.8528 47.8062C23.5249 48.4947 22.5985 49.8373 23.7617 49.8373C25.1185 49.8373 25.3952 48.6948 25.3274 47.6536C25.2651 46.6933 24.3769 45.5142 23.2225 45.9118C22.3382 46.2164 22.1659 47.1018 22.8528 47.8062Z" fill="white"/>
<path d="M21.064 42.1974C20.9409 42.1976 20.8194 42.17 20.7084 42.1168C20.5974 42.0635 20.4999 41.986 20.4229 41.89C20.346 41.7939 20.2916 41.6817 20.2639 41.5618C20.2362 41.4419 20.2358 41.3173 20.2628 41.1972C20.3458 40.9209 20.5046 40.6734 20.7211 40.4828C20.9376 40.2922 21.2033 40.1661 21.4878 40.1188C21.8496 40.0034 22.2354 39.9853 22.6064 40.0664C22.9773 40.1476 23.3204 40.325 23.601 40.5809C23.7432 40.7407 23.8174 40.9498 23.8077 41.1635C23.7979 41.3773 23.7051 41.5787 23.5489 41.725C23.3928 41.8712 23.1856 41.9507 22.9717 41.9464C22.7578 41.9421 22.554 41.8544 22.4038 41.702C22.2042 41.6543 21.9949 41.6667 21.8023 41.7375C21.7347 41.8757 21.6297 41.9921 21.4991 42.0734C21.3686 42.1547 21.2178 42.1977 21.064 42.1974Z" fill="#EB9E8C"/>
<path d="M47.7323 39.404C47.6746 39.4039 47.6171 39.3978 47.5606 39.3859C47.4552 39.3635 47.3553 39.3206 47.2665 39.2595C47.1777 39.1984 47.1018 39.1205 47.0431 39.0301C46.9845 38.9397 46.9442 38.8386 46.9246 38.7327C46.905 38.6267 46.9065 38.5179 46.929 38.4125C47.308 36.6302 49.1816 35.8832 50.3912 36.0227C50.4986 36.0349 50.6026 36.0682 50.6971 36.1207C50.7915 36.1731 50.8747 36.2438 50.9418 36.3285C51.0089 36.4133 51.0586 36.5104 51.088 36.6144C51.1174 36.7184 51.126 36.8272 51.1133 36.9345C51.1005 37.0419 51.0667 37.1456 51.0137 37.2398C50.9607 37.334 50.8896 37.4168 50.8046 37.4835C50.7195 37.5502 50.6221 37.5993 50.5179 37.6282C50.4138 37.6571 50.3049 37.6651 50.1977 37.6518C49.837 37.6225 49.4769 37.7151 49.1752 37.915C48.8735 38.1148 48.6477 38.4102 48.5341 38.7538C48.4951 38.9376 48.3942 39.1024 48.2483 39.2208C48.1024 39.3391 47.9202 39.4038 47.7323 39.404Z" fill="#EB9E8C"/>
<path d="M9.1328 54.8248C9.00025 54.8655 8.8571 54.8536 8.73313 54.7915C8.60916 54.7293 8.51393 54.6218 8.46725 54.4912C8.35662 54.1678 8.1796 53.8711 7.94756 53.6201C7.71551 53.3692 7.43357 53.1695 7.11982 53.0339C6.80606 52.8983 6.46743 52.8298 6.12565 52.8328C5.78386 52.8358 5.44648 52.9102 5.13515 53.0513C4.7046 53.2479 4.3434 53.5698 4.09879 53.975C3.85418 54.3803 3.73754 54.8499 3.76413 55.3224C3.76529 55.4397 3.72801 55.5542 3.65799 55.6483C3.58798 55.7424 3.48907 55.811 3.3764 55.8436C2.73548 56.0313 2.18508 56.4464 1.82845 57.0111C1.47182 57.5757 1.33347 58.2511 1.43936 58.9105C1.5112 59.503 1.77097 60.0569 2.18058 60.491C2.59019 60.9252 3.12811 61.2166 3.71546 61.3227C3.79238 61.3372 3.86521 61.3682 3.92884 61.4138C3.99248 61.4593 4.04538 61.5183 4.08384 61.5864C4.12229 61.6546 4.14537 61.7303 4.15145 61.8083C4.15754 61.8863 4.14648 61.9648 4.11905 62.0381C3.92768 62.6455 3.97232 63.3027 4.24407 63.8786C4.51583 64.4546 4.99472 64.9069 5.58522 65.1454C5.94406 65.2609 6.32232 65.3038 6.69791 65.2715C7.0735 65.2392 7.43889 65.1324 7.77272 64.9573C7.87091 64.9083 7.98158 64.8899 8.09032 64.9047C8.19907 64.9194 8.30087 64.9665 8.38249 65.0398C8.80312 65.3809 9.32073 65.5804 9.86145 65.6099C10.4022 65.6393 10.9384 65.4972 11.3936 65.2039C11.8072 64.9018 12.0975 64.4601 12.2107 63.9606C12.3239 63.461 12.2524 62.9374 12.0094 62.4865C11.9657 62.3982 11.9464 62.2999 11.9535 62.2016C11.9605 62.1034 11.9936 62.0088 12.0493 61.9276C12.9992 60.451 18.3258 53.4691 21.2466 50.6997C21.3609 50.5918 21.4301 50.4446 21.4403 50.2877C21.4504 50.1309 21.4008 49.976 21.3013 49.8542C21.2031 49.7321 21.0622 49.6516 20.9071 49.6291C20.752 49.6066 20.5941 49.6436 20.4651 49.7328C17.6597 51.6644 11.795 53.9815 9.1328 54.8248Z" fill="#FFE1D8"/>
<path d="M8.94797 42.0547C7.31828 44.812 11.7567 47.8877 17.6564 44.0021L18.1759 43.6193C18.2514 43.5642 18.3091 43.4881 18.3419 43.4006C18.3746 43.313 18.381 43.2178 18.3603 43.1266C18.3395 43.0355 18.2925 42.9524 18.225 42.8876C18.1576 42.8229 18.0726 42.7794 17.9807 42.7624C15.2163 42.2817 10.4869 39.4521 8.94797 42.0547Z" fill="#FFE1D8"/>
<path d="M66.8932 68.6219H29.0905C28.9054 68.6217 28.7234 68.5747 28.5615 68.485C28.3996 68.3954 28.263 68.2662 28.1647 68.1094C28.0663 67.9526 28.0094 67.7735 27.9991 67.5887C27.9889 67.4039 28.0257 67.2196 28.1061 67.0529C29.4558 64.3065 31.1472 61.431 33.1034 60.0797C34.5487 59.0834 36.2161 58.4563 37.9597 58.2531C38.4956 58.1711 39.0151 58.1055 39.5183 58.0234C37.3964 62.6172 44.6644 62.3875 48.3065 59.9266C50.4898 58.527 52.3397 56.6659 53.7261 54.4742C54.1147 54.6217 54.5131 54.7423 54.9183 54.8351C59.4108 55.8682 64.4011 59.3195 67.8956 67.0802C67.9696 67.2472 68.0008 67.43 67.9863 67.6121C67.9717 67.7942 67.912 67.9697 67.8124 68.1229C67.7128 68.276 67.5766 68.4018 67.4161 68.489C67.2556 68.5761 67.0758 68.6218 66.8932 68.6219Z" fill="#FFB103"/>
<path d="M42.5228 62.4865C41.35 62.5584 40.1887 62.2209 39.2372 61.5316C38.6356 61.0198 37.7748 59.8391 38.7723 57.6795C38.8175 57.5816 38.8815 57.4937 38.9607 57.4206C39.0398 57.3475 39.1326 57.2907 39.2337 57.2535C39.3348 57.2163 39.4423 57.1994 39.5499 57.2037C39.6576 57.208 39.7633 57.2334 39.8611 57.2786C39.959 57.3238 40.0469 57.3878 40.12 57.4669C40.1931 57.5461 40.2499 57.6389 40.2871 57.74C40.3243 57.8411 40.3412 57.9485 40.3369 58.0562C40.3326 58.1639 40.3072 58.2696 40.262 58.3674C39.6375 59.7187 40.1362 60.142 40.2997 60.2815C41.5696 61.3605 45.518 60.8191 47.8466 59.2468C49.9146 57.9108 51.6662 56.1397 52.979 54.057L53.0392 53.9651C53.1583 53.783 53.3448 53.6556 53.5578 53.6111C53.7707 53.5665 53.9927 53.6084 54.1748 53.7275C54.3569 53.8465 54.4842 54.0331 54.5288 54.246C54.5733 54.459 54.5315 54.6809 54.4124 54.863L54.3533 54.9527C52.9237 57.2212 51.0165 59.1505 48.7648 60.6063C46.8994 61.8013 44.7378 62.4524 42.5228 62.4865Z" fill="white"/>
<path d="M9.43414 51.7984C9.22751 51.7985 9.02843 51.7207 8.87668 51.5805C8.72493 51.4403 8.63169 51.2479 8.61559 51.0419C8.5995 50.8359 8.66173 50.6315 8.78986 50.4694C8.91799 50.3073 9.10257 50.1995 9.30671 50.1676C10.2903 49.9995 11.2461 49.6968 12.1472 49.268C12.2426 49.2177 12.3469 49.1867 12.4542 49.1768C12.5616 49.1668 12.6699 49.1781 12.7728 49.21C12.8758 49.2419 12.9715 49.2937 13.0545 49.3626C13.1374 49.4315 13.206 49.516 13.2562 49.6114C13.3065 49.7068 13.3375 49.8111 13.3475 49.9185C13.3574 50.0258 13.3461 50.1341 13.3142 50.2371C13.2823 50.34 13.2305 50.4357 13.1616 50.5187C13.0927 50.6016 13.0082 50.6702 12.9128 50.7205C11.8523 51.2335 10.7243 51.5933 9.56265 51.7891C9.52011 51.7954 9.47715 51.7985 9.43414 51.7984Z" fill="#FFE1D8"/>
<path d="M15.7774 62.8808C15.6431 62.8808 15.5108 62.8478 15.3922 62.7848C15.2736 62.7218 15.1723 62.6306 15.0972 62.5192C15.0221 62.4079 14.9754 62.2798 14.9614 62.1462C14.9474 62.0126 14.9663 61.8776 15.0167 61.7531C15.5778 60.3613 16.2274 58.9586 17.1713 58.1257C17.2518 58.0526 17.346 57.9963 17.4485 57.9599C17.5509 57.9236 17.6595 57.908 17.7681 57.914C17.8766 57.92 17.9828 57.9475 18.0806 57.9949C18.1784 58.0423 18.2659 58.1087 18.3378 58.1902C18.4097 58.2717 18.4647 58.3667 18.4996 58.4696C18.5345 58.5725 18.5486 58.6814 18.5411 58.7898C18.5336 58.8983 18.5046 59.0041 18.4558 59.1012C18.407 59.1984 18.3394 59.2848 18.2569 59.3556C17.5667 59.9648 16.9991 61.2199 16.5381 62.3667C16.477 62.5185 16.3719 62.6485 16.2364 62.7401C16.1008 62.8317 15.941 62.8807 15.7774 62.8808Z" fill="#FFE1D8"/>
<path d="M56.8258 45.2019C57.3281 45.331 57.7999 45.5582 58.2141 45.8703C58.6283 46.1824 58.9767 46.5732 59.2393 47.0205C59.5019 47.4677 59.6735 47.9624 59.7442 48.4762C59.815 48.99 59.7834 49.5126 59.6515 50.0142C59.5195 50.5157 59.2896 50.9862 58.9752 51.3986C58.6607 51.811 58.2678 52.1572 57.8191 52.4173C57.3704 52.6773 56.8747 52.8461 56.3605 52.9138C55.8464 52.9816 55.3239 52.9471 54.8231 52.8123C52.722 52.2594 48.5078 49.3281 49.0623 47.2276C49.6169 45.127 54.7241 44.6491 56.8258 45.2019Z" fill="#1C1C3D"/>
<path d="M44.636 51.1C43.9566 52.7893 42.7144 54.1919 41.1196 55.0703C40.4304 54.139 39.6756 53.2581 38.861 52.4344C40.4921 50.858 41.9047 49.0702 43.061 47.1187C43.1633 46.9483 43.3142 46.8122 43.4944 46.7282C43.6745 46.6441 43.8757 46.6159 44.0721 46.647C44.2685 46.6782 44.451 46.7673 44.5963 46.9031C44.7416 47.0388 44.843 47.2148 44.8875 47.4086C45.2014 48.6342 45.1132 49.9283 44.636 51.1Z" fill="#EB9E8C"/>
<path d="M14.7591 33.2998C14.624 33.2998 14.4906 33.2954 14.3571 33.2872C13.8216 33.2814 13.2929 33.1669 12.8029 32.9507C12.313 32.7345 11.872 32.4211 11.5068 32.0294C11.0421 31.4879 10.6912 30.8583 10.4751 30.1783C10.2589 29.4982 10.1821 28.7815 10.249 28.0711C10.2553 27.9623 10.2832 27.8559 10.331 27.758C10.3789 27.6601 10.4458 27.5728 10.5278 27.501C10.6098 27.4293 10.7052 27.3746 10.8086 27.3401C10.9119 27.3057 11.0211 27.2922 11.1298 27.3004C11.2384 27.3086 11.3443 27.3384 11.4413 27.388C11.5384 27.4375 11.6245 27.506 11.6948 27.5892C11.7651 27.6725 11.8181 27.7689 11.8507 27.8728C11.8833 27.9768 11.8949 28.0862 11.8847 28.1947C11.8331 28.6903 11.8831 29.1912 12.0317 29.6668C12.1802 30.1424 12.4242 30.5827 12.7488 30.9608C13.205 31.4078 13.8196 31.6561 14.4583 31.6515C16.1505 31.6866 17.7921 31.0732 19.0466 29.937L19.32 29.6877C21.1313 28.047 23.0043 26.3484 25.4417 20.8447C25.5675 20.5195 25.7707 20.2299 26.0339 20.0011C26.297 19.7724 26.6121 19.6114 26.9517 19.5322C27.4507 19.4662 27.9582 19.5163 28.4346 19.6786C28.9111 19.8409 29.3437 20.111 29.6986 20.4679C30.7924 21.4173 31.7685 22.307 32.713 23.1678C35.5748 25.7759 37.8345 27.8354 40.2916 28.6311C40.3958 28.6654 40.5019 28.6939 40.6093 28.7164C42.4567 29.1408 44.4287 28.2516 44.9411 26.7794C45.7735 24.4109 41.8907 19.3528 38.9742 17.2266C38.7982 17.0985 38.6804 16.9058 38.6465 16.6908C38.6127 16.4759 38.6656 16.2563 38.7937 16.0803C38.9218 15.9044 39.1145 15.7865 39.3295 15.7527C39.5444 15.7188 39.764 15.7718 39.94 15.8999C42.9565 18.0977 47.7264 23.7891 46.4932 27.3192C45.7062 29.5821 42.9128 30.9285 40.2686 30.3199C40.1076 30.286 39.9486 30.2433 39.7923 30.1919C36.995 29.2868 34.6172 27.1212 31.6094 24.3802C30.6721 23.526 29.703 22.6423 28.6257 21.7071C28.4588 21.5242 28.2552 21.3786 28.0282 21.2799C27.8011 21.1811 27.5558 21.1314 27.3082 21.134C27.2486 21.1471 27.0895 21.1821 26.9429 21.5097C24.3655 27.329 22.3617 29.1452 20.4236 30.9017L20.1502 31.1495C18.6699 32.4907 16.7561 33.254 14.7591 33.2998Z" fill="#22224F"/>
<path d="M9.95315 30.8492C9.79835 30.8491 9.64675 30.8051 9.51587 30.7224C9.38499 30.6398 9.28018 30.5217 9.21355 30.382C9.14692 30.2423 9.12118 30.0865 9.13932 29.9328C9.15745 29.7791 9.21872 29.6336 9.31604 29.5132C9.72557 28.9934 10.0618 28.4199 10.3152 27.8086L13.831 19.5781C13.92 19.3835 14.0815 19.2314 14.2811 19.1542C14.4807 19.077 14.7025 19.0809 14.8993 19.1649C15.096 19.249 15.2522 19.4066 15.3344 19.6041C15.4166 19.8017 15.4184 20.0235 15.3393 20.2223L11.8235 28.4534C11.5103 29.2035 11.0957 29.9071 10.5914 30.5446C10.5144 30.6398 10.4172 30.7165 10.3068 30.7692C10.1963 30.8219 10.0755 30.8493 9.95315 30.8492Z" fill="#22224F"/>
</svg>
