<svg width="48" height="48" viewBox="0 0 48 48" fill="none" xmlns="http://www.w3.org/2000/svg">
<path fill-rule="evenodd" clip-rule="evenodd" d="M15.9423 3.57556L12.0018 4.17368C11.2856 4.28226 10.6463 4.68262 10.2359 5.27929C9.82527 5.87615 9.68001 6.6161 9.83462 7.32388L10.5814 10.7443C10.6312 10.9722 10.8167 11.1457 11.0476 11.1802C16.0417 11.9241 21.3701 11.9225 26.9854 11.1772C27.22 11.1459 27.4098 10.9712 27.4603 10.74L28.2008 7.34887C28.3565 6.63606 28.208 5.89053 27.7909 5.29188C27.3739 4.69323 26.7263 4.29538 26.0036 4.19417L21.6705 3.58779C21.333 3.54051 20.9936 3.65934 20.7592 3.90671L19.3235 5.42204L18.7961 3.24082C18.7119 2.89296 18.457 2.61161 18.1192 2.4935C17.7814 2.37538 17.4069 2.43687 17.1243 2.65637L15.9423 3.57556Z" fill="#FFB103"/>
<path fill-rule="evenodd" clip-rule="evenodd" d="M27.5412 19.908C27.6557 19.8015 27.7206 19.6525 27.7206 19.4963V16.3335C27.7206 16.1722 27.6514 16.0187 27.5306 15.9121C27.4096 15.8055 27.2487 15.7559 27.0887 15.776C21.4253 16.4883 16.0349 16.487 10.9586 15.7884C10.7977 15.7661 10.6352 15.8147 10.5127 15.9214C10.3905 16.0281 10.3202 16.1825 10.3202 16.3448V36.8054C10.3202 41.6072 14.2186 45.5056 19.0204 45.5056C23.8222 45.5056 27.7206 41.6072 27.7206 36.8054V30.9737C27.7206 30.8174 27.6557 30.6682 27.5412 30.562C26.1113 29.2343 25.2158 27.3384 25.2158 25.2349C25.2158 23.1315 26.1113 21.2354 27.5412 19.908Z" fill="#D0E2EE"/>
<path fill-rule="evenodd" clip-rule="evenodd" d="M28.0297 16.7858C29.8959 16.5304 31.2018 14.8105 30.9465 12.9442C30.6912 11.078 28.9713 9.77189 27.1049 10.0272C21.4188 10.8052 16.0311 10.8103 10.992 10.0354C9.13025 9.74906 7.38876 11.0264 7.10256 12.8881C6.81618 14.7501 8.09348 16.4914 9.95524 16.7776C15.6077 17.6468 21.6514 17.6585 28.0297 16.7858Z" fill="#A8C2E1"/>
<path fill-rule="evenodd" clip-rule="evenodd" d="M25.1468 31.5036C25.1473 30.5803 24.4598 29.8015 23.5437 29.6874C23.5392 29.6868 23.5349 29.6863 23.5304 29.6857C22.97 29.6295 22.405 29.6293 21.8391 29.7154C20.6367 29.8984 19.8748 30.4791 19.2246 31.209C18.6659 31.836 18.2011 32.5861 17.5353 33.227C17.4213 33.3366 17.3032 33.4452 17.1811 33.5525C17.0527 33.6653 16.9826 33.8303 16.9905 34.0009C16.9984 34.1717 17.0838 34.3293 17.2221 34.4297C17.9286 34.9415 18.7076 35.3328 19.6341 35.5414C21.2735 35.9105 22.9319 35.9698 24.5956 35.9383C24.9017 35.9324 25.1468 35.6827 25.1468 35.3765V31.5036Z" fill="#B01D47"/>
<path fill-rule="evenodd" clip-rule="evenodd" d="M15.3868 31.1425C15.3771 31.1336 15.3672 31.125 15.357 31.1169C14.9059 30.7567 14.2884 30.6865 13.7683 30.9368C13.2498 31.1863 12.9194 31.71 12.9174 32.2849C12.894 34.0953 12.894 36.8054 12.894 36.8054C12.894 40.1866 15.6392 42.9318 19.0204 42.9318C22.4016 42.9318 25.1468 40.1866 25.1468 36.8054V35.3765C25.1468 35.2257 25.0862 35.0812 24.9785 34.9756C24.8709 34.8699 24.7252 34.812 24.5744 34.8149C23.0007 34.8447 21.4316 34.7944 19.881 34.4453C18.4175 34.1158 17.4003 33.2282 16.3883 32.174C16.0845 31.8576 15.7528 31.4795 15.3868 31.1425Z" fill="#DC1C4B"/>
<path d="M32.4849 33.6275C37.12 33.6275 40.8775 29.87 40.8775 25.2349C40.8775 20.5997 37.12 16.8422 32.4849 16.8422C27.8497 16.8422 24.0922 20.5997 24.0922 25.2349C24.0922 29.87 27.8497 33.6275 32.4849 33.6275Z" fill="#DC1C4B"/>
<path fill-rule="evenodd" clip-rule="evenodd" d="M30.2824 23.0324H28.219C27.9087 23.0324 27.6572 23.2839 27.6572 23.5942V26.8757C27.6572 27.186 27.9087 27.4375 28.219 27.4375H30.2824V29.5009C30.2824 29.811 30.5339 30.0627 30.8442 30.0627H34.1257C34.436 30.0627 34.6875 29.811 34.6875 29.5009V27.4375H36.7509C37.061 27.4375 37.3127 27.186 37.3127 26.8757V23.5942C37.3127 23.2839 37.061 23.0324 36.7509 23.0324H34.6875V20.969C34.6875 20.6587 34.436 20.4072 34.1257 20.4072H30.8442C30.5339 20.4072 30.2824 20.6587 30.2824 20.969V23.0324Z" fill="#FBEDF4"/>
</svg>
