<svg width="32" height="32" viewBox="0 0 32 32" fill="none" xmlns="http://www.w3.org/2000/svg">
<path fill-rule="evenodd" clip-rule="evenodd" d="M28.0715 8.0062C28.0715 7.41733 27.8448 6.85243 27.4418 6.43631C27.0384 6.01975 26.4913 5.78571 25.921 5.78571C25.3176 5.78571 24.7873 5.78571 24.7873 5.78571C24.5494 5.78571 24.3572 5.98466 24.3572 6.2298V15.5559C24.3572 15.8015 24.5494 16 24.7873 16H25.921C26.4913 16 27.0384 15.766 27.4418 15.3498C27.8448 14.9333 28.0715 14.3684 28.0715 13.7795V8.0062Z" fill="#FFB103"/>
<path fill-rule="evenodd" clip-rule="evenodd" d="M28.0715 18.2205C28.0715 17.6316 27.8448 17.0667 27.4418 16.6502C27.0384 16.234 26.4913 16 25.921 16C25.3176 16 24.7873 16 24.7873 16C24.5494 16 24.3572 16.1985 24.3572 16.4441V25.7702C24.3572 26.0153 24.5494 26.2143 24.7873 26.2143H25.921C26.4913 26.2143 27.0384 25.9802 27.4418 25.5637C27.8448 25.1476 28.0715 24.5827 28.0715 23.9938V18.2205Z" fill="#1EAFF9"/>
<path fill-rule="evenodd" clip-rule="evenodd" d="M26.2143 26.181V16.0333C26.0971 16.0111 25.9778 16 25.8577 16C25.2787 16 24.7699 16 24.7699 16C24.5417 16 24.3572 16.1985 24.3572 16.4441V25.7702C24.3572 26.0153 24.5417 26.2143 24.7699 26.2143H25.8577C25.9778 26.2143 26.0971 26.2027 26.2143 26.181Z" fill="#1485BE"/>
<path fill-rule="evenodd" clip-rule="evenodd" d="M26.2143 15.9667V5.81901C26.0971 5.79725 25.9778 5.78571 25.8577 5.78571C25.2787 5.78571 24.7699 5.78571 24.7699 5.78571C24.5417 5.78571 24.3572 5.98466 24.3572 6.2298V15.5559C24.3572 15.8015 24.5417 16 24.7699 16H25.8577C25.9778 16 26.0971 15.9889 26.2143 15.9667Z" fill="white"/>
<path fill-rule="evenodd" clip-rule="evenodd" d="M6.71429 5.91379C6.71429 6.16124 6.90901 6.36207 7.14894 6.36207H7.89479C8.13471 6.36207 8.32943 6.5629 8.32943 6.81034C8.32943 6.92107 8.32943 7.03448 8.32943 7.14566C8.32943 7.3931 8.13471 7.59393 7.89479 7.59393H7.14894C6.90901 7.59393 6.71429 7.79431 6.71429 8.04221V12.0032C6.71429 12.2506 6.90901 12.4514 7.14894 12.4514H7.89479C8.13471 12.4514 8.32943 12.6523 8.32943 12.8997C8.32943 13.0104 8.32943 13.1239 8.32943 13.235C8.32943 13.4825 8.13471 13.6833 7.89479 13.6833H7.14894C6.90901 13.6833 6.71429 13.8841 6.71429 14.1316V18.0926C6.71429 18.34 6.90901 18.5408 7.14894 18.5408H7.89479C8.13471 18.5408 8.32943 18.7417 8.32943 18.9891C8.32943 19.1003 8.32943 19.2137 8.32943 19.3244C8.32943 19.5719 8.13471 19.7727 7.89479 19.7727H7.14894C6.90901 19.7727 6.71429 19.9735 6.71429 20.221V24.1819C6.71429 24.4298 6.90901 24.6302 7.14894 24.6302H7.89479C8.13471 24.6302 8.32943 24.831 8.32943 25.0785C8.32943 25.1897 8.32943 25.3031 8.32943 25.4138C8.32943 25.6612 8.13471 25.8621 7.89479 25.8621H7.14894C6.90901 25.8621 6.71429 26.0629 6.71429 26.3103V26.7586C6.71429 27.9963 7.68746 29 8.88751 29C12.2756 29 19.7245 29 23.1125 29C24.3126 29 25.2857 27.9963 25.2857 26.7586C25.2857 22.1378 25.2857 9.86221 25.2857 5.24138C25.2857 4.00369 24.3126 3 23.1125 3C19.7245 3 12.2756 3 8.88751 3C7.68746 3 6.71429 4.00369 6.71429 5.24138V5.91379Z" fill="#1EAFF9"/>
<path d="M16.9286 21.5714C20.0056 21.5714 22.5 19.077 22.5 16C22.5 12.923 20.0056 10.4286 16.9286 10.4286C13.8516 10.4286 11.3572 12.923 11.3572 16C11.3572 19.077 13.8516 21.5714 16.9286 21.5714Z" fill="white"/>
<path fill-rule="evenodd" clip-rule="evenodd" d="M15.6536 14.725H14.4736C14.2909 14.725 14.1429 14.8732 14.1429 15.0557V16.9442C14.1429 17.1268 14.2909 17.2749 14.4736 17.2749H15.6536V18.455C15.6536 18.6377 15.8017 18.7857 15.9843 18.7857H17.8728C18.0554 18.7857 18.2035 18.6377 18.2035 18.455V17.2749H19.3836C19.5663 17.2749 19.7143 17.1268 19.7143 16.9442V15.0557C19.7143 14.8732 19.5663 14.725 19.3836 14.725H18.2035C18.2035 14.7251 18.2035 13.545 18.2035 13.545C18.2035 13.3623 18.0554 13.2143 17.8728 13.2143H15.9843C15.8017 13.2143 15.6536 13.3623 15.6536 13.545V14.725Z" fill="#DA3767"/>
<path fill-rule="evenodd" clip-rule="evenodd" d="M9.50002 24.6024C9.50002 23.8897 8.8687 23.3121 8.08977 23.3121H5.33884C4.55991 23.3121 3.92859 23.8897 3.92859 24.6024C3.92859 24.709 3.92859 24.8178 3.92859 24.9241C3.92859 25.6367 4.55991 26.2143 5.33884 26.2143H8.08977C8.8687 26.2143 9.50002 25.6367 9.50002 24.9241C9.50002 24.8178 9.50002 24.709 9.50002 24.6024ZM9.50002 18.7602C9.50002 18.0476 8.8687 17.47 8.08977 17.47H5.33884C4.55991 17.47 3.92859 18.0476 3.92859 18.7602C3.92859 18.8669 3.92859 18.9757 3.92859 19.0819C3.92859 19.7945 4.55991 20.3721 5.33884 20.3721H8.08977C8.8687 20.3721 9.50002 19.7945 9.50002 19.0819C9.50002 18.9757 9.50002 18.8669 9.50002 18.7602ZM9.50002 12.9181C9.50002 12.2054 8.8687 11.6278 8.08977 11.6278H5.33884C4.55991 11.6278 3.92859 12.2054 3.92859 12.9181C3.92859 13.0243 3.92859 13.1331 3.92859 13.2398C3.92859 13.9524 4.55991 14.53 5.33884 14.53H8.08977C8.8687 14.53 9.50002 13.9524 9.50002 13.2398C9.50002 13.1331 9.50002 13.0243 9.50002 12.9181ZM9.50002 7.07593C9.50002 6.3633 8.8687 5.78571 8.08977 5.78571H5.33884C4.55991 5.78571 3.92859 6.3633 3.92859 7.07593C3.92859 7.18216 3.92859 7.29097 3.92859 7.39763C3.92859 8.11026 4.55991 8.68785 5.33884 8.68785H8.08977C8.8687 8.68785 9.50002 8.11026 9.50002 7.39763C9.50002 7.29097 9.50002 7.18216 9.50002 7.07593Z" fill="#9FDFFF"/>
</svg>
