<svg width="32" height="32" viewBox="0 0 32 32" fill="none" xmlns="http://www.w3.org/2000/svg">
<path fill-rule="evenodd" clip-rule="evenodd" d="M28.0712 8.00621C28.0712 7.41733 27.8446 6.85244 27.4416 6.43632C27.0381 6.01975 26.4911 5.78571 25.9208 5.78571C25.3173 5.78571 24.787 5.78571 24.787 5.78571C24.5492 5.78571 24.3569 5.98467 24.3569 6.22981V15.5559C24.3569 15.8015 24.5492 16 24.787 16H25.9208C26.4911 16 27.0381 15.766 27.4416 15.3498C27.8446 14.9333 28.0712 14.3684 28.0712 13.7795V8.00621Z" fill="#D8D2F2"/>
<path fill-rule="evenodd" clip-rule="evenodd" d="M28.0712 18.2205C28.0712 17.6316 27.8446 17.0667 27.4416 16.6502C27.0381 16.234 26.4911 16 25.9208 16C25.3173 16 24.787 16 24.787 16C24.5492 16 24.3569 16.1985 24.3569 16.4441V25.7702C24.3569 26.0153 24.5492 26.2143 24.787 26.2143H25.9208C26.4911 26.2143 27.0381 25.9802 27.4416 25.5637C27.8446 25.1476 28.0712 24.5827 28.0712 23.9938V18.2205Z" fill="#B9AED8"/>
<path fill-rule="evenodd" clip-rule="evenodd" d="M26.2141 26.181V16.0333C26.0969 16.0111 25.9776 16 25.8575 16C25.2785 16 24.7696 16 24.7696 16C24.5414 16 24.3569 16.1985 24.3569 16.4441V25.7702C24.3569 26.0153 24.5414 26.2143 24.7696 26.2143H25.8575C25.9776 26.2143 26.0969 26.2027 26.2141 26.181Z" fill="#D8D2F2"/>
<path fill-rule="evenodd" clip-rule="evenodd" d="M26.2141 15.9667V5.81902C26.0969 5.79726 25.9776 5.78571 25.8575 5.78571C25.2785 5.78571 24.7696 5.78571 24.7696 5.78571C24.5414 5.78571 24.3569 5.98467 24.3569 6.22981V15.5559C24.3569 15.8015 24.5414 16 24.7696 16H25.8575C25.9776 16 26.0969 15.9889 26.2141 15.9667Z" fill="white"/>
<path fill-rule="evenodd" clip-rule="evenodd" d="M6.71411 5.91379C6.71411 6.16124 6.90883 6.36207 7.14875 6.36207H7.8946C8.13453 6.36207 8.32925 6.5629 8.32925 6.81034C8.32925 6.92107 8.32925 7.03448 8.32925 7.14566C8.32925 7.3931 8.13453 7.59393 7.8946 7.59393H7.14875C6.90883 7.59393 6.71411 7.79431 6.71411 8.04221V12.0032C6.71411 12.2506 6.90883 12.4514 7.14875 12.4514H7.8946C8.13453 12.4514 8.32925 12.6523 8.32925 12.8997C8.32925 13.0104 8.32925 13.1239 8.32925 13.235C8.32925 13.4825 8.13453 13.6833 7.8946 13.6833H7.14875C6.90883 13.6833 6.71411 13.8841 6.71411 14.1316V18.0926C6.71411 18.34 6.90883 18.5408 7.14875 18.5408H7.8946C8.13453 18.5408 8.32925 18.7417 8.32925 18.9891C8.32925 19.1003 8.32925 19.2137 8.32925 19.3244C8.32925 19.5719 8.13453 19.7727 7.8946 19.7727H7.14875C6.90883 19.7727 6.71411 19.9735 6.71411 20.221V24.1819C6.71411 24.4298 6.90883 24.6302 7.14875 24.6302H7.8946C8.13453 24.6302 8.32925 24.831 8.32925 25.0785C8.32925 25.1897 8.32925 25.3031 8.32925 25.4138C8.32925 25.6612 8.13453 25.8621 7.8946 25.8621H7.14875C6.90883 25.8621 6.71411 26.0629 6.71411 26.3103V26.7586C6.71411 27.9963 7.68728 29 8.88733 29C12.2754 29 19.7243 29 23.1123 29C24.3124 29 25.2855 27.9963 25.2855 26.7586C25.2855 22.1378 25.2855 9.86221 25.2855 5.24138C25.2855 4.00369 24.3124 3 23.1123 3C19.7243 3 12.2754 3 8.88733 3C7.68728 3 6.71411 4.00369 6.71411 5.24138V5.91379Z" fill="#D8D2F2"/>
<path d="M16.9284 21.5714C20.0054 21.5714 22.4998 19.077 22.4998 16C22.4998 12.923 20.0054 10.4286 16.9284 10.4286C13.8513 10.4286 11.3569 12.923 11.3569 16C11.3569 19.077 13.8513 21.5714 16.9284 21.5714Z" fill="white"/>
<path fill-rule="evenodd" clip-rule="evenodd" d="M15.6536 14.725H14.4735C14.2909 14.725 14.1428 14.8732 14.1428 15.0557V16.9442C14.1428 17.1268 14.2909 17.2749 14.4735 17.2749H15.6536V18.455C15.6536 18.6377 15.8016 18.7857 15.9842 18.7857H17.8727C18.0554 18.7857 18.2034 18.6377 18.2034 18.455V17.2749H19.3836C19.5662 17.2749 19.7143 17.1268 19.7143 16.9442V15.0557C19.7143 14.8732 19.5662 14.725 19.3836 14.725H18.2034C18.2034 14.7251 18.2034 13.545 18.2034 13.545C18.2034 13.3623 18.0554 13.2143 17.8727 13.2143H15.9842C15.8016 13.2143 15.6536 13.3623 15.6536 13.545V14.725Z" fill="#B9AED8"/>
<path fill-rule="evenodd" clip-rule="evenodd" d="M9.4999 24.6024C9.4999 23.8897 8.86857 23.3121 8.08965 23.3121H5.33872C4.55979 23.3121 3.92847 23.8897 3.92847 24.6024C3.92847 24.709 3.92847 24.8178 3.92847 24.9241C3.92847 25.6367 4.55979 26.2143 5.33872 26.2143H8.08965C8.86857 26.2143 9.4999 25.6367 9.4999 24.9241C9.4999 24.8178 9.4999 24.709 9.4999 24.6024ZM9.4999 18.7602C9.4999 18.0476 8.86857 17.47 8.08965 17.47H5.33872C4.55979 17.47 3.92847 18.0476 3.92847 18.7602C3.92847 18.8669 3.92847 18.9757 3.92847 19.0819C3.92847 19.7946 4.55979 20.3721 5.33872 20.3721H8.08965C8.86857 20.3721 9.4999 19.7946 9.4999 19.0819C9.4999 18.9757 9.4999 18.8669 9.4999 18.7602ZM9.4999 12.9181C9.4999 12.2054 8.86857 11.6279 8.08965 11.6279H5.33872C4.55979 11.6279 3.92847 12.2054 3.92847 12.9181C3.92847 13.0243 3.92847 13.1331 3.92847 13.2398C3.92847 13.9524 4.55979 14.53 5.33872 14.53H8.08965C8.86857 14.53 9.4999 13.9524 9.4999 13.2398C9.4999 13.1331 9.4999 13.0243 9.4999 12.9181ZM9.4999 7.07594C9.4999 6.3633 8.86857 5.78571 8.08965 5.78571H5.33872C4.55979 5.78571 3.92847 6.3633 3.92847 7.07594C3.92847 7.18217 3.92847 7.29098 3.92847 7.39764C3.92847 8.11027 4.55979 8.68786 5.33872 8.68786H8.08965C8.86857 8.68786 9.4999 8.11027 9.4999 7.39764C9.4999 7.29098 9.4999 7.18217 9.4999 7.07594Z" fill="#B9AED8"/>
</svg>
