<svg width="32" height="32" viewBox="0 0 32 32" fill="none" xmlns="http://www.w3.org/2000/svg">
<circle cx="16" cy="16" r="8" fill="white"/>
<circle cx="16" cy="16" r="3" fill="#B9AED8"/>
<path fill-rule="evenodd" clip-rule="evenodd" d="M18.8329 4.53026C18.8329 4.53026 18.8329 4.52982 18.8325 4.52982C18.5425 3.67791 17.7584 3.08109 16.8451 3.01755C16.8411 3.0171 16.837 3.0171 16.8329 3.01666C16.2784 2.99266 15.723 2.9931 15.1695 3.02777C15.1681 3.02777 15.1672 3.02777 15.1658 3.02777C14.2589 3.09132 13.4798 3.6828 13.1898 4.52804C13.024 4.98976 12.6286 5.28662 12.0247 5.45193C12.012 5.45549 11.9989 5.45949 11.9862 5.46437C11.3679 5.69368 10.7713 5.97543 10.2027 6.30694C10.191 6.31361 10.1796 6.32072 10.1688 6.32872C9.66276 6.6869 9.18212 6.80644 8.71598 6.63846C8.71553 6.63846 8.71553 6.63802 8.71508 6.63802C7.85527 6.32961 6.89083 6.55891 6.27067 7.21973C6.26795 7.22239 6.26523 7.2255 6.26251 7.22861C5.89785 7.63879 5.55175 8.06496 5.23374 8.51113C5.23329 8.51202 5.23238 8.51291 5.23193 8.5138C4.71686 9.24882 4.70282 10.2154 5.19524 10.9651C5.45979 11.3797 5.44982 11.8685 5.2052 12.4342C5.20022 12.4467 5.19524 12.4591 5.19116 12.4716C4.98867 13.0888 4.84099 13.7225 4.75084 14.3651C4.74857 14.378 4.74767 14.3913 4.74676 14.4047C4.71686 15.0162 4.51256 15.4592 4.08764 15.7121L4.08719 15.7125C3.3053 16.1796 2.88673 17.0621 3.02671 17.9496C3.02716 17.9536 3.02761 17.9576 3.02852 17.9616C3.12818 18.4971 3.25185 19.0286 3.4095 19.5503C3.40995 19.5512 3.40995 19.5525 3.4104 19.5534C3.67541 20.4066 4.43645 21.0203 5.3411 21.1097C5.83669 21.1652 6.21993 21.4776 6.51846 22.0185C6.5248 22.03 6.5316 22.0411 6.5393 22.0522C6.90487 22.5926 7.31801 23.101 7.77373 23.5707C7.78279 23.5805 7.79276 23.5894 7.80273 23.5983C8.27158 24.0022 8.49718 24.4355 8.43376 24.919C8.43376 24.9195 8.43376 24.9195 8.43376 24.9199C8.31824 25.8105 8.76083 26.6819 9.5554 27.1281C9.55902 27.1303 9.56264 27.1321 9.56627 27.1339C10.0551 27.3916 10.5556 27.628 11.0698 27.8324C11.0711 27.8329 11.0721 27.8333 11.073 27.8338C11.9183 28.1626 12.8818 27.9613 13.5169 27.3232C13.8703 26.9779 14.3581 26.8788 14.9751 26.9868C14.9887 26.989 15.0019 26.9908 15.0155 26.9921C15.6741 27.0485 16.3364 27.0485 16.9951 26.9921C17.0087 26.9908 17.0218 26.989 17.0354 26.9868C17.6497 26.8792 18.1357 26.9761 18.4814 27.3263C18.4814 27.3263 18.4818 27.3263 18.4818 27.3267C19.1201 27.9707 20.0905 28.1746 20.9412 27.8431C20.9453 27.8418 20.9489 27.84 20.9525 27.8387C21.4631 27.624 21.9632 27.3876 22.447 27.121C22.4479 27.1201 22.4488 27.1196 22.4497 27.1192C23.2388 26.6761 23.6791 25.8113 23.5668 24.9266C23.512 24.44 23.7371 24.004 24.2078 23.5983C24.2178 23.5894 24.2277 23.5805 24.2368 23.5707C24.6925 23.101 25.1057 22.5926 25.4712 22.0522C25.4789 22.0411 25.4857 22.03 25.4921 22.0185C25.7897 21.4803 26.1698 21.1674 26.6644 21.1208H26.6649C27.5763 21.0328 28.3437 20.4155 28.6101 19.5565C28.6115 19.5525 28.6124 19.549 28.6137 19.545C28.7609 19.0201 28.8842 18.4886 28.9729 17.9514C28.9734 17.9505 28.9734 17.9491 28.9734 17.9483C29.1125 17.0666 28.698 16.1898 27.9224 15.7241C27.5007 15.4632 27.2937 15.0188 27.2638 14.4047C27.2629 14.3913 27.262 14.378 27.2597 14.3651C27.1695 13.7225 27.0219 13.0888 26.8194 12.4716C26.8153 12.4591 26.8103 12.4467 26.8053 12.4342C26.5616 11.8707 26.5498 11.3841 26.8207 10.9757L26.8212 10.9753C27.319 10.2216 27.3059 9.24794 26.7872 8.50802C26.7849 8.50491 26.7827 8.50136 26.7804 8.49824C26.4538 8.05785 26.1072 7.63212 25.7344 7.22906C25.7335 7.22817 25.7326 7.22728 25.7322 7.22639C25.1161 6.57047 24.1584 6.34161 23.3045 6.64601C22.8329 6.80688 22.35 6.68868 21.8418 6.32872C21.8309 6.32072 21.8196 6.31361 21.8078 6.30694C21.2393 5.97543 20.6427 5.69368 20.0243 5.46437C20.0116 5.45949 19.9985 5.45549 19.9858 5.45193C19.3847 5.28706 18.9897 4.99287 18.8329 4.53026ZM16.0053 8.75244C20.0202 8.75244 23.2801 11.9503 23.2801 15.8889C23.2801 19.8276 20.0202 23.0254 16.0053 23.0254C11.9903 23.0254 8.73048 19.8276 8.73048 15.8889C8.73048 11.9503 11.9903 8.75244 16.0053 8.75244Z" fill="#D8D2F2"/>
</svg>
