<svg width="32" height="32" viewBox="0 0 32 32" fill="none" xmlns="http://www.w3.org/2000/svg">
<path fill-rule="evenodd" clip-rule="evenodd" d="M10.7884 10.124H12.932C13.506 10.124 14.0565 10.3521 14.4624 10.7579C14.8682 11.1637 15.0962 11.7142 15.0962 12.2881V23.1502C15.0962 23.2881 14.9845 23.3999 14.8465 23.3999H12.7029C12.5649 23.3999 12.4531 23.2881 12.4531 23.1502V12.2881C12.4531 11.8466 12.2778 11.4232 11.9656 11.111C11.6534 10.7987 11.2299 10.6234 10.7884 10.6234C10.6505 10.6234 10.5388 10.5116 10.5388 10.3738C10.5388 10.2358 10.6505 10.124 10.7884 10.124Z" fill="#D8D2F2"/>
<path fill-rule="evenodd" clip-rule="evenodd" d="M22.6762 5.9538H24.8199C26.0151 5.9538 26.9841 6.92267 26.9841 8.11793V23.1501C26.9841 23.2881 26.8722 23.3999 26.7343 23.3999H24.5906C24.4527 23.3999 24.341 23.2881 24.341 23.1501C24.341 23.1501 24.341 8.11793 24.341 8.11781C24.3409 7.19844 23.5957 6.45309 22.6762 6.45309C22.5383 6.45309 22.4265 6.34139 22.4265 6.20344C22.4265 6.0655 22.5383 5.9538 22.6762 5.9538Z" fill="#D8D2F2"/>
<path fill-rule="evenodd" clip-rule="evenodd" d="M4.97607 23.1502C4.97607 23.2881 5.08789 23.3999 5.22572 23.3999H12.7029C12.8408 23.3999 12.9526 23.2881 12.9526 23.1502V12.2881C12.9526 11.7142 12.7246 11.1637 12.3187 10.7579C11.9129 10.3521 11.3624 10.124 10.7884 10.124C9.66881 10.124 8.25985 10.124 7.14021 10.124C6.56625 10.124 6.01577 10.3521 5.60996 10.7579C5.20403 11.1637 4.97607 11.7142 4.97607 12.2881V23.1502Z" fill="#B9AED8"/>
<path fill-rule="evenodd" clip-rule="evenodd" d="M16.8638 23.1501C16.8638 23.2881 16.9756 23.3999 17.1135 23.3999H24.5906C24.7285 23.3999 24.8403 23.2881 24.8403 23.1501V8.11793C24.8403 6.92267 23.8714 5.9538 22.6761 5.9538C21.5565 5.9538 20.1477 5.9538 19.0279 5.9538C17.8328 5.9538 16.8638 6.92267 16.8638 8.11793V23.1501Z" fill="#B9AED8"/>
<path fill-rule="evenodd" clip-rule="evenodd" d="M3.3007 26.0063H28.6593C29.5164 26.0063 30.2122 25.3104 30.2122 24.4534C30.2122 23.5963 29.5164 22.9005 28.6593 22.9005H3.3007C2.44366 22.9005 1.74792 23.5963 1.74792 24.4534C1.74792 25.3104 2.44366 26.0063 3.3007 26.0063Z" fill="#D8D2F2"/>
<path fill-rule="evenodd" clip-rule="evenodd" d="M29.1091 22.9668C29.149 23.1042 29.1703 23.2495 29.1703 23.3999C29.1703 24.257 28.4746 24.9528 27.6176 24.9528H2.25894C2.10254 24.9528 1.95164 24.9297 1.80914 24.8865C1.99695 25.5331 2.59404 26.0063 3.30068 26.0063H28.6593C29.5163 26.0063 30.2122 25.3104 30.2122 24.4534C30.2122 23.7526 29.7471 23.1597 29.1091 22.9668Z" fill="#D8D2F2"/>
</svg>
