<svg width="32" height="32" viewBox="0 0 32 32" fill="none" xmlns="http://www.w3.org/2000/svg">
<path fill-rule="evenodd" clip-rule="evenodd" d="M10.208 20.776C10.208 22.465 11.577 23.834 13.266 23.834H18.257L23.678 27.979C24.205 28.382 24.904 28.481 25.522 28.241C26.141 28.001 26.59 27.456 26.708 26.803L27.243 23.834H27.692C29.381 23.834 30.75 22.465 30.75 20.776C30.75 18.084 30.75 13.659 30.75 10.966C30.75 9.277 29.381 7.908 27.692 7.908H21.042C20.628 7.908 20.292 8.244 20.292 8.658V16.498C20.292 17.358 19.595 18.056 18.734 18.056H13.452C13.235 18.056 13.03 18.15 12.887 18.312C12.87 18.333 12.85 18.351 12.828 18.368L10.502 20.146L10.208 20.743V20.776Z" fill="#F68D3F"/>
<path fill-rule="evenodd" clip-rule="evenodd" d="M4.757 19.556L5.292 22.525C5.41 23.178 5.859 23.723 6.478 23.963C7.096 24.203 7.795 24.103 8.322 23.7L13.743 19.556H18.734C20.423 19.556 21.792 18.187 21.792 16.498C21.792 13.805 21.792 9.381 21.792 6.688C21.792 4.999 20.423 3.63 18.734 3.63H4.308C2.619 3.63 1.25 4.999 1.25 6.688C1.25 9.381 1.25 13.805 1.25 16.498C1.25 18.187 2.619 19.556 4.308 19.556H4.757Z" fill="#FFB103"/>
<path fill-rule="evenodd" clip-rule="evenodd" d="M7.19299 12.343H15.849C16.263 12.343 16.599 12.007 16.599 11.593C16.599 11.179 16.263 10.843 15.849 10.843H7.19299C6.77899 10.843 6.44299 11.179 6.44299 11.593C6.44299 12.007 6.77899 12.343 7.19299 12.343Z" fill="#F9F9F9"/>
<path fill-rule="evenodd" clip-rule="evenodd" d="M7.19299 15.453H15.849C16.263 15.453 16.599 15.117 16.599 14.703C16.599 14.289 16.263 13.953 15.849 13.953H7.19299C6.77899 13.953 6.44299 14.289 6.44299 14.703C6.44299 15.117 6.77899 15.453 7.19299 15.453Z" fill="#F9F9F9"/>
<path fill-rule="evenodd" clip-rule="evenodd" d="M7.19299 9.233H15.849C16.263 9.233 16.599 8.897 16.599 8.483C16.599 8.069 16.263 7.733 15.849 7.733H7.19299C6.77899 7.733 6.44299 8.069 6.44299 8.483C6.44299 8.897 6.77899 9.233 7.19299 9.233Z" fill="#F9F9F9"/>
</svg>
