<svg width="32" height="32" viewBox="0 0 32 32" fill="none" xmlns="http://www.w3.org/2000/svg">
<path d="M27 26H5V27C5 27.5525 5.54694 28 6.22222 28H25.7778C26.4531 28 27 27.5525 27 27V26Z" fill="#BAB2DE"/>
<path d="M27 26H5V13.8611L16 3L27 13.8611V26Z" fill="#D8D2F2"/>
<path d="M12.6667 17H19.3333C19.7013 17 20 17.2738 20 17.6111V28H12V17.6111C12 17.2738 12.2987 17 12.6667 17Z" fill="#B9AED8"/>
<path opacity="0.05" d="M16 4C15.7103 4 15.4207 4.1021 15.1897 4.3057L11.9147 7.22964L5 13.7242V17L16 7.29893L27 17V13.7242L20.0853 7.22964L16.8103 4.3057C16.5793 4.1021 16.2897 4 16 4Z" fill="black"/>
<path d="M16 3C15.7103 3 15.4207 3.10993 15.1897 3.32913L11.9147 6.47828L5 13.4724V17L16 6.55266L27 17V13.4724L20.0853 6.47828L16.8103 3.32913C16.5793 3.10993 16.2897 3 16 3Z" fill="white"/>
<path d="M28.791 13.8382L16.8276 3.3114C16.5917 3.10401 16.2958 3 16 3C15.7042 3 15.4083 3.10401 15.1724 3.3114L3.209 13.8382C2.94688 14.0698 2.92878 14.4697 3.16906 14.7235L4.19009 15.8038C4.42039 16.0477 4.80421 16.0663 5.0576 15.8453L16 6.36037L26.9424 15.8459C27.1952 16.0663 27.5796 16.0483 27.8099 15.8044L28.8309 14.7241C29.0712 14.4697 29.0531 14.0698 28.791 13.8382Z" fill="#B9AED8"/>
</svg>
