<svg width="14" height="14" viewBox="0 0 14 14" fill="none" xmlns="http://www.w3.org/2000/svg">
<g clip-path="url(#clip0_16_19937)">
<path d="M7.00206 14C5.366 13.9998 3.73203 13.8828 2.11264 13.6499C1.66852 13.584 1.25737 13.3771 0.9399 13.0596C0.622433 12.7422 0.415491 12.331 0.349642 11.8869C-0.116547 8.64538 -0.116547 5.35384 0.349642 2.11231C0.415491 1.66821 0.622433 1.25705 0.9399 0.939591C1.25737 0.622128 1.66852 0.415189 2.11264 0.349341C5.35423 -0.116447 8.64577 -0.116447 11.8874 0.349341C12.3315 0.415189 12.7426 0.622128 13.0601 0.939591C13.3776 1.25705 13.5845 1.66821 13.6504 2.11231C14.1165 5.35384 14.1165 8.64538 13.6504 11.8869C13.5845 12.331 13.3776 12.7422 13.0601 13.0596C12.7426 13.3771 12.3315 13.584 11.8874 13.6499C10.2693 13.8826 8.63675 13.9996 7.00206 14Z" fill="#FBB03B"/>
<path d="M7.41925 3.55149L8.01337 5.4539C8.03886 5.54915 8.09428 5.63266 8.17072 5.69098C8.24716 5.7493 8.34015 5.77902 8.43473 5.77537H10.3519C10.4567 5.7441 10.5691 5.75651 10.6653 5.81001C10.7616 5.8635 10.8343 5.9539 10.8681 6.06222C10.9019 6.17054 10.8943 6.28834 10.8467 6.39088C10.7992 6.49342 10.7154 6.5727 10.6131 6.61207L9.06255 7.78787C8.98474 7.84282 8.92673 7.92336 8.89772 8.01671C8.86871 8.11006 8.87037 8.21086 8.90243 8.3031L9.49233 10.2055C9.55235 10.3003 9.57497 10.4157 9.55546 10.5275C9.53594 10.6394 9.47581 10.739 9.38764 10.8055C9.29946 10.8721 9.19008 10.9004 9.08237 10.8846C8.97466 10.8688 8.87697 10.8101 8.80973 10.7207L7.25914 9.54495C7.1851 9.4846 7.0939 9.45183 7 9.45183C6.90611 9.45183 6.81491 9.4846 6.74087 9.54495L5.18606 10.7207C5.11655 10.8024 5.02049 10.8541 4.91654 10.8658C4.8126 10.8775 4.7082 10.8484 4.62362 10.7842C4.53905 10.72 4.48034 10.6252 4.45891 10.5182C4.43749 10.4113 4.45486 10.2998 4.50767 10.2055L5.09757 8.3031C5.12964 8.21086 5.1313 8.11006 5.10229 8.01671C5.07328 7.92336 5.01527 7.84282 4.93746 7.78787L3.38686 6.61207C3.28456 6.5727 3.20084 6.49342 3.15329 6.39088C3.10575 6.28834 3.09808 6.17054 3.1319 6.06222C3.16572 5.9539 3.2384 5.8635 3.33466 5.81001C3.43092 5.75651 3.54327 5.7441 3.64811 5.77537H5.56528C5.65985 5.77902 5.75285 5.7493 5.82929 5.69098C5.90572 5.63266 5.96115 5.54915 5.98664 5.4539L6.57654 3.55149C6.57654 3.43469 6.62093 3.32268 6.69995 3.2401C6.77897 3.15751 6.88615 3.11111 6.9979 3.11111C7.10965 3.11111 7.21682 3.15751 7.29584 3.2401C7.37486 3.32268 7.41925 3.43469 7.41925 3.55149Z" fill="#F6FFB8"/>
</g>
<defs>
<clipPath id="clip0_16_19937">
<rect width="14" height="14" fill="white"/>
</clipPath>
</defs>
</svg>
