<svg width="24" height="24" viewBox="0 0 24 24" fill="none" xmlns="http://www.w3.org/2000/svg">
<g clip-path="url(#clip0_16_2039)">
<path d="M12.0035 24C9.19885 23.9997 6.39777 23.7991 3.62166 23.3998C2.86033 23.2869 2.15549 22.9322 1.61126 22.3879C1.06703 21.8437 0.712269 21.1389 0.599387 20.3776C-0.199796 14.8207 -0.199796 9.178 0.599387 3.6211C0.712269 2.85978 1.06703 2.15495 1.61126 1.61073C2.15549 1.0665 2.86033 0.711752 3.62166 0.59887C9.17868 -0.199624 14.8213 -0.199624 20.3783 0.59887C21.1397 0.711752 21.8445 1.0665 22.3887 1.61073C22.933 2.15495 23.2877 2.85978 23.4006 3.6211C24.1998 9.178 24.1998 14.8207 23.4006 20.3776C23.2877 21.1389 22.933 21.8437 22.3887 22.3879C21.8445 22.9322 21.1397 23.2869 20.3783 23.3998C17.6046 23.7987 14.8059 23.9993 12.0035 24Z" fill="#FBB03B"/>
<path d="M12.7186 6.08826L13.7371 9.34953C13.7808 9.51282 13.8758 9.65599 14.0069 9.75596C14.1379 9.85593 14.2973 9.90689 14.4594 9.90063H17.746C17.9257 9.84702 18.1183 9.86831 18.2834 9.96001C18.4484 10.0517 18.573 10.2067 18.6309 10.3924C18.6889 10.5781 18.6758 10.78 18.5943 10.9558C18.5128 11.1316 18.3693 11.2675 18.1939 11.335L15.5357 13.3506C15.4023 13.4448 15.3029 13.5829 15.2531 13.7429C15.2034 13.903 15.2063 14.0757 15.2612 14.2339L16.2725 17.4952C16.3754 17.6577 16.4141 17.8555 16.3807 18.0472C16.3472 18.2389 16.2442 18.4096 16.093 18.5237C15.9418 18.6378 15.7543 18.6864 15.5697 18.6593C15.385 18.6323 15.2176 18.5316 15.1023 18.3784L12.4441 16.3628C12.3172 16.2593 12.1609 16.2031 11.9999 16.2031C11.839 16.2031 11.6826 16.2593 11.5557 16.3628L8.8903 18.3784C8.77114 18.5183 8.60646 18.607 8.42827 18.6271C8.25008 18.6472 8.07111 18.5973 7.92612 18.4872C7.78114 18.3771 7.6805 18.2146 7.64376 18.0312C7.60703 17.8479 7.63682 17.6568 7.72735 17.4952L8.73861 14.2339C8.79358 14.0757 8.79642 13.903 8.74669 13.7429C8.69697 13.5829 8.59751 13.4448 8.46413 13.3506L5.80596 11.335C5.63058 11.2675 5.48706 11.1316 5.40556 10.9558C5.32405 10.78 5.31091 10.5781 5.36889 10.3924C5.42687 10.2067 5.55145 10.0517 5.71647 9.96001C5.88149 9.86831 6.07409 9.84702 6.25381 9.90063H9.54039C9.70252 9.90689 9.86194 9.85593 9.99298 9.75596C10.124 9.65599 10.219 9.51282 10.2627 9.34953L11.274 6.08826C11.274 5.88804 11.3501 5.69602 11.4855 5.55445C11.621 5.41287 11.8047 5.33334 11.9963 5.33334C12.1879 5.33334 12.3716 5.41287 12.5071 5.55445C12.6425 5.69602 12.7186 5.88804 12.7186 6.08826Z" fill="#F6FFB8"/>
</g>
<defs>
<clipPath id="clip0_16_2039">
<rect width="24" height="24" fill="white"/>
</clipPath>
</defs>
</svg>
