<svg width="24" height="24" viewBox="0 0 24 24" fill="none" xmlns="http://www.w3.org/2000/svg">
<path d="M4 21.6823C4 22.4983 4.69652 23 5.34828 23H18.6479C19.2961 23 20 22.5051 20 21.6823V4.31421C20 3.48165 19.2774 3 18.6479 3H5.34828C4.70012 3 4 3.49149 4 4.31421V21.6823Z" fill="white" stroke="#F19520" stroke-width="2"/>
<path d="M16.4147 1.56484L16.9685 3.89337C17.096 4.43516 16.8211 5 16.4226 5H7.5771C7.18264 5 6.90373 4.43516 7.03123 3.89337L7.58507 1.56484C7.66476 1.23055 7.88391 1 8.13094 1H15.8648C16.1158 1.00576 16.331 1.23055 16.4147 1.56484Z" fill="#666666"/>
<path d="M14.333 0.560748L14.9658 2.89346C15.1065 3.43178 14.7959 4 14.3448 4H9.65728C9.20611 4 8.88971 3.43178 9.03619 2.89346L9.669 0.560748C9.76275 0.224299 10.0088 0 10.2901 0H13.7178C13.9932 0 14.2393 0.224299 14.333 0.560748Z" fill="#666666"/>
<rect x="11" y="7" width="7" height="1" rx="0.5" fill="#666666"/>
<path d="M7.31907 10C7.23553 10 7.15896 9.97219 7.09631 9.90962L6.0939 8.90846C6.06418 8.87951 6.04056 8.84491 6.02443 8.8067C6.00831 8.76849 6 8.72744 6 8.68598C6 8.64451 6.00831 8.60347 6.02443 8.56526C6.04056 8.52705 6.06418 8.49245 6.0939 8.4635C6.2192 8.33835 6.42108 8.33835 6.53942 8.4635L7.31907 9.23523L9.4631 7.09386C9.5884 6.96871 9.79028 6.96871 9.90862 7.09386C10.027 7.219 10.0339 7.42063 9.90862 7.53882L7.54182 9.90266C7.48613 9.97219 7.4026 10 7.31907 10Z" fill="#FC5151"/>
<rect x="11" y="9" width="7" height="1" rx="0.5" fill="#666666"/>
<rect x="11" y="12" width="7" height="1" rx="0.5" fill="#666666"/>
<path d="M7.31907 15C7.23553 15 7.15896 14.9722 7.09631 14.9096L6.0939 13.9085C6.06418 13.8795 6.04056 13.8449 6.02443 13.8067C6.00831 13.7685 6 13.7274 6 13.686C6 13.6445 6.00831 13.6035 6.02443 13.5653C6.04056 13.5271 6.06418 13.4925 6.0939 13.4635C6.2192 13.3384 6.42108 13.3384 6.53942 13.4635L7.31907 14.2352L9.4631 12.0939C9.5884 11.9687 9.79028 11.9687 9.90862 12.0939C10.027 12.219 10.0339 12.4206 9.90862 12.5388L7.54182 14.9027C7.48613 14.9722 7.4026 15 7.31907 15Z" fill="#FC5151"/>
<rect x="11" y="14" width="7" height="1" rx="0.5" fill="#666666"/>
<rect x="11" y="17" width="7" height="1" rx="0.5" fill="#666666"/>
<path d="M7.31907 20C7.23553 20 7.15896 19.9722 7.09631 19.9096L6.0939 18.9085C6.06418 18.8795 6.04056 18.8449 6.02443 18.8067C6.00831 18.7685 6 18.7274 6 18.686C6 18.6445 6.00831 18.6035 6.02443 18.5653C6.04056 18.5271 6.06418 18.4925 6.0939 18.4635C6.2192 18.3384 6.42108 18.3384 6.53942 18.4635L7.31907 19.2352L9.4631 17.0939C9.5884 16.9687 9.79028 16.9687 9.90862 17.0939C10.027 17.219 10.0339 17.4206 9.90862 17.5388L7.54182 19.9027C7.48613 19.9722 7.4026 20 7.31907 20Z" fill="#FC5151"/>
<rect x="11" y="19" width="7" height="1" rx="0.5" fill="#666666"/>
</svg>
