<svg width="24" height="24" viewBox="0 0 24 24" fill="none" xmlns="http://www.w3.org/2000/svg">
<path d="M16.6907 5.6048H15.5054V2.82589H8.45358V5.6048H7.26831V2.66653C7.26831 2.0988 7.72648 1.64062 8.28923 1.64062H15.6648C16.2275 1.64062 16.6907 2.0988 16.6907 2.66653V5.6048Z" fill="#64798A"/>
<path d="M21.8701 5.59485H2.14383C1.59103 5.59485 1.14282 6.04306 1.14282 6.59585V21.3818C1.14282 21.9346 1.59103 22.3828 2.14383 22.3828H21.8701C22.4229 22.3828 22.8711 21.9346 22.8711 21.3818V6.59585C22.8711 6.04306 22.4229 5.59485 21.8701 5.59485Z" fill="#27A2DB"/>
<path d="M18.5185 5.6048H19.7486V22.3729H18.5185V5.6048ZM4.26538 5.6048H5.49547V22.3729H4.26538V5.6048Z" fill="#1C75A1"/>
<path d="M5.47063 5.00717H3.24451C3.11005 5.00717 3.00049 5.11673 3.00049 5.2512V5.60977H5.70967V5.2512C5.71465 5.11673 5.60509 5.00717 5.47063 5.00717ZM20.7695 5.00717H18.5434C18.409 5.00717 18.2994 5.11673 18.2994 5.2512V5.60977H21.0086V5.2512C21.0086 5.11673 20.904 5.00717 20.7695 5.00717Z" fill="#64798A"/>
<path d="M16.7157 13.8967C16.7655 16.571 14.5892 18.7473 11.9149 18.6975C9.39493 18.6527 7.33814 16.5959 7.29332 14.076C7.24352 11.4016 9.41983 9.22533 12.0942 9.27513C14.6141 9.32493 16.6709 11.3817 16.7157 13.8967Z" fill="white"/>
<path d="M14.8032 13.0949H12.9008V11.1875H11.113V13.0949H9.20557V14.8827H11.113V16.7901H12.9008V14.8827H14.8032V13.0949Z" fill="#E56353"/>
</svg>
