<svg width="40" height="40" viewBox="0 0 40 40" fill="none" xmlns="http://www.w3.org/2000/svg">
<path d="M32.74 1.25H7.26C5.66605 1.25 4.13738 1.88319 3.01029 3.01029C1.88319 4.13738 1.25 5.66605 1.25 7.26C1.25 7.42 1.25646 7.57979 1.26937 7.73938L3.35125 33.7663C3.45983 35.1235 4.07571 36.3901 5.0762 37.3137C6.0767 38.2373 7.38838 38.7501 8.75 38.75H31.25C32.6115 38.7499 33.923 38.237 34.9234 37.3135C35.9238 36.3899 36.5396 35.1234 36.6481 33.7663L38.73 7.73938C38.7433 7.57979 38.75 7.42 38.75 7.26C38.75 5.66605 38.1168 4.13738 36.9897 3.01029C35.8626 1.88319 34.334 1.25 32.74 1.25Z" fill="#199CE9"/>
<path d="M32.74 1.25H7.26C5.9723 1.25044 4.71922 1.66697 3.6875 2.4375C2.91697 3.46922 2.50044 4.7223 2.5 6.01C2.5 6.17 2.50646 6.32979 2.51938 6.48938L4.60125 32.5163C4.70983 33.8735 5.32571 35.1401 6.3262 36.0637C7.3267 36.9873 8.63838 37.5001 10 37.5H32.5C33.6316 37.4998 34.7345 37.1436 35.6525 36.4819C36.2256 35.6843 36.5699 34.7453 36.6481 33.7663L38.73 7.73938C38.7433 7.57979 38.75 7.42 38.75 7.26C38.75 5.66605 38.1168 4.13738 36.9897 3.01029C35.8626 1.88319 34.334 1.25 32.74 1.25Z" fill="#43C2FE"/>
<path d="M8.78001 36.2806C8.04829 36.277 7.3444 35.9997 6.8068 35.5033C6.2692 35.0069 5.93682 34.3273 5.87501 33.5981L3.79189 7.57064C3.78439 7.47689 3.78064 7.38314 3.78064 7.29064C3.7818 6.36009 4.15197 5.46798 4.80997 4.80997C5.46798 4.15197 6.36009 3.7818 7.29064 3.78064H32.7706C33.7012 3.78163 34.5935 4.15175 35.2515 4.80979C35.9095 5.46783 36.2796 6.36003 36.2806 7.29064C36.2806 7.38376 36.2769 7.47814 36.2694 7.56939L34.1875 33.5975C34.1256 34.3269 33.793 35.0066 33.2552 35.5032C32.7174 35.9997 32.0132 36.277 31.2813 36.2806H8.78001Z" fill="#A8C2E1"/>
<path d="M36.2806 7.29064C36.2796 6.36003 35.9095 5.46783 35.2515 4.80979C34.5934 4.15175 33.7012 3.78163 32.7706 3.78064H7.29062C6.96277 3.78141 6.63665 3.82832 6.32187 3.92001C5.86969 4.523 5.62518 5.25632 5.625 6.01002C5.625 6.10314 5.62875 6.19751 5.63625 6.29001L7.71875 32.3175C7.78057 33.0469 8.11314 33.7266 8.651 34.2231C9.18886 34.7195 9.89305 34.9967 10.625 35H33.125C33.3248 34.9999 33.524 34.9789 33.7194 34.9375C33.9842 34.5378 34.145 34.0783 34.1869 33.6006L36.2687 7.57252C36.2769 7.47689 36.2806 7.38376 36.2806 7.29064Z" fill="#D0E2EE"/>
<path d="M30 6.25H10V9.375C10 10.5353 10.4609 11.6481 11.2814 12.4686C12.1019 13.2891 13.2147 13.75 14.375 13.75H25.625C26.7853 13.75 27.8981 13.2891 28.7186 12.4686C29.5391 11.6481 30 10.5353 30 9.375V6.25Z" fill="white"/>
<path d="M18.125 13.75L20 11.25L21.875 13.75" fill="#DA3767"/>
<path d="M15.625 6.25H14.375V9.375H15.625V6.25Z" fill="#636363"/>
<path d="M18.125 6.25H16.875V8.125H18.125V6.25Z" fill="#636363"/>
<path d="M20.625 6.25H19.375V9.375H20.625V6.25Z" fill="#636363"/>
<path d="M23.125 6.25H21.875V8.125H23.125V6.25Z" fill="#636363"/>
<path d="M25.625 6.25H24.375V9.375H25.625V6.25Z" fill="#636363"/>
<path d="M28.125 6.25H26.875V8.125H28.125V6.25Z" fill="#636363"/>
<path d="M13.125 6.25H11.875V8.125H13.125V6.25Z" fill="#636363"/>
</svg>
